<?xml version="1.0" standalone="no"?><!DOCTYPE svg PUBLIC "-//W3C//DTD SVG 1.1//EN" "http://www.w3.org/Graphics/SVG/1.1/DTD/svg11.dtd"><svg t="1648720351733" class="icon" viewBox="0 0 1024 1024" version="1.1" xmlns="http://www.w3.org/2000/svg" p-id="2475" xmlns:xlink="http://www.w3.org/1999/xlink" width="64" height="64"><defs><style type="text/css"></style></defs><path d="M512 512m-512 0a512 512 0 1 0 1024 0 512 512 0 1 0-1024 0Z" fill="#EFF3F6" p-id="2476"></path><path d="M307.2 286.72h122.68544a51.2 51.2 0 0 1 45.312 27.35104L563.2 481.28H256V337.92a51.2 51.2 0 0 1 51.2-51.2z" fill="#CBD2D9" p-id="2477"></path><path d="M256 368.64m51.2 0l409.6 0q51.2 0 51.2 51.2l0 266.24q0 51.2-51.2 51.2l-409.6 0q-51.2 0-51.2-51.2l0-266.24q0-51.2 51.2-51.2Z" fill="#DAE1E7" p-id="2478"></path><path d="M590.53056 481.28H433.47968C420.29056 481.28 409.6 491.76576 409.6 504.69888v117.00224C409.6 634.63424 420.29056 645.12 433.47968 645.12h157.05088C603.70944 645.12 614.4 634.63424 614.4 621.70112V504.69888C614.4 491.76576 603.70944 481.28 590.53056 481.28zM450.56 542.72a20.48 20.48 0 1 1 0-40.96 20.48 20.48 0 0 1 0 40.96z m30.8224 81.92H440.32l35.84-61.44 20.86912 35.77856L512 624.64h-30.6176z m35.70688-10.24L501.76 590.92992 534.71232 542.72 583.68 614.4h-66.59072z" fill="#CBD2D9" p-id="2479"></path><path d="M307.2 798.72a204.8 20.48 0 1 0 409.6 0 204.8 20.48 0 1 0-409.6 0Z" fill="#CBD2D9" opacity=".3" p-id="2480"></path></svg>