<?xml version="1.0" encoding="utf-8"?>
<!-- Generator: Adobe Illustrator 22.1.0, SVG Export Plug-In . SVG Version: 6.00 Build 0)  -->
<svg version="1.1" id="图层_1" xmlns="http://www.w3.org/2000/svg" xmlns:xlink="http://www.w3.org/1999/xlink" x="0px" y="0px"
	 viewBox="0 0 500 500" style="enable-background:new 0 0 500 500;" xml:space="preserve">
<style type="text/css">
	.st0{fill:#0B0C16;}
	.st1{fill:#161724;}
</style>
<g>
	<rect class="st0" width="500" height="500"/>
</g>
<g>
	<path class="st1" d="M169.939,229.542v40.917h-8.174l-18.563-28.066v28.066h-8.223v-40.917h8.174l18.563,28.115v-28.115H169.939
		L169.939,229.542z"/>
	<path class="st1" d="M178.014,229.591h25.259v6.598h-17.036v10.488h13.048v6.499h-13.048v17.283h-8.223V229.591z"/>
	<path class="st1" d="M206.917,229.591h29.986v6.598h-10.882v34.27h-8.223v-34.27h-10.882V229.591L206.917,229.591z"/>
	<path class="st1" d="M255.268,271c-8.124,0-13.836-4.727-14.181-10.783h8.272c0.295,2.462,2.56,4.333,5.859,4.333
		c3.2,0,4.973-1.477,4.973-3.348c0-5.81-18.317-2.117-18.317-13.984c0-5.367,4.825-9.7,12.802-9.7
		c7.829,0,12.605,4.284,13.048,10.734h-7.829c-0.246-2.511-2.216-4.234-5.465-4.234c-3.053,0-4.628,1.231-4.628,3.102
		c0,5.909,17.972,2.216,18.218,14.131C268.021,266.766,263.147,271,255.268,271z"/>
	<path class="st1" d="M326.565,241.9h-9.404c-1.871-3.447-5.268-5.268-9.601-5.268c-7.336,0-12.408,5.219-12.408,13.344
		c0,8.321,5.17,13.491,12.753,13.491c6.302,0,10.34-3.644,11.571-9.404h-14.033v-6.352h22.157v7.14
		c-1.625,8.321-9.06,15.904-19.991,15.904c-11.866,0-20.926-8.617-20.926-20.828c0-12.26,9.011-20.926,20.828-20.926
		C316.668,229.049,323.955,233.678,326.565,241.9z"/>
	<path class="st1" d="M348.082,271c-9.355,0-16.445-6.549-16.445-16.741c0-10.242,7.336-16.741,16.692-16.741
		c9.355,0,16.692,6.499,16.692,16.741C365.02,264.402,357.487,271,348.082,271z M348.082,263.861c4.333,0,8.469-3.151,8.469-9.601
		c0-6.499-4.038-9.601-8.37-9.601c-4.333,0-8.272,3.102-8.272,9.601C339.958,260.66,343.7,263.861,348.082,263.861z"/>
</g>
</svg>
