<?xml version="1.0" standalone="no"?><!DOCTYPE svg PUBLIC "-//W3C//DTD SVG 1.1//EN" "http://www.w3.org/Graphics/SVG/1.1/DTD/svg11.dtd"><svg t="1648720336577" class="icon" viewBox="0 0 1024 1024" version="1.1" xmlns="http://www.w3.org/2000/svg" p-id="2177" xmlns:xlink="http://www.w3.org/1999/xlink" width="64" height="64"><defs><style type="text/css"></style></defs><path d="M512 512m-512 0a512 512 0 1 0 1024 0 512 512 0 1 0-1024 0Z" fill="#EFF3F6" p-id="2178"></path><path d="M307.2 286.72h122.68544a51.2 51.2 0 0 1 45.312 27.35104L563.2 481.28H256V337.92a51.2 51.2 0 0 1 51.2-51.2z" fill="#CBD2D9" p-id="2179"></path><path d="M256 368.64m51.2 0l409.6 0q51.2 0 51.2 51.2l0 266.24q0 51.2-51.2 51.2l-409.6 0q-51.2 0-51.2-51.2l0-266.24q0-51.2 51.2-51.2Z" fill="#DAE1E7" p-id="2180"></path><path d="M307.2 798.72a204.8 20.48 0 1 0 409.6 0 204.8 20.48 0 1 0-409.6 0Z" fill="#CBD2D9" opacity=".3" p-id="2181"></path><path d="M567.552 573.44L604.16 598.34368 522.09664 655.36v-50.46272L567.552 573.44z m-111.104 0l45.45536 31.45728V655.36L419.84 598.34368 456.448 573.44zM512 532.48l37.35552 25.6L512 583.68l-37.35552-25.6L512 532.48z m102.4 7.2192v36.7616L587.35616 558.08 614.4 539.6992z m-204.8 0l27.04384 18.3808L409.6 576.4608v-36.7616zM522.09664 460.8L604.16 517.81632 567.552 542.72l-45.45536-31.45728V460.8z m-20.19328 0v50.46272L456.448 542.72 419.84 517.81632 501.90336 460.8z" fill="#CBD2D9" p-id="2182"></path></svg>