<svg xmlns="http://www.w3.org/2000/svg" viewBox="0 0 410.67 350.15"><defs><style>.cls-1{fill:#ebebeb;}.cls-2{fill:#e0e0e0;}.cls-3{fill:#f0f0f0;}.cls-4{fill:#f5f5f5;}.cls-5{fill:#263238;}.cls-6,.cls-7{fill:#407bff;}.cls-7,.cls-9{opacity:0.3;}.cls-8,.cls-9{fill:#fff;}.cls-10{opacity:0.2;}</style></defs><g id="Robot_Parts" data-name="Robot Parts"><path class="cls-1" d="M262.74,223.62l.45-13.14-8.07-2.64A77.89,77.89,0,0,0,253,194.65l6.84-5-4.65-12.35-8.45.68a78.72,78.72,0,0,0-7-11.35l4.38-7.31-9-9.61-7.56,3.87a83.63,83.63,0,0,0-10.84-7.83l1.22-8.4-12-5.44-5.49,6.44a81.73,81.73,0,0,0-13-3.05l-2-8.23-13.18-.45-2.6,8.07a81.5,81.5,0,0,0-13.2,2.15l-5.08-6.8-12.34,4.61.68,8.46a81.63,81.63,0,0,0-11.35,7.07L121,145.76l-9.65,9,3.87,7.6a78.21,78.21,0,0,0-7.8,10.84L99,171.91l-5.48,12,6.48,5.5a78.42,78.42,0,0,0-3,13l-8.27,2.08-.45,13.14,8.11,2.64a77.68,77.68,0,0,0,2.15,13.2l-6.84,5,4.64,12.34,8.46-.68a78.17,78.17,0,0,0,7,11.35l-4.38,7.31,9,9.61,7.56-3.87a81.05,81.05,0,0,0,10.84,7.84l-1.26,8.39,12,5.44,5.53-6.44a80.66,80.66,0,0,0,13,3.05l2,8.23,13.18.45,2.6-8.07a80.48,80.48,0,0,0,13.19-2.15l5,6.8,12.34-4.61-.65-8.45A81.34,81.34,0,0,0,223.21,278l7.28,4.38,9.65-9-3.87-7.6a77.61,77.61,0,0,0,7.8-10.84l8.39,1.26,5.48-12-6.48-5.49a77.61,77.61,0,0,0,3-13Zm-88.8,42.57a52.16,52.16,0,1,1,53.9-50.33A52.13,52.13,0,0,1,173.94,266.19Z" transform="translate(-88.23 -100.15)"/><path class="cls-1" d="M487.62,180.17l3.32-3.1-1.33-2.61a26.25,26.25,0,0,0,2.7-3.74l2.89.44,1.88-4.15-2.23-1.89a26.84,26.84,0,0,0,1-4.49l2.85-.71.15-4.54-2.79-.9a28,28,0,0,0-.73-4.55l2.35-1.75-1.6-4.26-2.91.23a28.15,28.15,0,0,0-2.43-3.91l1.5-2.51-3.1-3.32-2.6,1.33a28.24,28.24,0,0,0-3.74-2.69l.42-2.9-4.14-1.88-1.89,2.23a27.31,27.31,0,0,0-4.49-1.05l-.71-2.84-4.54-.16-.91,2.79a26.86,26.86,0,0,0-4.54.74l-1.74-2.35L456,129.22l.24,2.92a27,27,0,0,0-3.91,2.43l-2.53-1.51-3.31,3.1,1.33,2.61a27.44,27.44,0,0,0-2.69,3.75l-2.9-.44-1.88,4.14,2.23,1.9a26.73,26.73,0,0,0-1.05,4.48l-2.85.72-.15,4.54,2.79.9a28.36,28.36,0,0,0,.73,4.55l-2.35,1.74,1.6,4.25,2.92-.22a28.25,28.25,0,0,0,2.43,3.92l-1.51,2.5,3.1,3.33,2.61-1.34a27.43,27.43,0,0,0,3.74,2.7l-.43,2.89,4.13,1.88,1.91-2.22a28.94,28.94,0,0,0,4.49,1l.71,2.85,4.54.16.91-2.8a26,26,0,0,0,4.54-.74l1.74,2.36,4.26-1.59-.24-2.92a26.27,26.27,0,0,0,3.92-2.43ZM464,161a6.47,6.47,0,1,1,9.14.31A6.48,6.48,0,0,1,464,161Z" transform="translate(-88.23 -100.15)"/><path class="cls-1" d="M366.66,315.08l-10.35-7.14v0a57.18,57.18,0,0,0-4.16-10.77l2.65-10.4-15-16.06-10.56,1.93a57.26,57.26,0,0,0-10.45-4.88h0l-6.42-10.81-22-.75-7.15,10.34h0a57.05,57.05,0,0,0-10.76,4.15L262,268,246,283l1.93,10.53h0a55.4,55.4,0,0,0-4.88,10.5l-10.81,6.41-.75,22,10.35,7.15A55.26,55.26,0,0,0,246,350.4h0l-2.64,10.36,15,16.07,10.5-1.92a57.15,57.15,0,0,0,10.54,4.89h0l6.41,10.8,22,.75L314.87,381a57.37,57.37,0,0,0,10.85-4.15h0l10.34,2.64,16.07-15L350.21,354a55.94,55.94,0,0,0,4.88-10.49h0l10.81-6.42ZM298.2,348.47a24.71,24.71,0,1,1,25.55-23.85A24.72,24.72,0,0,1,298.2,348.47Z" transform="translate(-88.23 -100.15)"/><path class="cls-1" d="M390.21,252.7h-.07l-17.31-.6a2.11,2.11,0,0,1-1.75-1l-4.66-7.85a46.9,46.9,0,0,1-7.28-3.38l-7.51,1.37a2.09,2.09,0,0,1-1.92-.63l-11.83-12.67a2.1,2.1,0,0,1-.5-2l1.89-7.41a45.11,45.11,0,0,1-2.86-7.47l-7.53-5.2a2.08,2.08,0,0,1-.91-1.81l.59-17.32a2.11,2.11,0,0,1,1-1.74l7.87-4.67a45.72,45.72,0,0,1,3.37-7.25l-1.38-7.53a2.11,2.11,0,0,1,.63-1.92l12.67-11.83a2.1,2.1,0,0,1,2-.5l7.44,1.89a46.76,46.76,0,0,1,7.45-2.87l5.19-7.53a2.07,2.07,0,0,1,1.81-.91l17.32.6a2.09,2.09,0,0,1,1.74,1l4.67,7.87a47,47,0,0,1,7.23,3.37l7.55-1.38A2.13,2.13,0,0,1,417,154l11.82,12.67a2.13,2.13,0,0,1,.51,2l-1.9,7.44a46.08,46.08,0,0,1,2.87,7.44l7.53,5.2a2.13,2.13,0,0,1,.91,1.81l-.59,17.32a2.13,2.13,0,0,1-1,1.74l-7.87,4.67a46.17,46.17,0,0,1-3.36,7.25L427.3,229a2.11,2.11,0,0,1-.64,1.93L414,242.78a2.12,2.12,0,0,1-2,.5l-7.4-1.88a47.11,47.11,0,0,1-7.49,2.87L392,251.79A2.1,2.1,0,0,1,390.21,252.7Zm-16.09-4.78,15,.52,5-7.2a2.15,2.15,0,0,1,1.19-.84,43,43,0,0,0,8.16-3.13h0a2.09,2.09,0,0,1,1.46-.16l7,1.8,11-10.25-1.31-7.18a2.11,2.11,0,0,1,.27-1.47,41.58,41.58,0,0,0,3.65-7.83,2.11,2.11,0,0,1,.94-1.17l7.52-4.47.52-15-7.2-5a2.13,2.13,0,0,1-.81-1.06c0-.06,0-.12-.05-.17a42.73,42.73,0,0,0-3.11-8.06,2.11,2.11,0,0,1-.16-1.48l1.8-7.07-10.25-11L407.55,159a2.08,2.08,0,0,1-1.46-.26,43.4,43.4,0,0,0-7.85-3.67,2.19,2.19,0,0,1-.44-.2,2.22,2.22,0,0,1-.71-.72l-4.47-7.53-15-.52-5,7.21a2.1,2.1,0,0,1-1.25.85,43.49,43.49,0,0,0-8.05,3.11,2.17,2.17,0,0,1-1.48.17l-7.07-1.81-11,10.25,1.31,7.18a2,2,0,0,1-.19,1.32.91.91,0,0,1-.09.17,41.86,41.86,0,0,0-3.65,7.86,2.12,2.12,0,0,1-.92,1.12L332.74,188l-.51,15,7.21,5a2.17,2.17,0,0,1,.84,1.19,41.64,41.64,0,0,0,3.1,8.11,2,2,0,0,1,.18.46,2.11,2.11,0,0,1,0,1l-1.79,7.06,10.25,11,7.13-1.3a2.07,2.07,0,0,1,1.46.26,43.57,43.57,0,0,0,7.89,3.66,2.11,2.11,0,0,1,1.17.93Zm24.79-94.81h0ZM383.39,229l-1.11,0a31.53,31.53,0,1,1,1.11,0Zm0-59.1a27.55,27.55,0,1,0,.95,0Z" transform="translate(-88.23 -100.15)"/><polygon class="cls-2" points="341.87 27.91 334.7 25.99 332.77 18.82 335.58 16.01 338.55 22.14 344.68 25.11 341.87 27.91"/><path class="cls-2" d="M430.55,123.26a3.34,3.34,0,1,0-4.73-4.73l3.56-5.35,4.79,2.42,1.05,5Z" transform="translate(-88.23 -100.15)"/><path class="cls-3" d="M423.25,116.72l5.26-5.25,7.17,1.92,1.93,7.18-5.26,5.25-7.18-1.92Zm9.54,4.3a3.34,3.34,0,1,0-4.73,0A3.35,3.35,0,0,0,432.79,121Z" transform="translate(-88.23 -100.15)"/><polygon class="cls-2" points="48.66 219.3 52.5 218.27 53.54 214.42 52.03 212.91 50.44 216.2 47.15 217.79 48.66 219.3"/><path class="cls-2" d="M136.65,316.87a1.8,1.8,0,0,1,2.54-2.54l-1.92-2.87-2.56,1.3-.57,2.7Z" transform="translate(-88.23 -100.15)"/><path class="cls-3" d="M140.57,313.36l-2.82-2.82-3.85,1-1,3.85,2.82,2.82,3.85-1Zm-5.12,2.31a1.8,1.8,0,1,1,2.54,0A1.78,1.78,0,0,1,135.45,315.67Z" transform="translate(-88.23 -100.15)"/><path class="cls-3" d="M123,108.41l3.19,3.19a2.15,2.15,0,0,0,3,0h0a2.14,2.14,0,0,0,0-3l-3.2-3.2a2.14,2.14,0,0,0-3,0h0A2.15,2.15,0,0,0,123,108.41Z" transform="translate(-88.23 -100.15)"/><path class="cls-2" d="M120.78,100.45a4.45,4.45,0,1,1-3,5.78A4.59,4.59,0,0,1,120.78,100.45Z" transform="translate(-88.23 -100.15)"/><rect class="cls-3" x="121.6" y="99.58" width="1.37" height="10.1" transform="translate(-23.09 154.93) rotate(-109.76)"/><ellipse id="_Path_" data-name="&lt;Path&gt;" class="cls-4" cx="208.43" cy="338.83" rx="193.89" ry="11.32"/><path class="cls-5" d="M133.38,143.39q-1.5-6.6,1.34-11.12t9.42-6q6.74-1.53,11.2,1.25c3,1.86,5,5,5.94,9.3a16.9,16.9,0,0,1,.17,8.12,11.62,11.62,0,0,1-3.52,5.76,15.63,15.63,0,0,1-7.12,3.39,17.64,17.64,0,0,1-7.88.26,11.6,11.6,0,0,1-5.9-3.5A15.72,15.72,0,0,1,133.38,143.39Zm8.35-1.86q.93,4.09,2.85,5.53a5.9,5.9,0,0,0,8.3-1.85c.71-1.39.73-3.59,0-6.61-.57-2.54-1.51-4.28-2.8-5.22a5.38,5.38,0,0,0-4.57-.81,5.2,5.2,0,0,0-3.64,2.71Q140.79,137.41,141.73,141.53Z" transform="translate(-88.23 -100.15)"/><path class="cls-5" d="M165.26,140.09A10,10,0,0,1,166.6,132a11.6,11.6,0,0,1,7.5-4.75q5.86-1.34,9.64,1.39a10.92,10.92,0,0,1,2.63,14.27q-2.33,3.57-7.61,4.76a11.83,11.83,0,0,1-8.16-.66A9.85,9.85,0,0,1,165.26,140.09Zm7.5-1.72A6,6,0,0,0,174.7,142,3.55,3.55,0,0,0,180,140.8a6.18,6.18,0,0,0,.14-4.19,5.87,5.87,0,0,0-1.91-3.55,3.34,3.34,0,0,0-2.87-.65,3.45,3.45,0,0,0-2.42,1.88A6,6,0,0,0,172.76,138.37Z" transform="translate(-88.23 -100.15)"/><path class="cls-5" d="M195.25,151.31l-6.13-27,7-1.59.66,2.89a9.43,9.43,0,0,1,2.1-3.07,7.8,7.8,0,0,1,3.43-1.69,7.17,7.17,0,0,1,6.75,1.62,12.74,12.74,0,0,1,3.83,6.93c.74,3.25.52,5.9-.65,8a7.82,7.82,0,0,1-5.32,3.91,8.38,8.38,0,0,1-3.29.13,7.87,7.87,0,0,1-2.95-1.17l2.12,9.33Zm3.61-18.86a5.26,5.26,0,0,0,1.76,3.22,3.19,3.19,0,0,0,2.72.56,2.78,2.78,0,0,0,1.94-1.57,5.93,5.93,0,0,0,.06-3.85,5.5,5.5,0,0,0-1.72-3.28,2.85,2.85,0,0,0-2.49-.61,3.12,3.12,0,0,0-2.14,1.67A5.73,5.73,0,0,0,198.86,132.45Z" transform="translate(-88.23 -100.15)"/><path class="cls-5" d="M216.1,133l7.28-2.39a3.73,3.73,0,0,0,1.72,1.61,3.93,3.93,0,0,0,2.33.06,3.83,3.83,0,0,0,2.19-1.17,1.49,1.49,0,0,0,.38-1.34,1.42,1.42,0,0,0-1.13-1.06,16.32,16.32,0,0,0-3.4,0,35.08,35.08,0,0,1-5.7,0,5.89,5.89,0,0,1-3-1.38A5.22,5.22,0,0,1,215,124.4a5.32,5.32,0,0,1,.36-3.58A6.89,6.89,0,0,1,218,118a16.78,16.78,0,0,1,5.13-1.89,18.85,18.85,0,0,1,5.28-.64,6.83,6.83,0,0,1,3.15,1,8.86,8.86,0,0,1,2.54,2.62l-6.94,2.31a2.55,2.55,0,0,0-1.23-1.17,3.85,3.85,0,0,0-2.27-.1,3.08,3.08,0,0,0-1.75.87,1.36,1.36,0,0,0-.33,1.22,1.19,1.19,0,0,0,1,.92,11.87,11.87,0,0,0,3.35-.07,22.5,22.5,0,0,1,5.83-.08,6.15,6.15,0,0,1,3.27,1.52,5.4,5.4,0,0,1,1.67,2.85,6.32,6.32,0,0,1-.27,3.52,7.11,7.11,0,0,1-2.65,3.28,16,16,0,0,1-5.77,2.31c-3.57.81-6.23.87-8,.2A7,7,0,0,1,216.1,133Z" transform="translate(-88.23 -100.15)"/><path class="cls-5" d="M240.52,108.31l8.2,0,0,6.31-1.51,12.67-5.08,0-1.62-12.66Zm.4,20.89,7.66,0,0,6.78L241,136Z" transform="translate(-88.23 -100.15)"/><path class="cls-5" d="M175.35,194.32a.57.57,0,0,1-.18,0c-4.5-1.74-7.2-3.45-8.6-5.49a5.16,5.16,0,0,1-3.23-.45,6.42,6.42,0,0,1-2.78-2.62,2.57,2.57,0,0,1-2.42.38,6.22,6.22,0,0,1-3-2.41,2.25,2.25,0,0,1-1.55.42c-3-.24-7-6.16-7.29-12.46a.5.5,0,0,1,.48-.52.49.49,0,0,1,.52.47c.27,6,4.11,11.33,6.37,11.52a1.28,1.28,0,0,0,.93-.28,12.3,12.3,0,0,1-1-9.41c.86-3,1.62-4.18,2.53-4,1.73.43,1.5,7,.59,11.29a6.27,6.27,0,0,1-.85,2.19,5.44,5.44,0,0,0,2.55,2.2,1.57,1.57,0,0,0,1.67-.34c-.79-1.94-1-4.58.12-7.94,1.4-4.43,2-4.55,2.3-4.62a.68.68,0,0,1,.65.22c.92,1-.18,7.92-1.35,11.32a5,5,0,0,1-.55,1.16,5.42,5.42,0,0,0,2.49,2.5,4.3,4.3,0,0,0,2.27.43,5.89,5.89,0,0,1-.24-.58c-.79-2.14-.41-4.62,1.18-7.57,1.06-2,1.92-2.87,2.71-2.88h0a1.11,1.11,0,0,1,1,.67c.87,1.61.24,6.92-1.48,9.55a4,4,0,0,1-1.62,1.4c1.34,1.76,3.88,3.31,7.95,4.89a.5.5,0,0,1,.28.64A.48.48,0,0,1,175.35,194.32Zm-5.66-16.47s-.56,0-1.82,2.35c-1.45,2.69-1.82,4.9-1.13,6.76a4.43,4.43,0,0,0,.3.67,3,3,0,0,0,1.32-1.11c1.4-2.14,2.07-6.53,1.55-8.25C169.8,177.91,169.69,177.85,169.69,177.85Zm-7.17-4.21a23.12,23.12,0,0,0-1.34,3.53,11.3,11.3,0,0,0-.38,6.55l.09-.25A32.89,32.89,0,0,0,162.52,173.64Zm-6.59-3.15c-.16.16-.65.79-1.35,3.22a11.26,11.26,0,0,0,.73,8.25,6.52,6.52,0,0,0,.45-1.4C156.8,175.65,156.49,171.2,155.93,170.49Z" transform="translate(-88.23 -100.15)"/><path class="cls-5" d="M213.36,246.74a9,9,0,0,1-4.56-1.19.5.5,0,0,1-.17-.68.49.49,0,0,1,.68-.18c3.57,2.09,8.18.63,9.13-.89a.86.86,0,0,0,.14-.68,8.14,8.14,0,0,1-5.13-1.46c-2.54-1.59-2.74-2.06-2.72-2.44a.61.61,0,0,1,.34-.53c1-.5,5.5,1.58,7.38,2.81a3,3,0,0,1,.63.53,3.62,3.62,0,0,0,1.9-1.15,3,3,0,0,0,.59-1.12l-.2,0c-1.6.16-3.21-.52-4.92-2.1-1.17-1.09-1.63-1.84-1.47-2.43a.88.88,0,0,1,.71-.65c1.39-.35,4.8,1.11,6.2,2.64a2.79,2.79,0,0,1,.64,1.18c1.3-.61,2.68-2,4.32-4.27a.51.51,0,0,1,.7-.11.5.5,0,0,1,.11.69c-1.89,2.64-3.46,4.14-5,4.75a3.84,3.84,0,0,1-.87,2,4.53,4.53,0,0,1-2.18,1.41,1.83,1.83,0,0,1-.28,1.39C218.44,245.68,216,246.74,213.36,246.74Zm-.88-6.94c.33.25.81.58,1.5,1a8.06,8.06,0,0,0,3.6,1.32A25.47,25.47,0,0,0,212.48,239.8Zm3.49-4.24a4.35,4.35,0,0,0,1.16,1.38c1.49,1.38,2.84,2,4.13,1.85l.32,0a1.84,1.84,0,0,0-.43-.83C219.74,236.37,216.65,235.4,216,235.56Z" transform="translate(-88.23 -100.15)"/><path class="cls-6" d="M226.61,245.37,211,248.2,196.88,171l-30.06,5.46-49,87,5.26,28.7,62.83-11.41,4.31,23.48,30.06-5.46L216,275.28l15.58-2.83Zm-78.85,14.32,26-45.57L181,253.66Z" transform="translate(-88.23 -100.15)"/><path class="cls-6" d="M352.1,165.73a58.65,58.65,0,0,0-3.2-14.21,46,46,0,0,0-7-12.19A40.51,40.51,0,0,0,329.21,129q-8-4.4-21.23-6.11-27.44-3.57-42.78,9.74t-20.2,51A139.36,139.36,0,0,0,244,212q1,13,4.77,20.93a43.87,43.87,0,0,0,14.65,17.77q9.48,6.65,25.95,8.79,29.4,3.82,43.57-11.29t18.81-51.1A129.48,129.48,0,0,0,352.1,165.73Z" transform="translate(-88.23 -100.15)"/><path class="cls-5" d="M298.43,249.18c-2.4-.09-5-.3-7.61-.65-9.15-1.19-16.23-3.51-21.05-6.89a32.58,32.58,0,0,1-11-13.4l0-.1c-1.92-4-3.18-9.76-3.73-17a129,129,0,0,1,.91-26.11c3.57-27.72,10.94-39.28,16.5-44.1,6.48-5.62,15.22-8.16,26.73-7.77,2.36.08,4.86.29,7.42.63,7.39,1,13.23,2.59,17.37,4.85a29.82,29.82,0,0,1,9.31,7.49,35.18,35.18,0,0,1,5.36,9.27,48.34,48.34,0,0,1,2.56,11.56,118.67,118.67,0,0,1-.29,28.72c-2.77,21.54-8.13,36.67-15.92,45-5.78,6.16-14.45,9-26.52,8.55Z" transform="translate(-88.23 -100.15)"/><path class="cls-6" d="M318,166l.13-3.79-2.32-.76a22.82,22.82,0,0,0-.62-3.8l2-1.45-1.34-3.56-2.44.19a22,22,0,0,0-2-3.27l1.26-2.11L310,144.71l-2.18,1.12a24.18,24.18,0,0,0-3.13-2.26l.36-2.42-3.46-1.57L300,141.44a23.83,23.83,0,0,0-3.75-.88l-.59-2.37-3.79-.13-.75,2.32a24.82,24.82,0,0,0-3.81.62l-1.46-2-3.56,1.33.2,2.44a22.39,22.39,0,0,0-3.27,2l-2.1-1.26-2.78,2.58,1.11,2.19a23.19,23.19,0,0,0-2.25,3.13l-2.41-.36-1.58,3.45,1.86,1.59a23.51,23.51,0,0,0-.88,3.75l-2.38.6-.13,3.79,2.34.76a21.68,21.68,0,0,0,.62,3.8l-2,1.45,1.34,3.56,2.43-.2a23.33,23.33,0,0,0,2,3.28l-1.26,2.1,2.6,2.78,2.18-1.12a23.41,23.41,0,0,0,3.12,2.26l-.36,2.42,3.46,1.57,1.59-1.86a24.37,24.37,0,0,0,3.75.88l.59,2.37,3.8.13.75-2.33a22.65,22.65,0,0,0,3.8-.62l1.46,2,3.55-1.32-.18-2.44a24.5,24.5,0,0,0,3.27-2l2.1,1.26,2.78-2.58-1.12-2.19a22.35,22.35,0,0,0,2.25-3.13l2.42.36,1.58-3.45-1.87-1.59a22.25,22.25,0,0,0,.88-3.75ZM292.41,178.3a15,15,0,1,1,15.53-14.51A15,15,0,0,1,292.41,178.3Z" transform="translate(-88.23 -100.15)"/><path class="cls-7" d="M333.79,235.61l.27-2.56-1.53-.62a15.79,15.79,0,0,0-.23-2.59l1.4-.89-.71-2.47h-1.66a14.86,14.86,0,0,0-1.2-2.31l.95-1.36-1.61-2-1.53.64a14.55,14.55,0,0,0-2-1.67l.37-1.63-2.25-1.23-1.17,1.18a14.84,14.84,0,0,0-2.48-.78l-.28-1.64-2.56-.29-.62,1.54a15.06,15.06,0,0,0-2.6.24l-.89-1.41-2.47.72,0,1.66a15.82,15.82,0,0,0-2.31,1.2l-1.36-1-2,1.6.64,1.54a15.3,15.3,0,0,0-1.67,2l-1.62-.36-1.23,2.25,1.17,1.16a17.13,17.13,0,0,0-.79,2.49l-1.63.27-.28,2.56,1.54.63a14,14,0,0,0,.23,2.59l-1.42.88.73,2.47h1.66a15.22,15.22,0,0,0,1.2,2.3l-1,1.36,1.6,2,1.55-.65a14.55,14.55,0,0,0,2,1.67l-.38,1.63,2.26,1.24,1.17-1.18a15.79,15.79,0,0,0,2.48.77l.28,1.64,2.56.29.62-1.54a15.15,15.15,0,0,0,2.6-.24l.88,1.41,2.46-.72v-1.66a15.82,15.82,0,0,0,2.31-1.2l1.35,1,2-1.6-.65-1.53a16.17,16.17,0,0,0,1.68-2l1.62.36,1.23-2.25-1.17-1.16a16.12,16.12,0,0,0,.77-2.48Zm-12.87-1a4.47,4.47,0,1,1-1.78-6.06A4.48,4.48,0,0,1,320.92,234.62Z" transform="translate(-88.23 -100.15)"/><path class="cls-8" d="M348,192.39l-3-2.06h0a16.39,16.39,0,0,0-1.19-3.11l.76-3-4.32-4.63-3.05.56a16.56,16.56,0,0,0-3-1.41h0l-1.85-3.11-6.33-.22-2.06,3h0a16.59,16.59,0,0,0-3.1,1.2l-3-.76-4.63,4.32.56,3h0a16,16,0,0,0-1.41,3l-3.12,1.85L309,197.4l3,2.06a15.74,15.74,0,0,0,1.19,3.11h0l-.76,3,4.33,4.63,3-.55a17.16,17.16,0,0,0,3,1.41h0l1.85,3.11,6.33.22,2.06-3a16.2,16.2,0,0,0,3.13-1.2h0l3,.76,4.63-4.32-.56-3a16,16,0,0,0,1.41-3h0l3.12-1.85ZM328.23,202a7.12,7.12,0,1,1,7.36-6.88A7.14,7.14,0,0,1,328.23,202Z" transform="translate(-88.23 -100.15)"/><path class="cls-6" d="M369.71,141.87l.52-1.26h0a5.77,5.77,0,0,0,1-.69l1.16.05L373.8,138l-.45-1.08a5.59,5.59,0,0,0,.28-1.21h0l1-.92-.42-2.34-1.25-.52h0a6,6,0,0,0-.68-1l.05-1.16-2-1.36-1.07.44h0a5.55,5.55,0,0,0-1.22-.28l-.93-1-2.34.42-.52,1.26a5.73,5.73,0,0,0-1,.68h0l-1.16,0-1.36,2,.44,1.07a6.11,6.11,0,0,0-.27,1.23h0l-1,.92.42,2.34,1.25.52a6.89,6.89,0,0,0,.69,1.06h0l0,1.15,1.95,1.36,1.07-.44a6.35,6.35,0,0,0,1.22.28h0l.93,1Zm-5.09-6.49a2.68,2.68,0,1,1,3.11,2.16A2.67,2.67,0,0,1,364.62,135.38Z" transform="translate(-88.23 -100.15)"/><path class="cls-6" d="M342.27,135.23l-.76-.64a19.91,19.91,0,0,1,6-5l.46.89A19.3,19.3,0,0,0,342.27,135.23Z" transform="translate(-88.23 -100.15)"/><path class="cls-6" d="M350.26,129.54l-.4-.92a23.83,23.83,0,0,1,11.74-1.87l-.09,1A22.77,22.77,0,0,0,350.26,129.54Z" transform="translate(-88.23 -100.15)"/><path class="cls-6" d="M348.37,136.46l-.83-.56a16.85,16.85,0,0,1,9.87-6.39l.2,1A15.77,15.77,0,0,0,348.37,136.46Z" transform="translate(-88.23 -100.15)"/><path class="cls-8" d="M282,232.7a.51.51,0,0,1-.36-.15l-2.1-2.16a17.56,17.56,0,0,1-3.14-.59l-3.27,1.44a.51.51,0,0,1-.48,0l-5.47-3.63a.5.5,0,0,1-.23-.42l.06-3.57a16.71,16.71,0,0,1-1.77-2.67l-2.8-1.09a.49.49,0,0,1-.31-.37L260.83,213a.52.52,0,0,1,.14-.46l2.17-2.1a17.82,17.82,0,0,1,.58-3.15l-1.44-3.26a.51.51,0,0,1,0-.48l3.63-5.48a.45.45,0,0,1,.42-.22l3.57,0a17.6,17.6,0,0,1,2.67-1.76l1.09-2.81a.51.51,0,0,1,.37-.31l6.44-1.3a.53.53,0,0,1,.46.14l2.09,2.16a18.78,18.78,0,0,1,3.15.58l3.27-1.43a.47.47,0,0,1,.47,0l5.48,3.63a.5.5,0,0,1,.22.42l0,3.57a16.66,16.66,0,0,1,1.76,2.67l2.81,1.09a.51.51,0,0,1,.31.37l1.3,6.43a.49.49,0,0,1-.14.46l-2.16,2.1a17.9,17.9,0,0,1-.59,3.14l1.45,3.27a.54.54,0,0,1,0,.48l-3.63,5.47a.52.52,0,0,1-.43.23l-3.56-.06a16.52,16.52,0,0,1-2.68,1.76l-1.09,2.82a.5.5,0,0,1-.36.3l-6.44,1.31Zm-5.64-3.93.14,0a16.81,16.81,0,0,0,3.31.62.46.46,0,0,1,.32.15l2,2.1,5.9-1.2,1.06-2.73a.51.51,0,0,1,.23-.27,16.13,16.13,0,0,0,2.82-1.85.45.45,0,0,1,.32-.11l3.47.05,3.33-5-1.4-3.18a.5.5,0,0,1,0-.34,16.63,16.63,0,0,0,.62-3.31.48.48,0,0,1,.15-.32l2.1-2-1.2-5.9-2.72-1.06a.46.46,0,0,1-.27-.24,16,16,0,0,0-1.85-2.8.5.5,0,0,1-.12-.33l.06-3.47-5-3.33-3.18,1.4a.45.45,0,0,1-.34,0,17,17,0,0,0-3.32-.61.56.56,0,0,1-.32-.15l-2-2.1-5.9,1.2-1.06,2.73a.5.5,0,0,1-.24.26,16.83,16.83,0,0,0-2.81,1.85.47.47,0,0,1-.33.12l-3.47-.06-3.32,5,1.4,3.18a.54.54,0,0,1,0,.43,18.12,18.12,0,0,0-.59,3.23.46.46,0,0,1-.15.32l-2.09,2,1.19,5.91,2.73,1a.49.49,0,0,1,.27.26,16.27,16.27,0,0,0,1.85,2.79.55.55,0,0,1,.11.33l0,3.47,5,3.33,3.18-1.41A.71.71,0,0,1,276.37,228.77Zm4.92-3.23a13.33,13.33,0,0,1-11.09-20.69h0a13.33,13.33,0,1,1,11.09,20.69ZM271,205.41a12.33,12.33,0,0,0,3.47,17.08A12.33,12.33,0,1,0,271,205.41Z" transform="translate(-88.23 -100.15)"/><path class="cls-6" d="M472.49,254.39l-15.69-2.12,10.38-77.8-30.28-4.09L363.44,238l-3.85,28.93,63.29,8.54-3.16,23.66L450,303.23l3.16-23.67,15.69,2.12Zm-79.42-10.72,38.76-35.32-5.31,39.84Z" transform="translate(-88.23 -100.15)"/><path class="cls-5" d="M440.8,302.48h-.09a.5.5,0,0,1-.4-.59L463.63,174a.52.52,0,0,1,.59-.4.5.5,0,0,1,.4.58L441.29,302.07A.49.49,0,0,1,440.8,302.48Z" transform="translate(-88.23 -100.15)"/><path class="cls-5" d="M461.5,176.11a.82.82,0,0,1-.85.79.82.82,0,1,1,.85-.79Z" transform="translate(-88.23 -100.15)"/><path class="cls-5" d="M458.17,193.41a.82.82,0,0,1-.85.79.82.82,0,1,1,.05-1.63A.82.82,0,0,1,458.17,193.41Z" transform="translate(-88.23 -100.15)"/><path class="cls-5" d="M454.83,210.71a.82.82,0,0,1-.84.8.83.83,0,0,1-.8-.85.82.82,0,0,1,.85-.79A.81.81,0,0,1,454.83,210.71Z" transform="translate(-88.23 -100.15)"/><path class="cls-5" d="M448.28,228.72a.82.82,0,1,1-.79-.84A.81.81,0,0,1,448.28,228.72Z" transform="translate(-88.23 -100.15)"/><path class="cls-5" d="M448.17,245.32a.82.82,0,1,1-1.64-.06.82.82,0,1,1,1.64.06Z" transform="translate(-88.23 -100.15)"/><path class="cls-5" d="M444.84,262.62a.82.82,0,1,1-1.64-.06.81.81,0,0,1,.84-.79A.83.83,0,0,1,444.84,262.62Z" transform="translate(-88.23 -100.15)"/><path class="cls-5" d="M441.5,279.92a.82.82,0,1,1-.79-.85A.82.82,0,0,1,441.5,279.92Z" transform="translate(-88.23 -100.15)"/><path class="cls-5" d="M438.17,297.22a.82.82,0,0,1-.85.79.82.82,0,1,1,.85-.79Z" transform="translate(-88.23 -100.15)"/><path class="cls-5" d="M447.46,229.2a.5.5,0,0,1-.1-1l2.48-.54a.5.5,0,0,1,.59.39.49.49,0,0,1-.38.59l-2.48.54Z" transform="translate(-88.23 -100.15)"/><path class="cls-5" d="M455.75,220a82.82,82.82,0,0,0-3,9.36c-.75,3.54-.8,11.43-.8,11.43" transform="translate(-88.23 -100.15)"/><path class="cls-5" d="M452,241.27h0a.5.5,0,0,1-.5-.5c0-.33.06-8,.81-11.53a82.74,82.74,0,0,1,3-9.44.51.51,0,0,1,.65-.28.5.5,0,0,1,.29.64,85.15,85.15,0,0,0-3,9.29c-.73,3.44-.79,11.24-.79,11.32A.5.5,0,0,1,452,241.27Z" transform="translate(-88.23 -100.15)"/><path class="cls-5" d="M269.12,327.58c1.39-22.4-1.17-63.12,40.94-57.73,45.14,5.78,32.23,58.55,32.23,58.55Z" transform="translate(-88.23 -100.15)"/><circle class="cls-8" cx="209.95" cy="195.59" r="18.38"/><path class="cls-5" d="M300.59,277.4c-8.7-1.49-18,4.93-18.92,11.43l34.5,3.17C315,284.59,307.5,278.58,300.59,277.4Z" transform="translate(-88.23 -100.15)"/><path class="cls-5" d="M312.24,295.29c-.24,4.8-2.86,8.57-5.85,8.42s-5.2-4.17-4.95-9,2.86-8.57,5.85-8.42S312.49,290.48,312.24,295.29Z" transform="translate(-88.23 -100.15)"/><path class="cls-6" d="M298.18,315.12a19.38,19.38,0,1,1,19.38-19.38A19.4,19.4,0,0,1,298.18,315.12Zm0-36.75a17.38,17.38,0,1,0,17.38,17.37A17.4,17.4,0,0,0,298.18,278.37Z" transform="translate(-88.23 -100.15)"/><path class="cls-9" d="M337.15,327H337a.51.51,0,0,1-.36-.61c0-.13,3.21-13.69-.09-27.4a.49.49,0,0,1,.36-.6.51.51,0,0,1,.61.37c3.37,14,.12,27.73.09,27.87A.5.5,0,0,1,337.15,327Z" transform="translate(-88.23 -100.15)"/><path class="cls-9" d="M334.36,291.5a.49.49,0,0,1-.45-.29,35.56,35.56,0,0,0-4.74-7.66.49.49,0,0,1,.07-.7.49.49,0,0,1,.7.07,36.12,36.12,0,0,1,4.88,7.87.52.52,0,0,1-.25.67A.49.49,0,0,1,334.36,291.5Z" transform="translate(-88.23 -100.15)"/><path class="cls-5" d="M175.4,432.66H175a5,5,0,0,1,.27-10h.1c2.89,0,9.84-3.51,24.38-26.43a5,5,0,0,1,7.51-1.09,207.46,207.46,0,0,0,37.14,25.48,5,5,0,0,1-4.53,8.92,213.84,213.84,0,0,1-34.79-23.15C192.92,424.71,183.88,432.66,175.4,432.66Z" transform="translate(-88.23 -100.15)"/><path class="cls-5" d="M206.34,394.24a3.11,3.11,0,0,1-.43,0,3,3,0,0,1-2.55-3.39c.71-5-.17-23.63-6.47-38.13A3,3,0,0,1,198,349c13.7-9.34,42.88-10.45,44.11-10.5a3,3,0,0,1,.21,6c-.27,0-25.78,1-38.89,8.2,5.59,14.44,6.85,32.44,5.92,38.95A3,3,0,0,1,206.34,394.24Z" transform="translate(-88.23 -100.15)"/><path class="cls-6" d="M211.38,390.36c-2-4.71-11-4.17-16.27-.14-2.82,2.16-6.64,8.64-7,11a3.54,3.54,0,0,0,4,4.24c3.45-.3,8.18-5.31,8.18-5.31-3.15,3.09.91,5.27,7,.8C210.61,398.47,213.61,395.63,211.38,390.36Z" transform="translate(-88.23 -100.15)"/><path class="cls-5" d="M383.37,328.9a.36.36,0,0,1-.14,0,.5.5,0,0,1-.34-.61c1.33-4.64,2.79-7.48,4.7-9a5.24,5.24,0,0,1,.15-3.26,6.5,6.5,0,0,1,2.37-3,2.53,2.53,0,0,1-.59-2.38,6.16,6.16,0,0,1,2.13-3.16,2.25,2.25,0,0,1-.56-1.5c0-3,5.5-7.53,11.76-8.38a.49.49,0,0,1,.56.42.5.5,0,0,1-.43.57c-5.94.81-10.91,5.11-10.89,7.38a1.24,1.24,0,0,0,.36.9,12.24,12.24,0,0,1,9.28-1.86c3.07.58,4.32,1.23,4.17,2.16-.27,1.76-6.81,2.12-11.19,1.6a6,6,0,0,1-2.25-.65,5.44,5.44,0,0,0-2,2.73,1.59,1.59,0,0,0,.5,1.64c1.85-1,4.47-1.36,7.91-.6,4.54,1,4.71,1.56,4.81,1.89a.66.66,0,0,1-.16.66c-1,1-7.91.53-11.4-.32a5.45,5.45,0,0,1-1.2-.46,5.52,5.52,0,0,0-2.27,2.71,4.35,4.35,0,0,0-.22,2.31,5.86,5.86,0,0,1,.55-.3c2.07-1,4.57-.82,7.65.5,2,.88,3,1.65,3.11,2.44a1.12,1.12,0,0,1-.57,1c-1.53,1-6.87.86-9.65-.62a3.85,3.85,0,0,1-1.54-1.48c-1.64,1.49-2.95,4.16-4.16,8.35A.49.49,0,0,1,383.37,328.9Zm5.43-9.33a2.93,2.93,0,0,0,1.22,1.22c2.25,1.2,6.69,1.48,8.36.8.34-.13.39-.25.39-.25s0-.56-2.5-1.61c-2.8-1.2-5-1.37-6.83-.52C389.22,319.32,389,319.44,388.8,319.57Zm3.33-6.57.26.08a33,33,0,0,0,9.93.74,21.45,21.45,0,0,0-3.63-1A11.41,11.41,0,0,0,392.13,313Zm1.26-5.62a6.41,6.41,0,0,0,1.44.33c5,.59,9.38-.11,10-.73-.17-.16-.84-.58-3.33-1.06A11.27,11.27,0,0,0,393.39,307.38Z" transform="translate(-88.23 -100.15)"/><path class="cls-5" d="M253.19,431c.66-.21.44-.85-.29-.85H239.36c-25.78-2.73-43.8.93-32.45,1.8s-.8.68-9.08,3.81,61.65,3.93,68,0C271.71,432.13,244.06,433.92,253.19,431Z" transform="translate(-88.23 -100.15)"/><polygon class="cls-6" points="261.9 334.83 144.1 330.93 139.21 216.7 278.32 219.81 261.9 334.83"/><path class="cls-5" d="M269.12,432.8a.5.5,0,0,1-.5-.46l-9.44-114.72a.5.5,0,0,1,1-.09l9.45,114.72a.5.5,0,0,1-.46.54Z" transform="translate(-88.23 -100.15)"/><polygon class="cls-6" points="261.9 334.83 293.56 330.01 303.54 223.8 278.32 219.81 261.9 334.83"/><polygon class="cls-10" points="261.9 334.83 293.56 330.01 303.54 223.8 278.32 219.81 261.9 334.83"/><path class="cls-5" d="M242.4,409.06l-2.9-67.86A12.26,12.26,0,0,1,252,328.41l88.06,2a12.26,12.26,0,0,1,11.87,14l-9.76,68.39a12.28,12.28,0,0,1-12.56,10.53l-75.39-2.5A12.28,12.28,0,0,1,242.4,409.06Z" transform="translate(-88.23 -100.15)"/><path class="cls-8" d="M251.91,349.23l13.63.43-.11,3.52-8.53-.27-.09,2.61,7.92.25-.11,3.36-7.91-.25-.11,3.24,8.78.28-.12,3.72-13.87-.44Z" transform="translate(-88.23 -100.15)"/><path class="cls-8" d="M268.07,366.21l.52-16.45,8.47.27a12.16,12.16,0,0,1,3.59.52,3.87,3.87,0,0,1,2,1.56,4.47,4.47,0,0,1,.68,2.69,4.63,4.63,0,0,1-.66,2.35A4.47,4.47,0,0,1,281,358.7a6.27,6.27,0,0,1-1.81.6,5,5,0,0,1,1.3.65,4.84,4.84,0,0,1,.79.89,6.43,6.43,0,0,1,.68,1l2.31,4.85-5.74-.18L276,361.43a4.1,4.1,0,0,0-.88-1.3,2.22,2.22,0,0,0-1.24-.42h-.44l-.22,6.68Zm5.41-9.62,2.15.07a7.21,7.21,0,0,0,1.35-.18,1.35,1.35,0,0,0,.84-.49,1.69,1.69,0,0,0-.11-2.19,3.13,3.13,0,0,0-1.89-.48l-2.23-.07Z" transform="translate(-88.23 -100.15)"/><path class="cls-8" d="M285.94,366.78l.53-16.45,8.47.27a12.16,12.16,0,0,1,3.59.52,3.82,3.82,0,0,1,2,1.56,4.54,4.54,0,0,1,.68,2.69,4.59,4.59,0,0,1-.66,2.34,4.53,4.53,0,0,1-1.66,1.56,6.09,6.09,0,0,1-1.8.6,5,5,0,0,1,1.3.65,4.87,4.87,0,0,1,.79.89,7.21,7.21,0,0,1,.68,1l2.31,4.85-5.75-.19L293.82,362a3.8,3.8,0,0,0-.88-1.3,2.17,2.17,0,0,0-1.23-.42h-.45l-.21,6.68Zm5.42-9.62,2.14.07a8.16,8.16,0,0,0,1.36-.18,1.35,1.35,0,0,0,.84-.49,1.54,1.54,0,0,0,.35-.95,1.51,1.51,0,0,0-.47-1.24,3.07,3.07,0,0,0-1.88-.48l-2.23-.07Z" transform="translate(-88.23 -100.15)"/><path class="cls-8" d="M303,359.1a7.81,7.81,0,0,1,8.77-8.25,8.62,8.62,0,0,1,6.26,2.41,8.32,8.32,0,0,1,2,6.25,10.09,10.09,0,0,1-1.12,4.7A6.86,6.86,0,0,1,316,367a9.22,9.22,0,0,1-4.61.88,10.54,10.54,0,0,1-4.58-1,7,7,0,0,1-2.87-2.9A9.38,9.38,0,0,1,303,359.1Zm5.09.19a5.45,5.45,0,0,0,.81,3.61,3.52,3.52,0,0,0,5.05.18,6.11,6.11,0,0,0,1-3.8,5.07,5.07,0,0,0-.83-3.42,3.19,3.19,0,0,0-2.5-1.16,3.13,3.13,0,0,0-2.51,1A5.57,5.57,0,0,0,308.07,359.29Z" transform="translate(-88.23 -100.15)"/><path class="cls-8" d="M322.57,368l.53-16.45,8.47.27a12.57,12.57,0,0,1,3.59.51,3.83,3.83,0,0,1,2,1.57,4.52,4.52,0,0,1,.68,2.69,4.59,4.59,0,0,1-.66,2.34,4.53,4.53,0,0,1-1.66,1.56,5.83,5.83,0,0,1-1.8.59,5.32,5.32,0,0,1,1.3.65,5.25,5.25,0,0,1,.79.89,7.18,7.18,0,0,1,.68,1.05l2.31,4.84-5.75-.18-2.56-5.11a3.6,3.6,0,0,0-.88-1.3,2.05,2.05,0,0,0-1.23-.42l-.45,0-.21,6.68Zm5.42-9.62,2.14.06a7.18,7.18,0,0,0,1.36-.18,1.31,1.31,0,0,0,.84-.49,1.51,1.51,0,0,0,.35-.94,1.49,1.49,0,0,0-.47-1.24,3,3,0,0,0-1.88-.49L328.1,355Z" transform="translate(-88.23 -100.15)"/><path class="cls-8" d="M330.67,395.9a1.28,1.28,0,0,1-1-.43l-8.56-9.36-9.24,8.43a1.3,1.3,0,0,1-1.86-.08l-8.56-9.37-9.23,8.44a1.32,1.32,0,0,1-1.86-.08l-8.56-9.37-9.24,8.44a1.26,1.26,0,0,1-.94.34,1.32,1.32,0,0,1-.91-.42l-8.56-9.37-9.24,8.44a1.31,1.31,0,0,1-1.77-1.94l10.21-9.32a1.29,1.29,0,0,1,1.85.08l8.56,9.37,9.24-8.44a1.33,1.33,0,0,1,.94-.35,1.31,1.31,0,0,1,.91.43l8.56,9.37,9.24-8.44a1.32,1.32,0,0,1,1.86.08l8.56,9.37,9.23-8.44a1.31,1.31,0,0,1,1.86.09l9.44,10.33a1.31,1.31,0,0,1-.08,1.86A1.3,1.3,0,0,1,330.67,395.9Z" transform="translate(-88.23 -100.15)"/><polygon class="cls-6" points="84.18 337.26 77.93 334.27 72.34 307.11 75.37 303.77 84.18 337.26"/><polygon class="cls-6" points="84.18 337.26 92.49 332.41 85.37 310.02 75.37 303.77 84.18 337.26"/><polygon class="cls-10" points="84.18 337.26 92.49 332.41 85.37 310.02 75.37 303.77 84.18 337.26"/><path class="cls-5" d="M308.62,442.35h-.7a5,5,0,0,1,.28-10c7.7.25,24-4.48,33.32-13.52a5,5,0,0,1,2-1.2c15.79-4.74,21.67,4.83,21.91,5.25L356.86,428l.12.19c-.1-.13-2.33-3-9.45-1.24C335.84,437.57,317.9,442.35,308.62,442.35Z" transform="translate(-88.23 -100.15)"/><polygon class="cls-6" points="219.83 348.84 201.62 347.7 200.18 314.12 224.66 315.04 219.83 348.84"/><polygon class="cls-6" points="219.83 348.84 224.09 344.61 226.72 323.67 224.66 315.04 219.83 348.84"/><polygon class="cls-10" points="219.83 348.84 224.09 344.61 226.72 323.67 224.66 315.04 219.83 348.84"/><path class="cls-5" d="M413.58,436.28a3,3,0,0,1-1.82-.61c-10.39-7.9-24.44-21.93-29.83-35.46a2.64,2.64,0,0,1-.17-.61c-2.63-15.63-5.15-48.54-5.25-49.94a3,3,0,0,1,6-.45c0,.34,2.56,33.57,5.13,49.07,5.38,13.16,20,26.67,27.77,32.61a3,3,0,0,1-1.81,5.39Z" transform="translate(-88.23 -100.15)"/><path class="cls-5" d="M427.44,437.8c-2.31,0-4.94-1.06-7.81-3.13a3,3,0,1,1,3.52-4.86c2.47,1.79,3.83,2,4.29,2a3,3,0,0,1,0,6Z" transform="translate(-88.23 -100.15)"/><path class="cls-6" d="M420.47,434.59c3.21-9.54,16.37-7.66,20.9-6.24a48.44,48.44,0,0,1,11.07,4.8c2.46,1.61,2.5,4.29-.78,5.82-4,1.89-14.16.21-14.16.21,5.24,2.3,0,6-9.2,2.36C425.3,440.37,419.34,438.08,420.47,434.59Z" transform="translate(-88.23 -100.15)"/><path class="cls-5" d="M388.53,353.78c-1.19,8.1-7.9,14.08-13.36,13.27s-5.68-8-4.49-16.14,3.35-14,8.8-13.2S389.72,345.68,388.53,353.78Z" transform="translate(-88.23 -100.15)"/><circle class="cls-5" cx="168.31" cy="220.47" r="0.82"/><path class="cls-5" d="M264.87,326.52a.82.82,0,1,1-.81-.82A.82.82,0,0,1,264.87,326.52Z" transform="translate(-88.23 -100.15)"/><path class="cls-5" d="M265.79,423.43a.82.82,0,1,1-.82-.82A.82.82,0,0,1,265.79,423.43Z" transform="translate(-88.23 -100.15)"/><path class="cls-5" d="M273.31,429.33a.82.82,0,1,1-.82-.82A.82.82,0,0,1,273.31,429.33Z" transform="translate(-88.23 -100.15)"/><path class="cls-5" d="M129.18,439.16a9.66,9.66,0,0,1-7.34-4,.5.5,0,0,1,.13-.69.51.51,0,0,1,.7.12c1.86,2.7,6,4.14,7.8,3.28a1.52,1.52,0,0,0,.47-.33,6.08,6.08,0,0,1-3.53-4.49c-.22-1.26-.4-3,.64-3.21,1.44-.32,3.31,3.14,4,5.77a3.4,3.4,0,0,1,.13,1.35,4.69,4.69,0,0,0,1.79.14,2,2,0,0,0,1.38-.75,5.82,5.82,0,0,1-2.31-4.19c-.39-2.73-.1-3.21.21-3.44a.66.66,0,0,1,.68-.08c1.07.45,2.37,4.33,2.62,6.53a4,4,0,0,1,0,.69,3.69,3.69,0,0,0,1.35.26,4.31,4.31,0,0,0,2.41-.63,2.27,2.27,0,0,1-.4-.29c-1-.89-1.46-2.3-1.28-4.33.13-1.57.49-2.42,1.12-2.69a1.15,1.15,0,0,1,1.21.23,6.93,6.93,0,0,1,1.72,5.56,2.81,2.81,0,0,1-.5,1.15c1.83.32,4.42-.2,6.64-.75a.51.51,0,0,1,.61.37.49.49,0,0,1-.37.6c-2.71.67-5.62,1.22-7.68.62a5.69,5.69,0,0,1-3.5,1.16,4.83,4.83,0,0,1-1.64-.3,2.85,2.85,0,0,1-2.13,1.27,5.47,5.47,0,0,1-2.23-.19,2.33,2.33,0,0,1-1,.88A4.08,4.08,0,0,1,129.18,439.16Zm-.87-8.28a4.43,4.43,0,0,0,.09,2.05,5.09,5.09,0,0,0,2.84,3.71,3.29,3.29,0,0,0-.12-.71C130.33,433.07,128.84,431.1,128.31,430.88Zm5.57-.87a14.71,14.71,0,0,0,.18,2.06,5.1,5.1,0,0,0,1.52,3.22A15.78,15.78,0,0,0,133.88,430Zm6.29-.87h0s-.37.19-.52,1.86.16,2.83.94,3.49a2.27,2.27,0,0,0,.6.38,2.19,2.19,0,0,0,.54-1,6.22,6.22,0,0,0-1.2-4.43C140.33,429.19,140.2,429.14,140.17,429.14Z" transform="translate(-88.23 -100.15)"/><polygon class="cls-5" points="187.31 346.57 190.02 341.87 187.31 337.17 184.41 337.17 186.04 341.87 184.41 346.57 187.31 346.57"/><path class="cls-5" d="M272.83,444.47a2.45,2.45,0,1,1,0-4.89l-4.61-.92L267,442.38l2.06,3.14Z" transform="translate(-88.23 -100.15)"/><path class="cls-6" d="M273.22,437.32h-5.43l-2.71,4.7,2.71,4.7h5.43l2.71-4.7Zm-2.71,7.15A2.45,2.45,0,1,1,273,442,2.45,2.45,0,0,1,270.51,444.47Z" transform="translate(-88.23 -100.15)"/><polygon class="cls-6" points="376.32 336.86 374.31 333.37 376.32 329.88 378.48 329.88 377.26 333.37 378.48 336.86 376.32 336.86"/><path class="cls-6" d="M466.57,435.34a1.82,1.82,0,1,0,0-3.63L470,431l.91,2.76-1.53,2.34Z" transform="translate(-88.23 -100.15)"/><path class="cls-5" d="M466.28,430h4l2,3.49-2,3.49h-4l-2-3.49Zm2,5.31a1.82,1.82,0,1,0-1.81-1.82A1.83,1.83,0,0,0,468.29,435.34Z" transform="translate(-88.23 -100.15)"/><path class="cls-5" d="M389.61,441.64h4.52a2.14,2.14,0,0,0,2.14-2.14h0a2.15,2.15,0,0,0-2.14-2.14h-4.52a2.15,2.15,0,0,0-2.13,2.14h0A2.14,2.14,0,0,0,389.61,441.64Z" transform="translate(-88.23 -100.15)"/><path class="cls-6" d="M382.4,437.61a4.45,4.45,0,1,1,2,6.18A4.59,4.59,0,0,1,382.4,437.61Z" transform="translate(-88.23 -100.15)"/><rect class="cls-5" x="385.73" y="434.45" width="1.37" height="10.1" transform="translate(460.28 901.67) rotate(-154.76)"/></g></svg>