<?xml version="1.0" standalone="no"?><!DOCTYPE svg PUBLIC "-//W3C//DTD SVG 1.1//EN" "http://www.w3.org/Graphics/SVG/1.1/DTD/svg11.dtd"><svg t="1648720331487" class="icon" viewBox="0 0 1024 1024" version="1.1" xmlns="http://www.w3.org/2000/svg" p-id="2028" xmlns:xlink="http://www.w3.org/1999/xlink" width="64" height="64"><defs><style type="text/css"></style></defs><path d="M512 512m-512 0a512 512 0 1 0 1024 0 512 512 0 1 0-1024 0Z" fill="#EFF3F6" p-id="2029"></path><path d="M307.2 286.72h122.68544a51.2 51.2 0 0 1 45.312 27.35104L563.2 481.28H256V337.92a51.2 51.2 0 0 1 51.2-51.2z" fill="#CBD2D9" p-id="2030"></path><path d="M256 368.64m51.2 0l409.6 0q51.2 0 51.2 51.2l0 266.24q0 51.2-51.2 51.2l-409.6 0q-51.2 0-51.2-51.2l0-266.24q0-51.2 51.2-51.2Z" fill="#DAE1E7" p-id="2031"></path><path d="M604.02688 538.89024v-39.34208c0-10.0352-8.56064-18.19648-19.17952-18.26816H439.15264C428.48256 481.28 419.84 489.46176 419.84 499.54816v39.34208c6.7584 0.45056 11.9808 5.77536 11.9808 12.1856 0 6.4-5.2224 11.7248-11.9808 12.17536v43.12064c0 10.0864 8.64256 18.26816 19.31264 18.26816h145.69472C595.51744 624.64 604.16 616.45824 604.16 606.37184v-44.21632c-6.83008 1.88416-13.9776-1.82272-15.96416-8.28416-1.98656-6.4512 1.92512-13.2096 8.7552-15.09376 2.3552-0.65536 4.85376-0.65536 7.20896 0l-0.13312 0.11264zM471.04 542.72a10.24 10.24 0 1 1 10.24-10.24 10.24 10.24 0 0 1-10.24 10.24z m84.35712 51.2h-67.21536s-11.8784 0-4.46464-9.09312l34.75456-39.6288c1.59744-2.59072 4.77184-3.25632 7.10656-1.4848a5.4272 5.4272 0 0 1 1.3312 1.47456c3.65568 5.84704 6.94272 11.9808 9.8304 18.3296h10.35264l14.31552 20.02944s6.76864 9.79968-6.01088 10.37312z" fill="#CBD2D9" p-id="2032"></path><path d="M307.2 798.72a204.8 20.48 0 1 0 409.6 0 204.8 20.48 0 1 0-409.6 0Z" fill="#CBD2D9" opacity=".3" p-id="2033"></path></svg>