<?xml version="1.0" standalone="no"?><!DOCTYPE svg PUBLIC "-//W3C//DTD SVG 1.1//EN" "http://www.w3.org/Graphics/SVG/1.1/DTD/svg11.dtd"><svg t="1648720345426" class="icon" viewBox="0 0 1024 1024" version="1.1" xmlns="http://www.w3.org/2000/svg" p-id="2326" xmlns:xlink="http://www.w3.org/1999/xlink" width="64" height="64"><defs><style type="text/css"></style></defs><path d="M512 512m-512 0a512 512 0 1 0 1024 0 512 512 0 1 0-1024 0Z" fill="#EFF3F6" p-id="2327"></path><path d="M307.2 286.72h122.68544a51.2 51.2 0 0 1 45.312 27.35104L563.2 481.28H256V337.92a51.2 51.2 0 0 1 51.2-51.2z" fill="#CBD2D9" p-id="2328"></path><path d="M256 368.64m51.2 0l409.6 0q51.2 0 51.2 51.2l0 266.24q0 51.2-51.2 51.2l-409.6 0q-51.2 0-51.2-51.2l0-266.24q0-51.2 51.2-51.2Z" fill="#DAE1E7" p-id="2329"></path><path d="M512 460.8c30.54592 0.4096 55.83872 5.72416 70.92224 21.23776C598.43584 497.12128 603.7504 522.41408 604.16 552.96c-0.4096 30.54592-5.72416 55.83872-21.23776 70.92224C567.83872 639.39584 542.54592 644.7104 512 645.12c-30.54592-0.4096-55.83872-5.72416-70.92224-21.23776C425.56416 608.79872 420.2496 583.50592 419.84 552.96c0.4096-30.54592 5.72416-55.83872 21.23776-70.92224C456.16128 466.52416 481.45408 461.2096 512 460.8z m-34.56 66.53952v51.24096c0 6.8096 7.91552 11.1104 14.34624 7.80288l49.8176-25.62048a8.6016 8.6016 0 0 0 0-15.60576l-49.8176-25.62048c-6.43072-3.30752-14.34624 0.99328-14.34624 7.80288z" fill="#CBD2D9" p-id="2330"></path><path d="M307.2 798.72a204.8 20.48 0 1 0 409.6 0 204.8 20.48 0 1 0-409.6 0Z" fill="#CBD2D9" opacity=".3" p-id="2331"></path></svg>