<?xml version="1.0" encoding="UTF-8"?>
<svg width="40px" height="38px" viewBox="0 0 40 38" version="1.1" xmlns="http://www.w3.org/2000/svg" xmlns:xlink="http://www.w3.org/1999/xlink">
    <title>制造</title>
    <g id="页面-1" stroke="none" stroke-width="1" fill="none" fill-rule="evenodd">
        <g id="首页" transform="translate(-253.000000, -821.000000)" fill="#3D464F" fill-rule="nonzero">
            <g id="编组-4" transform="translate(253.000000, 821.000000)">
                <g id="制造">
                    <path d="M37.8104643,21.7478374 L37.8104643,21.7478374 C37.6271495,21.5693441 37.3342497,21.5718965 37.1540729,21.7535574 L33.3556353,25.5326333 L33.3556353,25.5326333 C33.1821428,25.7211447 32.8890758,25.7344251 32.6992439,25.5623774 L32.699244,25.5623774 C32.5107446,25.3925819 32.4955822,25.1021257 32.6653777,24.9136258 C32.6760698,24.9017559 32.6873739,24.8904518 32.6992439,24.8797596 L36.5011104,21.0981314 L36.5011104,21.0981314 C36.6825629,20.9204777 36.6856429,20.6293633 36.5079891,20.4479103 C36.4917181,20.4312914 36.4742096,20.415931 36.4556144,20.4019612 L36.4556146,20.4019613 C35.082422,19.3768117 33.3803118,18.8921752 31.6730582,19.0402457 C27.8232299,19.3793099 24.9793356,22.7568406 25.3194336,26.5838052 L25.3194336,26.5838042 C25.3470227,26.8927185 25.3952662,27.1994397 25.4638409,27.5019057 L25.463841,27.5019058 C25.4998384,27.6589915 25.4525741,27.8235526 25.3387046,27.9375922 L21.3388379,31.9203875 C20.8162943,32.439326 20.5131322,33.1451744 20.5131322,33.8816468 C20.5131322,34.617943 20.7920045,35.3239676 21.3200047,35.8429061 L21.3200047,35.8450181 L22.314582,36.8256048 C23.4083356,37.9103822 25.1766091,37.9103822 26.2701866,36.8256048 L30.2736627,32.8440384 C30.3896467,32.7301664 30.559135,32.6847583 30.7184156,32.7233902 C34.4849962,33.5710959 38.2317681,31.2218455 39.0838824,27.4756966 L39.0838825,27.4756961 C39.1526605,27.1736078 39.2010232,26.8672321 39.2286426,26.5586474 L39.2243306,26.5565354 L39.2243307,26.5565343 C39.3734827,24.8329741 38.8687519,23.1163834 37.8104338,21.7478529 L37.8104643,21.7478374 Z M32.9360407,30.5405429 L32.9360407,30.5371109 C32.40804,30.6163991 31.7928299,30.5929029 31.2363195,30.4676789 L31.2363197,30.467679 C30.2975459,30.249287 29.312469,30.5295979 28.6293167,31.2095181 L24.6296261,35.1910845 L24.6296261,35.1910845 C24.5413944,35.2786914 24.4213859,35.3267391 24.2970738,35.3243221 L24.2970738,35.3243221 C24.1735071,35.3255315 24.0545884,35.277184 23.9669853,35.1900283 L22.9815603,34.2093557 L22.9815603,34.2093556 C22.893766,34.1229716 22.8441921,34.0049861 22.8441921,33.8818191 C22.8441921,33.7584428 22.893736,33.6405226 22.9814722,33.5541068 L26.9859152,29.5725404 C27.6673875,28.8967873 27.9495163,27.9184909 27.7309254,26.9867468 C27.1621818,24.4884248 28.7378219,22.0062762 31.2496104,21.4407208 L31.2496102,21.4407208 C31.8005605,21.3163906 32.3695233,21.2932811 32.9287407,21.3725208 L31.048353,23.2439323 L31.0483529,23.2439324 C30.5260285,23.7660377 30.2338449,24.4751217 30.2367281,25.2136394 L30.236728,25.2136088 C30.2396576,25.9521436 30.5375912,26.6588859 31.0642598,27.1766341 L31.06426,27.1766343 C31.5872032,27.6918947 32.2913759,27.9815044 33.0255193,27.9832446 C33.7718487,27.9832446 34.4714495,27.6931081 34.9980408,27.1688054 L36.8787808,25.3031173 C37.2395813,27.8306581 35.4880269,30.1729433 32.9360239,30.5405414 L32.9360407,30.5405429 Z M18.393594,35.2800445 L3.66358862,35.2800445 L3.66358863,35.2800445 C3.52319753,35.279591 3.39026538,35.2167842 3.30076438,35.1086205 L3.30076436,35.1086205 C3.21094195,35.0006893 3.17347359,34.8585481 3.19842042,34.7203639 C3.8652833,31.0278787 5.77136638,27.7078987 8.6020478,25.2446693 C11.6206275,22.6126756 15.4906769,21.1120074 19.4959277,21.2000075 L19.5743358,21.2000075 C25.2897878,21.1120074 29.8926057,16.4825919 29.8834533,10.7991946 L29.8857413,10.8173227 C29.8857413,10.8082586 29.8854773,10.8160907 29.8854773,10.8160907 L33.9039152,10.8160907 C34.5580206,10.8160907 35.086988,10.3305948 35.086988,9.76061794 C35.086988,9.18958407 34.5580206,8.7040882 33.9039152,8.7040882 L29.6758626,8.7040882 C28.709533,3.95208267 24.5192199,0.43207857 19.4912687,0.43207857 L19.4855487,0.43207857 C14.2575348,0.43207857 9.93629151,4.25762091 9.20079456,9.2512529 C9.11710638,9.39337306 9.06958633,9.54438132 9.06958633,9.71483898 C9.06958633,9.81542293 9.08639434,9.90764729 9.11719447,9.99978314 L9.11719452,9.99978243 C9.09873422,10.2538574 9.08966402,10.5085287 9.09000244,10.7632693 C9.08877044,14.3583355 10.9519093,17.6956406 14.0124652,19.581928 C7.07076963,21.6739542 1.81486898,27.6368592 0.772832609,34.9538872 C0.677792498,35.6310498 0.881512736,36.3242267 1.33084263,36.8396418 C1.78034784,37.3550611 2.43137243,37.6560189 3.11522088,37.6560189 L18.3935512,37.6560189 C18.7075354,37.6560189 19.0090234,37.5251626 19.2318381,37.3039304 C19.4544783,37.0826982 19.5801423,36.7776915 19.5811104,36.4637056 L19.5811104,36.463731 C19.5806246,36.1491036 19.4551113,35.847567 19.2322081,35.6255215 L19.2322081,35.6255215 C19.0092851,35.4040826 18.7077782,35.279874 18.3935688,35.280033 L18.393594,35.2800445 Z M19.4845332,2.78600673 C23.1983137,2.79551074 26.3193224,5.27200963 27.2419055,8.70401362 L11.7304695,8.70401362 C12.652885,5.27200963 15.7725789,2.79657706 19.4844902,2.78600673 L19.4845332,2.78600673 Z M11.4529078,10.7997309 C11.4529078,10.7925149 11.453198,10.8160109 11.453198,10.8160109 L27.5191894,10.8160109 C27.5191894,10.8160109 27.5194545,10.7925149 27.5194545,10.7997309 C27.5217414,15.2136579 23.9280824,18.7783496 19.4878542,18.7896074 L19.4844222,18.8001674 C15.0442842,18.7889034 11.4506316,15.2149539 11.4529078,10.7997206 L11.4529078,10.7997309 Z" id="形状"></path>
                </g>
            </g>
        </g>
    </g>
</svg>