<?xml version="1.0" encoding="UTF-8"?>
<svg width="145px" height="50px" viewBox="0 0 145 50" version="1.1" xmlns="http://www.w3.org/2000/svg" xmlns:xlink="http://www.w3.org/1999/xlink">
    <title>编组 2</title>
    <g id="页面-1" stroke="none" stroke-width="1" fill="none" fill-rule="evenodd">
        <g id="首页" transform="translate(-242.000000, -184.000000)" fill="#FFFFFF">
            <g id="编组-2" transform="translate(242.000000, 184.000000)">
                <g id="编组">
                    <path d="M41.066,49.999 L41,50 L41,50 C41.0223569,50 41.0446947,49.9999185 41.0670132,49.9997557 L8.92666667,49.9983333 L8.63802468,49.9928537 C4.67065265,49.8359253 1.36346397,47.1108049 0.333007513,43.4340413 L0.265,43.178 L0.273872212,43.1672113 C7.48708458,33.4858864 7.54602257,24 12.32,24 C17.1536521,24 17.9792754,38.9884203 25.1920514,38.9884203 C32.4048274,38.9884203 32.4648166,24 37.68,24 C42.8288966,24 42.8943409,33.9910938 49.7325041,43.1760187 C48.7692319,47.0662996 45.2724334,49.9570271 41.0934191,49.9995252 L41.066,49.999 Z M41,0 C45.9705627,0 50,4.02943725 50,9 L50,41 L49.9961629,41.2653623 L49.9961629,41.2653623 L50,41 L50,37.0333333 L49.7894228,36.5974764 C46.0339879,28.75973 44.1266765,18.5 37.68,18.5 C31.5774115,18.5 28.7862312,33.9884203 25.1920514,33.9884203 C21.5978717,33.9884203 18.5293082,18.5 12.32,18.5 C6.34066622,18.5 4.21363635,28.1097342 0.442714461,36.1144717 L0.442714461,36.1144717 L-1.91623098e-13,37.0303344 L-1.66754102e-13,9 C-1.66754102e-13,4.02943725 4.02943725,0 9,0 L41,0 Z M39.5,6 C37.0147186,6 35,8.01471863 35,10.5 C35,12.9852814 37.0147186,15 39.5,15 C41.9852814,15 44,12.9852814 44,10.5 C44,8.01471863 41.9852814,6 39.5,6 Z" id="形状结合"></path>
                </g>
                <path d="M65.7555531,38 L65.7555531,18.5288462 L65.9289131,18.5288462 L70.401602,38 L77.4400193,38 L81.8433641,18.4945055 L82.0860682,18.4945055 L82.0860682,38 L87.7722772,38 L87.7722772,13 L77.2666593,13 L73.9381466,30.342033 L70.2629139,13 L60,13 L60,38 L65.7555531,38 Z M109.653465,38 L109.653465,33.7867868 L108.651397,33.7867868 C108.098531,33.7867868 107.787544,33.3723724 107.787544,32.957958 L107.787544,22.3558559 C107.787544,21.4234234 107.442003,20.6291291 106.923692,20.042042 C106.267164,19.2822823 105.334204,18.8333333 104.539459,18.8333333 L93.8967984,18.8333333 C92.998392,18.8333333 92.2382019,19.2132132 91.6853364,19.7657658 C91.0979168,20.3873874 90.7523759,21.2162162 90.7523759,22.0105105 L90.7523759,24.6006006 L96.1773686,24.6006006 L96.1773686,23.8063063 C96.1773686,23.3228228 96.4883555,23.0810811 96.8338964,23.0810811 L101.67147,23.0810811 C102.224335,23.0810811 102.43166,23.4954955 102.43166,23.978979 L102.43166,25.6366366 L94.1732312,25.6366366 C93.3439329,25.6366366 92.4800806,25.981982 91.8581069,26.5345345 C91.167025,27.0870871 90.7178218,27.8468468 90.7178218,28.6411411 L90.7178218,34.6846847 C90.7178218,35.478979 91.0979168,36.3078078 91.6853364,36.9294294 C92.272756,37.5510511 93.0329461,37.9654655 93.8276903,37.9654655 L99.3563453,37.9654655 C100.151089,37.9654655 100.842171,37.7237237 101.360483,37.2747748 C101.878794,36.8258258 102.258889,36.2042042 102.466214,35.4444444 C102.535322,36.2042042 102.915417,36.8258258 103.399174,37.2402402 C103.95204,37.7237237 104.608568,38 105.161433,38 L109.653465,38 Z M102.5,33.8333333 L96.7491749,33.8333333 C96.3283828,33.8333333 96.1881188,33.6376812 96.1881188,33.3768116 L96.1881188,30.5724638 C96.1881188,30.2789855 96.3283828,30.0833333 96.6790429,30.0833333 L102.5,30.0833333 L102.5,33.8333333 Z M117.262789,38 L117.262789,25.9256919 C117.262789,25.3029483 117.718647,24.6802046 118.314769,24.1958484 C118.910891,23.7114922 119.682343,23.3655235 120.278465,23.3655235 L124.80198,23.3655235 L124.80198,18.8333333 L120.664191,18.8333333 C119.752475,18.8333333 119.086221,19.0063177 118.560231,19.3176895 C118.034241,19.6290614 117.613449,20.0442238 117.262789,20.52858 L117.262789,18.8333333 L111.757426,18.8333333 L111.757426,38 L117.262789,38 Z M141.444431,38 C142.629621,38 143.535942,37.5502407 144.163396,36.8583032 C144.686273,36.2355596 145,35.4052347 145,34.5403129 L145,29.2123947 C145,28.4512635 144.75599,27.6901324 144.30283,27.1365824 C143.849669,26.5484356 143.152499,26.1332732 142.315894,26.1332732 L133.914992,26.1332732 C133.670982,26.1332732 133.287539,25.8910951 133.287539,25.4413357 L133.287539,23.8152828 C133.287539,23.3655235 133.636124,23.1233454 133.984709,23.1233454 L138.376882,23.1233454 C138.690609,23.1233454 139.039194,23.503911 139.039194,23.8152828 L139.039194,24.6802046 L144.546839,24.6802046 L144.546839,21.7740674 C144.546839,21.1167268 144.337688,20.4939832 143.919386,19.9750301 C143.396508,19.3176895 142.594762,18.8333333 141.618724,18.8333333 L130.638292,18.8333333 C130.045697,18.8333333 129.313668,19.1101083 128.755932,19.5598676 C128.198196,20.0442238 127.779893,20.6669675 127.779893,21.4626955 L127.779893,27.3441637 C127.779893,28.1398917 128.09362,28.866426 128.546781,29.3853791 C129.104517,30.0081227 129.906263,30.3886883 130.742867,30.3886883 L138.89976,30.3886883 C139.283203,30.3886883 139.562072,30.8038508 139.562072,31.1498195 L139.562072,33.0526474 C139.562072,33.3640193 139.248345,33.709988 138.89976,33.709988 L133.531548,33.709988 C133.148105,33.709988 132.904095,33.3986161 132.904095,32.9834537 L132.904095,31.80716 L127.326733,31.80716 L127.326733,34.2981348 C127.326733,35.4052347 127.779893,36.4431408 128.546781,37.1696751 C129.069658,37.6886282 129.801687,38 130.568575,38 L141.444431,38 Z" id="Mars" fill-rule="nonzero"></path>
            </g>
        </g>
    </g>
</svg>