<?xml version="1.0" encoding="UTF-8"?>
<svg width="41px" height="37px" viewBox="0 0 41 37" version="1.1" xmlns="http://www.w3.org/2000/svg" xmlns:xlink="http://www.w3.org/1999/xlink">
    <title>系统推送</title>
    <g id="页面-1" stroke="none" stroke-width="1" fill="none" fill-rule="evenodd">
        <g id="首页" transform="translate(-847.000000, -822.000000)" fill="#3D464F" fill-rule="nonzero">
            <g id="编组-4" transform="translate(253.000000, 821.000000)">
                <g id="系统推送" transform="translate(594.000000, 1.000000)">
                    <path d="M0.804002099,16.9000243 L3.22400492,16.9000243 C3.86934043,16.9000243 4.39000627,16.8413577 4.78600673,16.7240241 C5.18200719,16.6066905 5.57067288,16.3866902 5.95200809,16.0640233 L6.65600891,15.3600225 C6.94934273,15.0666887 7.25734437,14.7293566 7.58000998,14.3480214 C7.90267688,13.9666874 8.23267598,13.5780205 8.57001114,13.18202 C8.90734501,12.7860195 9.22267713,12.4120191 9.51601224,12.0600187 C10.1026782,11.3266831 10.6306788,11.0406827 11.1000141,11.2020177 C11.5693494,11.3633514 11.9213498,11.7080183 12.1560153,12.2360189 L14.0920176,17.5600251 C15.0893535,14.7733566 15.9693545,12.2506713 16.7320206,9.99201628 C17.0546875,9.02401516 17.3773562,8.07801405 17.7000218,7.15401298 C18.0226887,6.2300119 18.3160225,5.37934568 18.5800228,4.60201001 C18.8440231,3.82467434 19.0640233,3.17934312 19.2400236,2.66600776 C19.4160238,2.15267239 19.5186904,1.82267201 19.5480239,1.6760066 C19.6946906,1.17734079 19.9146909,0.774005555 20.2080247,0.466005197 C20.5013585,0.158004838 20.8240254,0.0040046592 21.1760258,0.0040046592 C21.5573597,0.0040046592 21.9533615,0.114004787 22.3640272,0.334005043 C22.7746942,0.554005299 23.0386932,1.00134059 23.1560281,1.6760066 C23.1853615,1.85200681 23.2440282,2.32134212 23.3320283,3.08400824 C23.4200284,3.84667437 23.537362,4.80001024 23.6840287,5.94401157 C23.8306954,7.0880129 23.9846956,8.35667961 24.1460293,9.750016 C24.3073629,11.1433524 24.4760296,12.5586845 24.6520298,13.9960209 C25.0333638,17.3693596 25.4733656,21.1386816 25.9720314,25.3040341 C26.6173669,23.1920316 27.2040328,21.2706946 27.7320334,19.5400274 C27.9373671,18.8066918 28.1500339,18.0806909 28.3700342,17.3620249 C28.5900344,16.6433588 28.7953681,15.983358 28.9860349,15.3820226 C29.1767016,14.7806871 29.3307018,14.2746865 29.4480354,13.8640208 C29.565369,13.4533538 29.6533691,13.1893548 29.7120357,13.0720199 C29.8587024,12.6026846 30.0347026,12.2506841 30.2400364,12.0160186 C30.4453701,11.7813518 30.7240369,11.6200182 31.0760373,11.5320181 C31.7507033,11.3560179 32.2567039,11.4513515 32.5940391,11.8180184 C32.931373,12.1846854 33.1000397,12.5586845 33.1000397,12.9400197 C33.1000397,13.2626866 33.0707063,13.5413552 33.0120396,13.7760207 C32.9827062,13.8933543 32.9680395,13.9960209 32.9680395,14.084021 L34.5520414,18.3960261 C34.5813748,18.3666927 34.6253749,18.308026 34.6840415,18.2200259 C34.7720416,18.0733592 34.9187083,17.7653601 35.124042,17.2960248 C35.3587088,16.797359 35.7473775,16.4673586 36.2900434,16.3060236 C36.8327093,16.14469 37.3533794,16.0786899 37.8520452,16.1080234 C38.1747121,16.1373568 38.4973807,16.1520234 38.8200463,16.1520234 L39.7880475,16.1520234 L40.8440487,16.1520234 L40.8440487,19.4960273 C40.6680485,19.5253607 40.4920483,19.5400274 40.3160481,19.5400274 L39.1720467,19.5400274 C38.7613797,19.510694 38.3800458,19.620694 38.0280454,19.8700278 C37.676045,20.1193615 37.4267099,20.3613631 37.2800445,20.5960286 C37.1627109,20.8306954 36.9573776,21.2853642 36.6640438,21.9600302 C36.37071,22.6346962 36.1067084,23.3240318 35.8720429,24.0280326 C35.7547093,24.380033 35.5640425,24.6146985 35.3000422,24.7320334 C35.0360419,24.849367 34.7647069,24.9007002 34.4860413,24.8860336 C34.2073744,24.8713669 33.9433754,24.7907 33.6940404,24.6440333 C33.4447066,24.4973666 33.2760399,24.3213664 33.1880398,24.1160327 C33.1000397,23.910699 32.953373,23.5513668 32.7480393,23.0380315 C32.5427056,22.5246961 32.3373723,22.0040303 32.1320386,21.4760296 C31.8680382,20.8600289 31.6040379,20.2000282 31.3400376,19.4960273 C30.5773715,21.9306954 29.8880359,24.1746851 29.2720352,26.2280352 C29.0080349,27.1080362 28.7440346,27.973372 28.4800343,28.8240382 C28.216034,29.6747044 27.9740337,30.4593749 27.7540335,31.1780409 C27.5340332,31.896707 27.3506995,32.5053772 27.2040328,33.0040431 C27.0573661,33.5027089 26.969366,33.840044 26.9400325,34.0160442 C26.7933658,34.7200451 26.5146985,35.2773805 26.1040315,35.6880462 C25.6933645,36.0987132 25.1946957,36.2893816 24.6080298,36.2600468 C23.9920291,36.2013803 23.5520286,35.9373799 23.2880283,35.4680459 C23.024028,34.9987106 22.8626943,34.4560447 22.8040277,33.840044 C22.8040277,33.6933773 22.767361,33.2387086 22.6940276,32.4760424 C22.620694,31.7133763 22.5253609,30.7453752 22.4080272,29.5720391 C22.2906936,28.3987029 22.166027,27.0933709 22.0340268,25.6560345 C21.9020266,24.2186981 21.762693,22.7520311 21.6160263,21.2560294 C21.2933594,17.7653601 20.9120255,13.8640208 20.472025,9.55201577 C19.6506893,11.9573533 18.9173579,14.1133687 18.2720224,16.0200233 C18.0080221,16.841359 17.736687,17.6480252 17.4580215,18.4400261 C17.1793546,19.232027 16.9300209,19.9506931 16.7100206,20.5960286 C16.4900204,21.2413641 16.3066867,21.78403 16.16002,22.2240305 L15.8960197,23.0160314 C15.749353,23.3973654 15.5513527,23.7493671 15.302019,24.0720327 C15.0526852,24.3946996 14.6640182,24.541368 14.1360176,24.5120332 C13.608017,24.5120332 13.2120165,24.3286995 12.9480162,23.9620325 C12.6840159,23.5953656 12.4786809,23.1773664 12.3320155,22.7080311 C12.2440154,22.4733643 12.0826817,22.0186955 11.848015,21.3440295 C11.6133482,20.6693635 11.3640144,19.9800279 11.1000141,19.2760271 C10.7773472,18.4546914 10.4400133,17.5453598 10.0880129,16.5480239 C9.88267919,16.8120242 9.66267893,17.0760245 9.42801213,17.3400248 C9.22267842,17.5746916 9.00267816,17.8313602 8.76801137,18.1100257 C8.53334457,18.3886926 8.29867605,18.6600264 8.06401055,18.9240267 C7.59467524,19.4813621 7.15467472,19.862693 6.74400901,20.068028 C6.33334201,20.2733617 5.84934274,20.3466949 5.29200732,20.2880283 C4.9986735,20.2586949 4.61000653,20.2513616 4.12600596,20.2660282 C3.6420054,20.2806949 3.15067006,20.2880283 2.65200425,20.2880283 C2.09466884,20.3173616 1.47866812,20.3320283 0.804002099,20.3320283 L0.804002099,16.9000243 L0.804002099,16.9000243 Z" id="路径"></path>
                </g>
            </g>
        </g>
    </g>
</svg>