<?xml version="1.0" encoding="UTF-8"?>
<svg width="42px" height="39px" viewBox="0 0 42 39" version="1.1" xmlns="http://www.w3.org/2000/svg" xmlns:xlink="http://www.w3.org/1999/xlink">
    <title>聊天</title>
    <g id="页面-1" stroke="none" stroke-width="1" fill="none" fill-rule="evenodd">
        <g id="首页" transform="translate(-1146.000000, -821.000000)" fill="#3D464F" fill-rule="nonzero">
            <g id="编组-4" transform="translate(253.000000, 821.000000)">
                <g id="聊天" transform="translate(893.000000, 0.000000)">
                    <path d="M36.7499708,23.4 L36.7499708,27.3000463 C36.7499708,27.5221013 36.6793659,27.7209841 36.5803695,27.9037713 C36.5724778,27.9186181 36.5824708,27.9354538 36.5740655,27.9500231 C36.546001,27.9984025 36.5000517,28.0272637 36.4667105,28.0706479 C36.4112818,28.1429395 36.3574876,28.2112997 36.2884703,28.2705945 C36.2244029,28.3257267 36.1556658,28.366567 36.083193,28.4078699 C36.0107202,28.4494503 35.940909,28.4879781 35.8605912,28.5155442 C35.7742496,28.5449603 35.6873476,28.556847 35.5965231,28.5683175 C35.541935,28.5750703 35.4938844,28.6 35.4374285,28.6 C35.4098309,28.6 35.3870431,28.586217 35.3600059,28.5843669 C35.2725902,28.5794179 35.1898909,28.5560608 35.1038294,28.5331661 C35.0177213,28.5102715 34.9342281,28.4897819 34.8560117,28.4507916 C34.8318696,28.4388124 34.8051126,28.4393674 34.781204,28.4258156 L25.9925219,23.4000463 L18.3750321,23.4000463 C15.4755127,23.4000463 13.1250496,21.072007 13.1250496,18.2000463 L13.1250496,5.2 C13.1250496,2.32808553 15.475466,0 18.3750321,0 L36.7500175,0 C39.6495369,0 42,2.32803928 42,5.2 L42,18.2 C42,21.0719607 39.6495836,23.4000463 36.7500175,23.4000463 L36.7499708,23.4 Z M39.3750088,5.19995375 C39.3750088,3.76397339 38.1997538,2.59995375 36.7499708,2.59995375 L18.3749854,2.59995375 C16.9252024,2.59995375 15.7499942,3.76397339 15.7499942,5.19995375 L15.7499942,18.1999537 C15.7499942,19.6359341 16.9252024,20.7999537 18.3749854,20.7999537 L26.4074661,20.7999537 L26.4329156,20.8148006 C26.6271726,20.8275198 26.8206358,20.8712278 27.0004636,20.9741844 L34.1250263,25.0483687 L34.1250263,22.0999537 C34.1250263,21.3821254 34.7127471,20.7999537 35.4375219,20.7999537 L36.7500175,20.7999537 C38.1998005,20.7999537 39.3750088,19.6359341 39.3750088,18.1999537 L39.3750088,5.19995375 L39.3750088,5.19995375 Z M35.4374752,12.9999537 C34.7127471,12.9999537 34.1249796,12.4178283 34.1249796,11.6999537 C34.1249796,10.9821254 34.7127004,10.3999537 35.4374752,10.3999537 C36.16225,10.3999537 36.7499708,10.9820792 36.7499708,11.6999537 C36.7499708,12.4178283 36.16225,12.9999537 35.4374752,12.9999537 L35.4374752,12.9999537 Z M27.5625015,12.9999537 C26.8377734,12.9999537 26.2500058,12.4178283 26.2500058,11.6999537 C26.2500058,10.9821254 26.8377267,10.3999537 27.5625015,10.3999537 C28.2872295,10.3999537 28.8749971,10.9820792 28.8749971,11.6999537 C28.8749971,12.4178283 28.2872295,12.9999537 27.5625015,12.9999537 L27.5625015,12.9999537 Z M19.687481,12.9999537 C18.962753,12.9999537 18.3749854,12.4178283 18.3749854,11.6999537 C18.3749854,10.9821254 18.9627063,10.3999537 19.687481,10.3999537 C20.4122558,10.3999537 20.9999767,10.9820792 20.9999767,11.6999537 C20.9999767,12.4178283 20.4122558,12.9999537 19.687481,12.9999537 L19.687481,12.9999537 Z M2.62503794,15.5999075 L2.62503794,28.5999537 C2.62503794,30.0359341 3.80024616,31.1999537 5.25002919,31.1999537 L6.56252481,31.1999537 C7.28725288,31.1999537 7.87502043,31.7820792 7.87502043,32.4999537 L7.87502043,35.4483687 L14.9995831,31.3741844 C15.1793642,31.2711816 15.3728741,31.2275198 15.5671311,31.2148006 L15.5925806,31.1999537 L23.6250613,31.1999537 C25.0748443,31.1999537 26.2500525,30.0359341 26.2500525,28.5999537 L28.8750438,28.5999537 C28.8750438,31.4718682 26.5246273,33.7999537 23.6250613,33.7999537 L16.0075248,33.7999537 L7.21874927,38.8258156 C7.19484072,38.8393674 7.16808368,38.8388124 7.14394164,38.8507916 C7.06572518,38.8897819 6.98223202,38.9103177 6.89612387,38.9331661 C6.81001571,38.9560608 6.72731639,38.9794179 6.63994743,38.9843669 C6.61291022,38.9861707 6.59007568,39 6.56252481,39 C6.50611556,39 6.45801827,38.975024 6.40343018,38.9683175 C6.31260569,38.9568933 6.22575039,38.9449141 6.13936206,38.9155442 C6.05904426,38.8879781 5.98923315,38.8494966 5.91676034,38.8078699 C5.84428753,38.766567 5.77555043,38.7256804 5.71148298,38.6705945 C5.6424657,38.6112997 5.58862476,38.5429395 5.53324283,38.4706479 C5.4999483,38.4272637 5.45395235,38.3983563 5.42588782,38.3499769 C5.41748246,38.3354075 5.42747549,38.3184794 5.4195838,38.3037251 C5.32063414,38.1209378 5.24998249,37.922055 5.24998249,37.7 L5.24998249,33.7999537 C2.35046313,33.7999537 0,31.4719145 0,28.5999537 L0,15.599815 C0,12.7279005 2.35041643,10.399815 5.24998249,10.399815 L10.499965,10.399815 L10.499965,12.999815 L5.25007588,12.999815 C3.80029285,12.999815 2.62508464,14.1638346 2.62508464,15.599815 L2.62503794,15.5999075 Z" id="形状"></path>
                </g>
            </g>
        </g>
    </g>
</svg>