<?xml version="1.0" encoding="UTF-8"?>
<svg width="38px" height="38px" viewBox="0 0 38 38" version="1.1" xmlns="http://www.w3.org/2000/svg" xmlns:xlink="http://www.w3.org/1999/xlink">
    <title>实习生成本</title>
    <g id="页面-1" stroke="none" stroke-width="1" fill="none" fill-rule="evenodd">
        <g id="首页" transform="translate(-551.000000, -821.000000)" fill="#3D464F" fill-rule="nonzero">
            <g id="编组-4" transform="translate(253.000000, 821.000000)">
                <g id="实习生成本" transform="translate(298.000000, 0.000000)">
                    <path d="M13.1347844,18.7808847 L19.5414325,18.7808847 C20.0269799,18.7808847 20.5125274,18.8152598 20.989481,18.8883067 C21.7328413,19.0000256 22.4461234,18.5488532 22.6609674,17.8269774 C22.8199519,17.2812736 22.6566705,16.7226792 22.2914357,16.3488506 C24.143391,14.7031456 25.3164392,12.3011897 25.3164392,9.63712408 C25.3164392,4.68711832 21.2902626,0.66094176 16.3402569,0.66094176 C11.3902511,0.66094176 7.36407456,4.68711832 7.36407456,9.63712408 C7.36407456,12.1851739 8.43399768,14.4925985 10.1484528,16.1297098 C9.47813952,16.2929912 8.82071688,16.5078352 8.18048176,16.7828355 C6.66368312,17.4273675 5.30157216,18.3468998 4.12852392,19.5199481 C2.95547568,20.6929963 2.03594336,22.0551073 1.39141136,23.5719059 C0.72109808,25.144564 0.38594144,26.8117534 0.38594144,28.5262086 L0.38594144,29.4973034 C0.38594144,33.8672304 3.92657056,37.4078595 8.29649752,37.4078595 L21.1871375,37.4078595 C22.0164354,37.4078595 22.6910455,36.7332494 22.6910455,35.9039515 C22.6910455,35.0746537 22.0164354,34.4000435 21.1871375,34.4000435 L8.29649752,34.4000435 C5.58946312,34.4000435 3.39375744,32.2043378 3.39375744,29.4973034 L3.39375744,28.5262086 C3.39375744,23.1422179 7.75509064,18.7808847 13.1347844,18.7808847 Z M16.3402569,3.66875776 C19.631667,3.66875776 22.3086232,6.345714 22.3086232,9.63712408 C22.3086232,12.9285342 19.631667,15.6054904 16.3402569,15.6054904 C13.0488468,15.6054904 10.3718906,12.9285342 10.3718906,9.63712408 C10.3718906,6.345714 13.0488468,3.66875776 16.3402569,3.66875776 Z M37.8977038,20.6972932 L35.7707482,18.5703376 L30.910977,23.425812 L26.0512057,18.5703376 L23.9242501,20.6972932 L27.9633173,24.7363604 L24.607454,24.7363604 L24.607454,27.7441764 L29.1492562,27.7441764 L29.1492562,29.6262098 L24.607454,29.6262098 L24.607454,32.6340258 L29.1492562,32.6340258 L29.1492562,37.3133282 L32.1570722,37.3133282 L32.1570722,32.6340258 L36.6945774,32.6340258 L36.6945774,29.6262098 L32.1570722,29.6262098 L32.1570722,27.7441764 L36.6945774,27.7441764 L36.6945774,24.7363604 L33.8543398,24.7363604 L37.8977038,20.6972932 Z" id="形状"></path>
                </g>
            </g>
        </g>
    </g>
</svg>