<svg xmlns="http://www.w3.org/2000/svg" width="25.566" height="22.924" viewBox="0 0 25.566 22.924">
  <g id="group_803" data-name="group_803" transform="translate(-262.846 -103.447)">
    <path id="calendar_2_" data-name="calendar_2" d="M20.325,68.2a.882.882,0,0,0,0-1.763H7.1a.882.882,0,0,0,0,1.763ZM7.1,70.842a.882.882,0,1,0,0,1.763h8.819a.882.882,0,1,0,0-1.763Z" transform="translate(261.919 48.475)" fill="#5433ff"/>
    <path id="calendar_2_2" data-name="calendar_2" d="M1.325,55.171A1.325,1.325,0,0,0,0,56.5v18.07a1.326,1.326,0,0,0,1.325,1.324H24.241a1.325,1.325,0,0,0,1.325-1.324V56.5a1.326,1.326,0,0,0-1.325-1.324H19.4l.882.882V53.847a.882.882,0,0,0-1.763,0v3.088h5.727A.437.437,0,0,1,23.8,56.5v18.07a.439.439,0,0,1,.438-.439H1.325a.437.437,0,0,1,.438.439V56.5a.439.439,0,0,1-.438.439H6.171a.882.882,0,1,0,0-1.763Zm3.964.882a.882.882,0,0,0,1.763,0V53.847a.882.882,0,0,0-1.763,0Zm20.277,4.408v-.882H0v3.086a.882.882,0,1,0,1.763,0v-2.2l-.882.882h23.8l-.882-.882v2.2a.882.882,0,1,0,1.763,0ZM19.4,56.935l-.882-.882v1.765a.882.882,0,0,0,1.763,0V55.171H6.171a.882.882,0,0,0,0,1.763ZM7.053,56.053a.882.882,0,1,0-1.763,0v1.765a.882.882,0,0,0,1.763,0Z" transform="translate(262.846 50.481)"/>
  </g>
</svg>
