<?xml version="1.0" standalone="no"?><!DOCTYPE svg PUBLIC "-//W3C//DTD SVG 1.1//EN" "http://www.w3.org/Graphics/SVG/1.1/DTD/svg11.dtd"><svg t="1654137022752" class="icon" viewBox="0 0 1024 1024" version="1.1" xmlns="http://www.w3.org/2000/svg" p-id="3530" xmlns:xlink="http://www.w3.org/1999/xlink" width="64" height="64"><defs><style type="text/css">@font-face { font-family: feedback-iconfont; src: url("//at.alicdn.com/t/font_1031158_u69w8yhxdu.woff2?t=1630033759944") format("woff2"), url("//at.alicdn.com/t/font_1031158_u69w8yhxdu.woff?t=1630033759944") format("woff"), url("//at.alicdn.com/t/font_1031158_u69w8yhxdu.ttf?t=1630033759944") format("truetype"); }
</style></defs><path d="M146.285714 926.47619m48.761905 0l633.904762 0q48.761905 0 48.761905 48.761905l0 0q0 48.761905-48.761905 48.761905l-633.904762 0q-48.761905 0-48.761905-48.761905l0 0q0-48.761905 48.761905-48.761905Z" fill="#ED8233" p-id="3531"></path><path d="M332.068571 493.275429l138.727619-229.034667a48.761905 48.761905 0 0 1 83.529143 0.195048l137.216 228.839619 202.410667-72.655239a48.761905 48.761905 0 0 1 64.316952 55.442286l-72.655238 362.496a48.761905 48.761905 0 0 1-47.835428 39.15581H186.270476a48.761905 48.761905 0 0 1-47.786666-39.204572l-72.655239-363.763809A48.761905 48.761905 0 0 1 130.340571 419.352381l201.728 73.923048z" fill="#ED8233" p-id="3532"></path><path d="M537.746286 247.808a48.761905 48.761905 0 0 1 16.579047 16.62781l137.216 228.839619 202.410667-72.655239a48.761905 48.761905 0 0 1 45.982476 7.021715L399.896381 877.714286H186.270476a48.761905 48.761905 0 0 1-47.786666-39.204572l-72.655239-363.763809A48.761905 48.761905 0 0 1 130.340571 419.352381l201.728 73.923048 138.678858-229.034667a48.761905 48.761905 0 0 1 66.950095-16.432762z" fill="#FFCE21" p-id="3533"></path><path d="M512 73.142857m-73.142857 0a73.142857 73.142857 0 1 0 146.285714 0 73.142857 73.142857 0 1 0-146.285714 0Z" fill="#FFCE21" p-id="3534"></path><path d="M73.142857 268.190476m-73.142857 0a73.142857 73.142857 0 1 0 146.285714 0 73.142857 73.142857 0 1 0-146.285714 0Z" fill="#FFCE21" p-id="3535"></path><path d="M950.857143 268.190476m-73.142857 0a73.142857 73.142857 0 1 0 146.285714 0 73.142857 73.142857 0 1 0-146.285714 0Z" fill="#FFCE21" p-id="3536"></path></svg>