<?xml version="1.0" encoding="UTF-8"?>
<svg width="47px" height="18px" viewBox="0 0 47 18" version="1.1" xmlns="http://www.w3.org/2000/svg" xmlns:xlink="http://www.w3.org/1999/xlink">
    <title>编组 2备份</title>
    <defs>
        <path d="M9.37833217,8.1 L1.41721072,8.1 C1.19266627,8.1 1.0021437,7.93826955 0.93409993,7.71589018 L0.00870461631,3.11331115 C-0.0253172702,2.9515807 0.0427265029,2.76289517 0.172009672,2.66855241 C0.301292841,2.54051581 0.457793519,2.50682196 0.621098574,2.57420965 L3.18634882,3.36938436 L4.98270443,0.256073211 C5.07796571,0.0943427621 5.24127077,0 5.39777145,0 C5.5610765,0 5.71757718,0.0943427621 5.81283846,0.256073211 L7.60919407,3.36938436 L10.1812487,2.57420965 C10.3445538,2.51356073 10.5350763,2.57420965 10.6303376,2.66855241 C10.7596208,2.79658902 10.8208602,2.9515807 10.7936427,3.11331115 L9.86144296,7.72262895 C9.82742107,7.94500832 9.63689851,8.1 9.37833217,8.1 Z" id="path-1"></path>
    </defs>
    <g id="动物园优化问题修改" stroke="none" stroke-width="1" fill="none" fill-rule="evenodd">
        <g id="不限购/有权益" transform="translate(-318.000000, -440.000000)">
            <g id="编组-2备份" transform="translate(318.000000, 440.000000)">
                <rect id="矩形" fill-opacity="0.397344843" fill="#000000" x="0" y="0" width="46.8" height="18"></rect>
                <g id="权益" transform="translate(3.600000, 1.700000)">
                    <path d="M0.9,4.5 C0.396373057,4.5 0,4.08139535 0,3.59767442 C0,3.11395349 0.419689119,2.7 0.9,2.7 C1.38031088,2.7 1.8,3.07209302 1.8,3.57906977 C1.8,4.08604651 1.40829016,4.5 0.9,4.5 Z M6.29998075,1.8 C5.79636458,1.8 5.4,1.38031088 5.4,0.9 C5.4,0.396373057 5.81968014,0 6.29998075,0 C6.78028136,0 7.19996151,0.419689119 7.19996151,0.9 C7.20462462,1.40362694 6.78494448,1.8 6.29998075,1.8 Z M11.7,4.5 C11.1963731,4.5 10.8,4.08031088 10.8,3.6 C10.8,3.11968912 11.2196891,2.7 11.7,2.7 C12.1849741,2.7 12.6,3.11968912 12.6,3.6 C12.6,4.08031088 12.2036269,4.5 11.7,4.5 Z" id="形状" fill="#F48E31" fill-rule="nonzero"></path>
                    <g id="编组-3" transform="translate(0.900000, 2.700000)">
                        <mask id="mask-2" fill="white">
                            <use xlink:href="#path-1"></use>
                        </mask>
                        <use id="蒙版" fill="#FFBB33" fill-rule="nonzero" xlink:href="#path-1"></use>
                        <polygon id="矩形" fill="#FFD279" mask="url(#mask-2)" points="0 0 13.5 0 2.7 9 0 9"></polygon>
                    </g>
                    <path d="M10.2888,12.6 L2.3112,12.6 C2.0376,12.6 1.8,12.3908451 1.8,12.15 C1.8,11.9091549 2.0376,11.7 2.3112,11.7 L10.2888,11.7 C10.5624,11.7 10.8,11.9091549 10.8,12.15 C10.8,12.3908451 10.5624,12.6 10.2888,12.6 Z" id="路径" fill="#F48E31" fill-rule="nonzero"></path>
                </g>
                <g id="权益" transform="translate(20.000000, 4.000000)" fill="#EED1B3" fill-rule="nonzero">
                    <path d="M2.88297872,4.75161987 C3.13829787,5.10799136 3.43617021,5.56155508 3.77659574,6.10151188 L4.41489362,5.1187905 C3.90425532,4.53563715 3.39361702,3.99568035 2.88297872,3.52051836 L2.88297872,3.07775378 L4.17021277,3.07775378 L4.17021277,1.98704104 L2.88297872,1.98704104 L2.88297872,0 L1.77659574,0 L1.77659574,1.98704104 L0.234042553,1.98704104 L0.234042553,3.07775378 L1.73404255,3.07775378 C1.37234043,4.28725702 0.787234043,5.36717063 0,6.30669546 L0.5,7.60259179 C1.0106383,6.80345572 1.43617021,5.91792657 1.77659574,4.94600432 L1.77659574,9.95680346 L2.88297872,9.95680346 L2.88297872,4.75161987 Z M8.15957447,1.61987041 C7.94680851,3.06695464 7.5212766,4.36285097 6.89361702,5.52915767 C6.26595745,4.35205184 5.89361702,3.04535637 5.76595745,1.61987041 L8.15957447,1.61987041 Z M6.25531915,6.54427646 C5.56382979,7.50539957 4.68085106,8.34773218 3.61702128,9.06047516 L4.34042553,9.97840173 C5.34042553,9.31965443 6.19148936,8.50971922 6.91489362,7.55939525 C7.54255319,8.42332613 8.31914894,9.24406048 9.24468085,10 L10,9.09287257 C9.0212766,8.35853132 8.21276596,7.52699784 7.55319149,6.59827214 C8.38297872,5.19438445 8.94680851,3.52051836 9.24468085,1.59827214 L9.24468085,0.529157667 L4.31914894,0.529157667 L4.31914894,1.61987041 L4.71276596,1.61987041 C4.88297872,3.412527 5.39361702,5.05399568 6.25531915,6.54427646 Z" id="形状"></path>
                    <path d="M19.422782,5.40929204 L12.9496166,5.40929204 C13.7053669,4.97787611 14.3844469,4.4800885 14.9978094,3.92699115 L14.2749179,3.08628319 C13.4315444,3.90486726 12.3362541,4.55752212 11,5.05530973 L11.4928806,6.11725664 C11.7995619,5.98451327 12.0952903,5.84070796 12.4019715,5.69690265 L12.4019715,8.89380531 L11.0985761,8.89380531 L11.0985761,10 L20.8795181,10 L20.8795181,8.89380531 L19.652793,8.89380531 L19.652793,5.58628319 C19.8828039,5.75221239 20.1128149,5.92920354 20.3428258,6.12831858 L21,5.12168142 C19.992333,4.34734513 18.8751369,3.67256637 17.6593647,3.11946903 L17.067908,4.01548673 C17.856517,4.38053097 18.645126,4.84513274 19.422782,5.40929204 Z M13.5082147,8.89380531 L13.5082147,6.49336283 L14.4611172,6.49336283 L14.4611172,8.89380531 L13.5082147,8.89380531 Z M15.5125958,8.89380531 L15.5125958,6.49336283 L16.5202629,6.49336283 L16.5202629,8.89380531 L15.5125958,8.89380531 Z M17.5717415,8.89380531 L17.5717415,6.49336283 L18.5355969,6.49336283 L18.5355969,8.89380531 L17.5717415,8.89380531 Z M11.3176342,1.89159292 L11.3176342,2.99778761 L20.66046,2.99778761 L20.66046,1.89159292 L18.2946331,1.89159292 C18.6122673,1.46017699 18.9079956,0.973451327 19.1818182,0.431415929 L18.075575,0.0331858407 C17.7798467,0.685840708 17.4403067,1.30530973 17.0460022,1.89159292 L14.4282585,1.89159292 L14.932092,1.53761062 C14.6254107,1.09513274 14.1982475,0.586283186 13.6286966,0 L12.686747,0.597345133 C13.1248631,1.0619469 13.4972618,1.49336283 13.803943,1.89159292 L11.3176342,1.89159292 Z" id="形状"></path>
                </g>
            </g>
        </g>
    </g>
</svg>