<?xml version="1.0" encoding="utf-8"?>
<!-- Generator: Adobe Illustrator 22.0.0, SVG Export Plug-In . SVG Version: 6.00 Build 0)  -->
<svg version="1.1" id="图层_1" xmlns="http://www.w3.org/2000/svg" xmlns:xlink="http://www.w3.org/1999/xlink" x="0px" y="0px"
	 viewBox="0 0 400 400" style="enable-background:new 0 0 400 400;" xml:space="preserve">
<g>
	<path d="M65.629,172.109c0.188,0.189,0.282,0.417,0.282,0.685v7.823c0,0.27-0.094,0.498-0.282,0.685
		c-0.189,0.189-0.417,0.282-0.686,0.282H54.13c-0.27,0-0.403,0.135-0.403,0.403v45.322c0,0.27-0.095,0.498-0.282,0.685
		c-0.189,0.189-0.417,0.282-0.685,0.282h-9.435c-0.27,0-0.498-0.093-0.685-0.282c-0.189-0.188-0.282-0.416-0.282-0.685v-45.322
		c0-0.268-0.135-0.403-0.403-0.403H31.544c-0.27,0-0.498-0.093-0.685-0.282c-0.189-0.188-0.282-0.416-0.282-0.685v-7.823
		c0-0.268,0.093-0.497,0.282-0.685c0.188-0.188,0.416-0.282,0.685-0.282h33.399C65.212,171.826,65.44,171.921,65.629,172.109z"/>
	<path d="M140.887,181.302c-0.189,0.189-0.417,0.282-0.686,0.282h-16.855c-0.27,0-0.403,0.135-0.403,0.403v12.742
		c0,0.27,0.134,0.403,0.403,0.403h12.606c0.268,0,0.496,0.095,0.685,0.282c0.188,0.189,0.282,0.417,0.282,0.685v7.823
		c0,0.27-0.094,0.498-0.282,0.685c-0.189,0.189-0.417,0.282-0.685,0.282h-12.606c-0.27,0-0.403,0.135-0.403,0.403v12.822
		c0,0.27,0.134,0.403,0.403,0.403h16.855c0.268,0,0.497,0.095,0.686,0.282c0.188,0.189,0.282,0.417,0.282,0.685v7.823
		c0,0.27-0.094,0.498-0.282,0.685c-0.189,0.189-0.417,0.282-0.686,0.282H112.54c-0.27,0-0.498-0.093-0.685-0.282
		c-0.189-0.188-0.282-0.416-0.282-0.685v-54.516c0-0.268,0.093-0.497,0.282-0.685c0.188-0.188,0.416-0.282,0.685-0.282h27.661
		c0.268,0,0.497,0.094,0.686,0.282c0.188,0.189,0.282,0.417,0.282,0.685v7.823C141.169,180.886,141.075,181.114,140.887,181.302z"/>
	<path d="M170.24,172.109c0.188-0.188,0.416-0.282,0.686-0.282h9.355c0.268,0,0.497,0.094,0.685,0.282
		c0.188,0.189,0.282,0.417,0.282,0.685v54.516c0,0.27-0.095,0.498-0.282,0.685c-0.189,0.189-0.417,0.282-0.685,0.282h-10.645
		c-0.538,0-0.887-0.268-1.048-0.806l-10-30.111c-0.054-0.161-0.149-0.228-0.282-0.202c-0.135,0.028-0.202,0.121-0.202,0.282
		l0.081,29.869c0,0.27-0.095,0.498-0.282,0.685c-0.189,0.189-0.417,0.282-0.685,0.282h-9.355c-0.27,0-0.498-0.093-0.685-0.282
		c-0.189-0.188-0.282-0.416-0.282-0.685v-54.516c0-0.268,0.093-0.497,0.282-0.685c0.188-0.188,0.416-0.282,0.685-0.282h10.564
		c0.537,0,0.887,0.27,1.048,0.806l10.08,30.111c0.053,0.161,0.147,0.229,0.282,0.202c0.134-0.026,0.201-0.121,0.201-0.282
		l-0.081-29.869C169.958,172.526,170.051,172.298,170.24,172.109z"/>
	<path d="M188.627,227.995c-0.189-0.188-0.282-0.416-0.282-0.685v-54.516c0-0.268,0.093-0.497,0.282-0.685
		c0.188-0.188,0.416-0.282,0.685-0.282h14.597c4.892,0,8.817,1.425,11.774,4.274c2.956,2.85,4.435,6.641,4.435,11.371v25.161
		c0,4.732-1.479,8.522-4.435,11.371c-2.958,2.85-6.883,4.274-11.774,4.274h-14.597C189.043,228.277,188.815,228.184,188.627,227.995
		z M200.119,217.421l3.629-0.081c1.452-0.053,2.633-0.672,3.548-1.855c0.914-1.182,1.398-2.742,1.452-4.677v-21.513
		c0-2.043-0.457-3.655-1.371-4.839c-0.915-1.182-2.151-1.774-3.71-1.774h-3.548c-0.27,0-0.403,0.135-0.403,0.403v33.932
		C199.715,217.288,199.849,217.421,200.119,217.421z"/>
	<path d="M295.661,181.302c-0.189,0.189-0.417,0.282-0.685,0.282h-16.855c-0.27,0-0.403,0.135-0.403,0.403v12.742
		c0,0.27,0.134,0.403,0.403,0.403h12.606c0.268,0,0.497,0.095,0.686,0.282c0.188,0.189,0.282,0.417,0.282,0.685v7.823
		c0,0.27-0.095,0.498-0.282,0.685c-0.189,0.189-0.417,0.282-0.686,0.282h-12.606c-0.27,0-0.403,0.135-0.403,0.403v12.822
		c0,0.27,0.134,0.403,0.403,0.403h16.855c0.268,0,0.496,0.095,0.685,0.282c0.188,0.189,0.282,0.417,0.282,0.685v7.823
		c0,0.27-0.095,0.498-0.282,0.685c-0.189,0.189-0.417,0.282-0.685,0.282h-27.661c-0.27,0-0.498-0.093-0.685-0.282
		c-0.189-0.188-0.282-0.416-0.282-0.685v-54.516c0-0.268,0.093-0.497,0.282-0.685c0.188-0.188,0.416-0.282,0.685-0.282h27.661
		c0.268,0,0.496,0.094,0.685,0.282c0.188,0.189,0.282,0.417,0.282,0.685v7.823C295.943,180.886,295.848,181.114,295.661,181.302z"/>
	<path d="M325.618,227.39l-1.428-8.461c0-0.268-0.161-0.403-0.484-0.403l-9.994,0.014c-0.322,0-0.484,0.135-0.484,0.403
		l-1.401,8.446c-0.054,0.592-0.403,0.887-1.048,0.887h-9.435c-0.699,0-0.968-0.349-0.806-1.048l11.855-54.515
		c0.107-0.591,0.456-0.887,1.048-0.887h10.887c0.591,0,0.94,0.296,1.048,0.887l11.774,54.515l0.081,0.323
		c0,0.484-0.296,0.726-0.887,0.726h-9.677C326.022,228.277,325.671,227.982,325.618,227.39z M315.12,209.942l7.075,0.052
		c0.268,0,0.376-0.134,0.323-0.403l-3.673-21.556c-0.054-0.161-0.135-0.242-0.242-0.242c-0.108,0-0.189,0.081-0.242,0.242
		l-3.563,21.503C314.797,209.809,314.904,209.942,315.12,209.942z"/>
	<path d="M370.51,172.109c0.188,0.189,0.282,0.417,0.282,0.685v7.823c0,0.27-0.094,0.498-0.282,0.685
		c-0.189,0.189-0.417,0.282-0.685,0.282h-10.813c-0.27,0-0.403,0.135-0.403,0.403v45.322c0,0.27-0.095,0.498-0.282,0.685
		c-0.189,0.189-0.417,0.282-0.686,0.282h-9.435c-0.27,0-0.498-0.093-0.685-0.282c-0.189-0.188-0.282-0.416-0.282-0.685v-45.322
		c0-0.268-0.135-0.403-0.403-0.403h-10.409c-0.27,0-0.498-0.093-0.685-0.282c-0.189-0.188-0.282-0.416-0.282-0.685v-7.823
		c0-0.268,0.093-0.497,0.282-0.685c0.188-0.188,0.416-0.282,0.685-0.282h33.399C370.093,171.826,370.321,171.921,370.51,172.109z"/>
	<path d="M82.764,171.826H72.361c-0.27,0-0.498,0.094-0.685,0.282c-0.189,0.189-0.282,0.417-0.282,0.685v54.516
		c0,0.27,0.093,0.498,0.282,0.685c0.188,0.189,0.416,0.282,0.685,0.282h9.435c0.268,0,0.497-0.093,0.686-0.282
		c0.187-0.187,0.281-0.414,0.282-0.682V171.826z"/>
	<path d="M106.331,227.148l-7.419-23.79c-0.054-0.107-0.054-0.202,0-0.282c0.053-0.081,0.134-0.147,0.242-0.202
		c2.15-1.343,3.831-3.226,5.04-5.645c1.21-2.419,1.815-5.214,1.815-8.387c0-3.333-0.633-6.29-1.895-8.871
		c-1.264-2.581-3.052-4.583-5.363-6.008c-2.312-1.424-4.947-2.137-7.903-2.137h-4.972v9.758h3.117c1.666,0,3.024,0.659,4.072,1.976
		c1.048,1.318,1.573,3.105,1.573,5.363c0,2.205-0.524,3.965-1.573,5.282c-1.048,1.318-2.407,1.976-4.072,1.976h-3.117v8.71h2.23
		c0.161,0,0.295,0.108,0.403,0.322l6.21,22.258c0.161,0.538,0.537,0.806,1.129,0.806h9.677c0.591,0,0.887-0.268,0.887-0.806
		L106.331,227.148z"/>
	<path d="M237.838,171.826h-10.38c-0.27,0-0.498,0.094-0.685,0.282c-0.189,0.189-0.282,0.417-0.282,0.685v54.516
		c0,0.27,0.093,0.498,0.282,0.685c0.188,0.189,0.416,0.282,0.685,0.282h10.38V171.826z"/>
	<path d="M254.734,199.326c-0.161-0.161-0.135-0.323,0.081-0.484c3.656-2.419,5.484-6.29,5.484-11.613
		c0-5.107-1.52-8.952-4.557-11.532c-3.038-2.581-7.245-3.871-12.621-3.871h-2.172v9.758h2.414c1.881,0,3.319,0.592,4.314,1.774
		c0.994,1.183,1.492,2.877,1.492,5.081c0,2.097-0.512,3.723-1.532,4.879c-1.022,1.157-2.447,1.734-4.274,1.734h-2.414v8.226h3.14
		c1.72,0,3.091,0.699,4.113,2.097c1.021,1.399,1.532,3.28,1.532,5.645c0,2.366-0.512,4.193-1.532,5.484
		c-1.022,1.29-2.419,1.935-4.193,1.935h-3.059v9.839h3.946c4.784,0,8.682-1.343,11.693-4.032c3.01-2.688,4.516-6.532,4.516-11.532
		C261.105,206.799,258.981,202.337,254.734,199.326z"/>
</g>
</svg>
