<?xml version="1.0" encoding="utf-8"?>
<!-- Generator: Adobe Illustrator 22.0.0, SVG Export Plug-In . SVG Version: 6.00 Build 0)  -->
<svg version="1.1" id="图层_1" xmlns="http://www.w3.org/2000/svg" xmlns:xlink="http://www.w3.org/1999/xlink" x="0px" y="0px"
	 viewBox="0 0 572 544" style="enable-background:new 0 0 572 544;" xml:space="preserve">
<g>
	<path d="M88.6,227.1c0.2,0.3,0.3,0.6,0.2,1l-1.7,14.1c-0.1,0.4-0.3,0.7-0.5,1c-0.3,0.3-0.6,0.4-1,0.4h-16c-0.4,0-0.6,0.2-0.6,0.6
		l-8,64.5c0,0.4-0.2,0.7-0.5,1c-0.3,0.3-0.7,0.4-1.1,0.4H43.1c-0.9,0-1.3-0.5-1.3-1.4l8-64.5c0-0.4-0.2-0.6-0.5-0.6H33.9
		c-0.4,0-0.7-0.1-1-0.4c-0.2-0.3-0.3-0.6-0.2-1l1.7-14.1c0.1-0.4,0.3-0.7,0.6-1c0.3-0.3,0.7-0.4,1.1-0.4h51.6
		C88,226.7,88.3,226.9,88.6,227.1z"/>
	<path d="M200.2,243.2c-0.3,0.3-0.6,0.4-1,0.4h-23.2c-0.3,0-0.6,0.2-0.7,0.6l-1.8,15c0,0.4,0.2,0.6,0.5,0.6h17.5
		c0.4,0,0.7,0.1,1,0.4c0.2,0.3,0.3,0.6,0.2,1l-1.8,14.2c0,0.4-0.2,0.7-0.5,1c-0.3,0.3-0.7,0.4-1.1,0.4h-17.4c-0.3,0-0.6,0.2-0.7,0.6
		l-1.8,15.1c-0.2,0.4,0,0.6,0.5,0.6h23.2c0.4,0,0.7,0.1,1,0.4c0.2,0.3,0.3,0.6,0.2,1l-1.7,14.1c-0.1,0.4-0.3,0.7-0.6,1
		c-0.3,0.3-0.7,0.4-1.1,0.4h-41.6c-0.4,0-0.7-0.1-1-0.4c-0.2-0.3-0.3-0.6-0.2-1l9.9-80.5c0.1-0.4,0.3-0.7,0.5-1
		c0.3-0.3,0.6-0.4,1-0.4h41.6c0.9,0,1.3,0.5,1.3,1.4l-1.8,14.1C200.6,242.6,200.4,243,200.2,243.2z"/>
	<path d="M244,227.1c0.3-0.3,0.6-0.4,1-0.4h16.2c0.4,0,0.7,0.1,1,0.4c0.2,0.3,0.3,0.6,0.2,1l-9.9,80.5c0,0.4-0.2,0.7-0.5,1
		c-0.3,0.3-0.7,0.4-1.1,0.4h-18.3c-0.8,0-1.3-0.4-1.4-1.2l-6.6-40.3c0-0.2-0.1-0.4-0.3-0.4c-0.2,0-0.3,0.1-0.3,0.4l-4.7,40.1
		c-0.1,0.4-0.3,0.7-0.5,1c-0.3,0.3-0.6,0.4-1,0.4h-16.2c-0.4,0-0.7-0.1-1-0.4c-0.2-0.3-0.3-0.6-0.2-1l9.9-80.5
		c0.1-0.4,0.3-0.7,0.5-1c0.3-0.3,0.6-0.4,1-0.4h18.1c0.9,0,1.4,0.4,1.5,1.2l6.6,40c0,0.2,0.1,0.4,0.3,0.4c0.2,0,0.3-0.2,0.4-0.5
		l4.7-39.6C243.5,227.8,243.7,227.4,244,227.1z"/>
	<path d="M262,309.7c-0.2-0.3-0.3-0.6-0.2-1l9.9-80.5c0.1-0.4,0.3-0.7,0.5-1c0.3-0.3,0.6-0.4,1-0.4h22c6.8,0,12.2,1.8,16.1,5.4
		c3.9,3.6,5.8,8.5,5.8,14.7c0,0.7-0.1,1.9-0.2,3.5l-4.5,36.5c-0.9,7.1-3.8,12.7-8.8,17c-5,4.3-11.2,6.4-18.6,6.4h-22
		C262.6,310.1,262.3,310,262,309.7z M283.8,291.8l3.2-0.1c1.7-0.1,3.1-0.8,4.4-2.2c1.3-1.4,2.1-3.2,2.4-5.5l3.8-31.9
		c0.1-0.4,0.1-1,0.1-1.7c0-1.9-0.5-3.4-1.4-4.5c-0.9-1.1-2.1-1.7-3.6-1.7h-3.1c-0.3,0-0.6,0.2-0.7,0.6l-5.5,46.4
		C283.2,291.6,283.3,291.8,283.8,291.8z"/>
	<path d="M431.3,243.2c-0.3,0.3-0.6,0.4-1,0.4h-23.2c-0.3,0-0.6,0.2-0.7,0.6l-1.8,15c0,0.4,0.2,0.6,0.5,0.6h17.5
		c0.4,0,0.7,0.1,1,0.4c0.2,0.3,0.3,0.6,0.2,1l-1.8,14.2c0,0.4-0.2,0.7-0.5,1c-0.3,0.3-0.7,0.4-1.1,0.4H403c-0.3,0-0.6,0.2-0.7,0.6
		l-1.8,15.1c-0.2,0.4,0,0.6,0.5,0.6h23.2c0.4,0,0.7,0.1,1,0.4c0.2,0.3,0.3,0.6,0.2,1l-1.7,14.1c-0.1,0.4-0.3,0.7-0.6,1
		c-0.3,0.3-0.7,0.4-1.1,0.4h-41.6c-0.4,0-0.7-0.1-1-0.4c-0.2-0.3-0.3-0.6-0.2-1l9.9-80.5c0.1-0.4,0.3-0.7,0.5-1
		c0.3-0.3,0.6-0.4,1-0.4h41.6c0.9,0,1.3,0.5,1.3,1.4l-1.8,14.1C431.8,242.6,431.6,243,431.3,243.2z"/>
	<path d="M466.5,308.8l-0.2-12c0-0.6-0.4-0.6-0.6-0.6H454c-0.5,0-0.7,0.2-0.7,0.6l-3.4,12c-0.2,0.9-0.8,1.3-1.7,1.3h-16.4
		c-1,0-1.3-0.5-1-1.5l26.6-80.5c0.2-0.9,0.8-1.3,1.7-1.3h18.8c1,0,1.4,0.4,1.4,1.3l6.7,80.5v0.4c0,0.8-0.4,1.2-1.3,1.2h-16.8
		C467,310.1,466.5,309.7,466.5,308.8z M458.1,280.2h6.9c0.4,0,0.6-0.2,0.6-0.6l-0.8-24.8c0-0.3-0.1-0.5-0.2-0.5
		c-0.2,0-0.3,0.2-0.5,0.5l-6.3,24.8C457.8,280,457.9,280.2,458.1,280.2z"/>
	<path d="M548.4,227.1c0.2,0.3,0.3,0.6,0.2,1l-1.7,14.1c-0.1,0.4-0.3,0.7-0.5,1c-0.3,0.3-0.6,0.4-1,0.4h-16c-0.4,0-0.6,0.2-0.6,0.6
		l-8,64.5c0,0.4-0.2,0.7-0.5,1c-0.3,0.3-0.7,0.4-1.1,0.4h-16.3c-0.9,0-1.3-0.5-1.3-1.4l8-64.5c0-0.4-0.2-0.6-0.5-0.6h-15.4
		c-0.4,0-0.7-0.1-1-0.4c-0.2-0.3-0.3-0.6-0.2-1l1.7-14.1c0.1-0.4,0.3-0.7,0.6-1c0.3-0.3,0.7-0.4,1.1-0.4h51.6
		C547.8,226.7,548.1,226.9,548.4,227.1z"/>
	<path d="M347.3,226.7h-17.6c-0.4,0-0.7,0.1-1,0.4c-0.3,0.3-0.5,0.6-0.5,1l-9.9,80.5c-0.1,0.4,0,0.7,0.2,1c0.2,0.3,0.6,0.4,1,0.4
		H337L347.3,226.7z"/>
	<path d="M344.8,293.1C344.7,293.1,344.7,293.1,344.8,293.1l-2.1,17h5c7.1,0,13.2-2,18.3-6.1c5-4.1,8-9.9,8.8-17.6
		c0.2-1.7,0.2-3,0.2-3.8c0-6.5-2.2-11.6-6.7-15.3c-0.2-0.2-0.2-0.5,0.2-0.7c5.2-3.6,8.3-9.2,9.3-16.8c0.2-1,0.2-2.3,0.2-4.1
		c0-6.4-2-11.1-6.1-14.3c-4.1-3.2-9.8-4.8-17-4.8h-2L344.8,293.1z"/>
	<path d="M346,243.6"/>
	<path d="M105.2,309.7c0.2-0.2,0.3-0.4,0.4-0.7l8-64.7l0-0.1v0l2.2-17.5H98c-0.4,0-0.7,0.1-1,0.4c-0.3,0.3-0.5,0.6-0.5,1l-9.9,80.5
		c-0.1,0.4,0,0.7,0.2,1c0.2,0.3,0.6,0.4,1,0.4h16.4C104.6,310.1,104.9,310,105.2,309.7z"/>
	<path d="M117,261.8l-1.9,15.1l6.1,32c0.1,0.8,0.6,1.2,1.4,1.2h16.9c0.9,0,1.3-0.5,1.3-1.4v-0.2l-6.6-34.3c-0.1-0.2-0.1-0.3,0-0.4
		c0.1-0.1,0.2-0.2,0.4-0.3c4.1-2,6.6-5.3,8.6-8.9c2-3.5,3.3-7.5,3.9-12c0.2-1,0.2-2.5,0.2-4.4c0-6.5-1.8-11.7-5.3-15.6
		c-3.5-3.9-8.4-5.8-14.5-5.8h-6.3l-2.1,16.9L117,261.8z"/>
</g>
</svg>
