<?xml version="1.0" standalone="no"?><!DOCTYPE svg PUBLIC "-//W3C//DTD SVG 1.1//EN" "http://www.w3.org/Graphics/SVG/1.1/DTD/svg11.dtd"><svg t="1631771917060" class="icon" viewBox="0 0 1024 1024" version="1.1" xmlns="http://www.w3.org/2000/svg" p-id="2450" xmlns:xlink="http://www.w3.org/1999/xlink" width="128" height="128"><defs><style type="text/css"></style></defs><path d="M944.982325 393.969146a63.188558 63.188558 0 0 0-126.249204 0.127912v264.458185a63.124602 63.124602 0 1 0 126.377116 0V393.969146zM229.762039 342.99619l0.127912 409.830242c0 37.734058 30.059334 67.793392 67.153831 67.793392h45.408782v140.063706c0 35.175817 28.140653 63.31647 62.676909 63.31647s62.67691-28.140653 63.31647-62.67691v-140.063706h85.061521v140.063706a63.060646 63.060646 0 0 0 125.993379 0v-140.063706h46.048342c37.094498 0 67.153832-30.059334 67.153832-67.153832V342.804322l-564.731747 0.127912z m411.876834-125.097995a23.855599 23.855599 0 1 1 23.727687-23.919555 23.855599 23.855599 0 0 1-23.791643 23.855599m-259.021922 0a23.791643 23.791643 0 1 1 23.855599-23.343951c0 13.430766-10.872525 24.303291-24.303291 24.303291m268.615327-124.074698l44.12966-80.584598c2.558241-4.476922 0.63956-9.593405-3.197801-12.151646a9.33758 9.33758 0 0 0-12.151646 3.837362l-44.769221 81.224158C597.701081 69.712073 555.490101 60.118668 511.36044 60.118668s-86.084817 9.145712-123.435139 25.710325L343.79564 4.604834a8.761976 8.761976 0 0 0-11.895821-3.389669c-4.285054 1.918681-5.756043 7.674724-3.453626 11.512085l44.129661 79.945038c-86.660421 44.769221-145.180189 129.830741-145.180189 227.683467h568.952845c0-97.852726-58.455812-182.914246-144.98832-227.683467M141.694585 330.652676a63.31647 63.31647 0 0 0-63.188558 63.31647v264.394229a63.188558 63.188558 0 1 0 126.377116 0V394.097058a63.124602 63.124602 0 0 0-63.124602-63.124602" p-id="2451"></path></svg>