<?xml version="1.0" encoding="UTF-8"?>
<svg width="29px" height="48px" viewBox="0 0 29 48" version="1.1" xmlns="http://www.w3.org/2000/svg" xmlns:xlink="http://www.w3.org/1999/xlink">
    <title>形状备份 2</title>
    <defs>
        <linearGradient x1="53.4798745%" y1="66.2980792%" x2="38.0760682%" y2="100%" id="linearGradient-1">
            <stop stop-color="#EED1B3" offset="0%"></stop>
            <stop stop-color="#EED1B3" stop-opacity="0" offset="100%"></stop>
            <stop stop-color="#EED1B3" stop-opacity="0" offset="100%"></stop>
        </linearGradient>
    </defs>
    <g id="动物园优化问题修改" stroke="none" stroke-width="1" fill="none" fill-rule="evenodd">
        <g id="不限购/有权益" transform="translate(-42.000000, -488.000000)" fill="url(#linearGradient-1)" fill-rule="nonzero">
            <g id="编组-6" transform="translate(42.000000, 488.000000)">
                <g id="形状备份-2" transform="translate(0.000000, -0.000000)">
                    <path d="M9.54892331,1.23394413 C10.4021001,1.7792705 10.9926014,2.71538425 11.0744861,3.82635551 C11.1451639,4.84311707 10.7680112,5.79296437 10.1152561,6.47413895 C10.9239824,7.24255884 11.6692994,8.074156 12.3511663,8.96870058 C12.2326236,8.39359782 12.2439179,7.76962334 12.408467,7.13636577 C12.7403942,5.85896369 13.6180123,4.8323088 14.7017757,4.28521571 C15.4187475,5.15892334 15.7104241,6.39855199 15.378497,7.67595407 C15.0733484,8.85030043 14.3070054,9.81272616 13.343286,10.3854485 C14.3521779,11.9506331 15.1917258,13.6857922 15.8614297,15.5878987 C15.7603669,14.7088123 15.8926921,13.76811 16.2917375,12.8532482 C16.9952979,11.2402479 18.3651879,10.0712807 19.9065274,9.5768547 C20.674333,10.8711514 20.7940363,12.570328 20.0904759,14.1833284 C19.3869155,15.7963288 18.0170256,16.9652959 16.4756861,17.4597219 L16.4230907,17.3617534 C16.5017409,17.6396983 16.5771201,17.9208516 16.6492277,18.2052106 C16.8992215,19.1910709 17.0851381,20.2732332 17.209546,21.413539 C17.399016,21.0543047 17.6336151,20.7118481 17.9120379,20.3934847 C19.0908753,19.0455395 20.7854665,18.431695 22.4420624,18.5781208 C22.7904191,20.2256521 22.3971922,22.0055055 21.2183547,23.3534508 C20.2085313,24.5081365 18.8202433,25.1241324 17.4015771,25.1849884 C17.3974209,26.640135 17.3103349,28.1210064 17.1440012,29.5624162 C17.7685501,28.4780458 18.7924002,27.5721243 20.1301396,27.0472332 C21.9729524,26.3241655 23.9926008,26.4755053 25.6120424,27.3162816 C25.1839142,28.9557954 23.936758,30.4019307 22.0939452,31.1249984 C20.3758148,31.7991442 18.5039682,31.7058939 16.9460679,31.0155986 C16.6899076,32.6634974 16.3258248,34.2276815 15.8620096,35.6034874 C16.4379599,35.00736 17.1655793,34.5150579 18.0217829,34.1789278 C19.8645957,33.4554727 21.8842441,33.6153058 23.5036857,34.4481204 C23.0755574,36.0885127 21.8284013,37.5354229 19.9855884,38.2588779 C18.2451949,38.9421251 16.3470758,38.8375379 14.7773096,38.1222707 L14.951795,37.79454 C12.9669328,41.647453 9.54683033,44.2532922 4.72511984,45.6041412 L4.28292228,45.7234882 L3.79898843,45.8492182 L3.54752843,44.8813505 L4.03146228,44.7556205 C7.46040147,43.8647539 10.1529549,42.1950572 12.1063684,39.9600696 C10.5918664,39.9376857 9.05007366,39.2558634 7.8848333,37.9352564 C6.57509286,36.4508824 6.02654527,34.5012725 6.26273494,32.6919328 C7.94980247,32.533495 9.73527765,33.210831 11.0450181,34.6952049 C12.1806353,35.982239 12.7380598,37.6211923 12.7173943,39.2117489 C13.2344526,38.5319271 13.6905882,37.8064454 14.0849728,37.0408863 C14.4125483,36.4050135 14.7076558,35.687083 14.9688827,34.9073085 C13.5821768,34.7906126 12.2428974,34.1605 11.2725265,33.0370098 C10.1021323,31.6819338 9.72198099,29.9208869 10.1051493,28.2984635 C11.7842887,28.1830459 13.4833127,28.8228385 14.6617473,30.1754564 C15.1545448,30.7460147 15.5058185,31.3889815 15.7193786,32.0631543 L15.7784366,31.7764521 C15.9781462,30.7502863 16.1317106,29.676317 16.2370472,28.5843459 L16.4136123,28.5763373 C14.7344729,28.6917549 13.0274084,28.0544205 11.8570142,26.6993444 C10.68662,25.3442684 10.3064687,23.5832215 10.6896369,21.9607981 C12.3687763,21.8453805 14.0758408,22.4827149 15.246235,23.837791 C15.8164516,24.4979847 16.1971843,25.2551249 16.394336,26.0453797 C16.4432996,24.2127988 16.3551966,22.3936872 16.1196983,20.7252761 C14.813083,21.2813675 13.3039191,21.34068 11.9035775,20.7700343 C10.2452783,20.0942697 9.113172,18.6918506 8.71228543,17.0778367 C10.156643,16.2120753 11.9675497,16.004415 13.625849,16.6801797 C14.3942534,16.9933081 15.0496785,17.462457 15.5717261,18.0363831 L15.679907,18.4510104 C15.2611266,16.799534 14.7520374,15.2964158 14.1868613,13.9400538 C13.2292451,14.8310502 11.8474338,15.281755 10.3728438,15.0472577 C8.84655012,14.8045382 7.5658541,13.8860296 6.82891609,12.6669226 C7.78939857,11.7149434 9.2162933,11.2235678 10.742587,11.4662873 C12.0416651,11.6675136 13.1611336,12.360241 13.9183972,13.3147004 C13.140517,11.5641188 12.2729639,10.0753324 11.3964376,8.84400768 C10.706068,9.34845824 9.79035788,9.58697934 8.81026155,9.4393499 C7.6356714,9.26242434 6.63418123,8.5734781 6.04253908,7.65490249 C6.75711874,6.9309681 7.83923313,6.55327837 9.01382329,6.73020393 C9.31580896,6.77569127 9.60667244,6.85520763 9.88214382,6.96381164 C9.76708971,6.83987971 9.65422534,6.72091475 9.54221545,6.6063936 L7.43606622,4.72704466 C6.59996814,5.13839008 5.58678171,5.22284589 4.63908582,4.87456134 C3.61566423,4.49844708 2.89774162,3.70337012 2.63297584,2.78450871 C3.50364794,2.28461002 4.60344427,2.15606464 5.62686586,2.5321789 C6.56442736,2.876739 7.24132625,3.57291277 7.55578137,4.39375556 L7.53597795,4.38104503 C7.93902581,4.65907273 8.33026822,4.94888532 8.70970201,5.25046659 C8.54047926,4.88821468 8.43432279,4.4872453 8.40468903,4.0609381 C8.32757667,2.9516101 8.78354799,1.92193478 9.54892331,1.23394413 Z" id="形状备份" transform="translate(14.122509, 23.541581) scale(-1, 1) rotate(7.000000) translate(-14.122509, -23.541581) "></path>
                </g>
            </g>
        </g>
    </g>
</svg>