<?xml version="1.0" standalone="no"?><!DOCTYPE svg PUBLIC "-//W3C//DTD SVG 1.1//EN" "http://www.w3.org/Graphics/SVG/1.1/DTD/svg11.dtd"><svg t="1642582684147" class="icon" viewBox="0 0 1024 1024" version="1.1" xmlns="http://www.w3.org/2000/svg" p-id="4598" xmlns:xlink="http://www.w3.org/1999/xlink" width="64" height="64"><defs><style type="text/css"></style></defs><path d="M512 512m-512 0a512 512 0 1 0 1024 0 512 512 0 1 0-1024 0Z" fill="#F3BA2F" p-id="4599"></path><path d="M379.407835 432.877526L512 300.232577l132.697732 132.697732 77.169484-77.169484L512 145.893608 302.238351 355.708041l77.169484 77.169485M170.543505 487.350103l77.169485-77.169484 77.169484 77.169484-77.169484 77.169485-77.169485-77.169485z m208.86433 54.472577L512 674.467629l132.697732-132.697732 77.222268 77.116701-0.052784 0.052783L512 828.753814l-209.761649-209.761649-0.105567-0.105567 77.275051-77.063918m319.709691-54.419793l77.169484-77.169485 77.169485 77.169485-77.169485 77.169484-77.169484-77.169484z m0 0" fill="#FFFFFF" p-id="4600"></path><path d="M590.277938 487.29732L512 409.019381 454.149278 466.870103l-6.650721 6.650722-13.723712 13.723711-0.105567 0.105567 0.105567 0.105567L512 565.680825l78.277938-78.277938 0.052784-0.052784-0.052784-0.052783" fill="#FFFFFF" p-id="4601"></path></svg>