<?xml version="1.0" standalone="no"?><!DOCTYPE svg PUBLIC "-//W3C//DTD SVG 1.1//EN" "http://www.w3.org/Graphics/SVG/1.1/DTD/svg11.dtd"><svg t="1652866511924" class="icon" viewBox="0 0 1024 1024" version="1.1" xmlns="http://www.w3.org/2000/svg" p-id="3641" xmlns:xlink="http://www.w3.org/1999/xlink" width="64" height="64"><defs><style type="text/css"></style></defs><path d="M512 938.666667a426.666667 426.666667 0 1 0 0-853.333334 426.666667 426.666667 0 0 0 0 853.333334zM512 1024A512 512 0 1 1 512 0a512 512 0 0 1 0 1024zM469.333333 426.666667v341.333333a42.666667 42.666667 0 0 0 85.333334 0v-341.333333a42.666667 42.666667 0 1 0-85.333334 0zM512 213.333333a42.666667 42.666667 0 0 0-42.666667 42.666667v42.666667a42.666667 42.666667 0 0 0 85.333334 0V256A42.666667 42.666667 0 0 0 512 213.333333z" p-id="3642"></path></svg>