<?xml version="1.0" standalone="no"?><!DOCTYPE svg PUBLIC "-//W3C//DTD SVG 1.1//EN" "http://www.w3.org/Graphics/SVG/1.1/DTD/svg11.dtd"><svg t="1648461728884" class="icon" viewBox="0 0 1024 1024" version="1.1" xmlns="http://www.w3.org/2000/svg" p-id="4922" xmlns:xlink="http://www.w3.org/1999/xlink" width="64" height="64"><defs><style type="text/css"></style></defs><path d="M512 146.285714c201.984 0 365.714286 163.730286 365.714286 365.714286s-163.730286 365.714286-365.714286 365.714286S146.285714 713.984 146.285714 512 310.016 146.285714 512 146.285714z m144.237714 186.075429a36.571429 36.571429 0 0 0-1.462857 0c-116.772571 3.437714-198.838857 28.818286-246.198857 76.214857-31.707429 31.670857-51.931429 69.485714-63.853714 118.857143-5.156571 21.650286-9.069714 59.904-11.776 114.761143l-0.548572 11.995428a36.571429 36.571429 0 0 0 37.924572 38.144c116.589714-4.461714 198.290286-30.061714 245.101714-76.909714 34.413714-34.377143 56.795429-78.774857 68.388571-135.606857 4.790857-23.552 7.606857-56.137143 8.411429-97.755429l0.219429-12.8a36.571429 36.571429 0 0 0-36.205715-36.937143z m-68.827428 104.228571c40.740571 40.704 40.045714 107.702857-1.536 149.284572s-108.580571 42.276571-149.284572 1.536c-40.740571-40.704-40.045714-107.702857 1.536-149.284572s108.580571-42.276571 149.284572-1.536z m-36.461715 49.810286a12.726857 12.726857 0 0 0-4.388571 1.901714l-1.828571 1.536a46.262857 46.262857 0 0 1-61.513143 3.584l-3.474286-3.108571a12.690286 12.690286 0 0 0-21.321143 5.997714c-6.838857 28.233143-4.022857 48.64 8.521143 61.110857 24.539429 24.576 64.694857 24.137143 89.6-0.731428 11.483429-11.52 15.140571-29.44 10.934857-53.796572l-1.353143-6.802285a12.726857 12.726857 0 0 0-15.177143-9.691429z" p-id="4923"></path></svg>