<?xml version="1.0" standalone="no"?><!DOCTYPE svg PUBLIC "-//W3C//DTD SVG 1.1//EN" "http://www.w3.org/Graphics/SVG/1.1/DTD/svg11.dtd"><svg t="1649763728458" class="icon" viewBox="0 0 1024 1024" version="1.1" xmlns="http://www.w3.org/2000/svg" p-id="10056" xmlns:xlink="http://www.w3.org/1999/xlink" width="64" height="64"><defs><style type="text/css">@font-face { font-family: feedback-iconfont; src: url("//at.alicdn.com/t/font_1031158_u69w8yhxdu.woff2?t=1630033759944") format("woff2"), url("//at.alicdn.com/t/font_1031158_u69w8yhxdu.woff?t=1630033759944") format("woff"), url("//at.alicdn.com/t/font_1031158_u69w8yhxdu.ttf?t=1630033759944") format("truetype"); }
</style></defs><path d="M174 828.6l260-122.2 443.2-443.2c25-25 25-65.5 0-90.5l-89.9-89.9c-25-25-65.5-25-90.5 0L253.6 526 131.4 786C118.7 813.2 146.9 841.4 174 828.6zM742.1 128l89.9 89.9-90.5 90.5-89.9-89.9L742.1 128zM306.7 563.3l299.6-299.6 89.9 89.9L396.7 653.2 227.1 732.9 306.7 563.3zM96 896l832 0c17.7 0 32 14.3 32 32l0 0c0 17.7-14.3 32-32 32L96 960c-17.7 0-32-14.3-32-32l0 0C64 910.3 78.3 896 96 896z" p-id="10057"></path></svg>