<svg id="图层_1" data-name="图层 1" xmlns="http://www.w3.org/2000/svg" viewBox="0 0 22 22"><path d="M4.78,11.9,9.78,8a2,2,0,0,1,2.44,0l5,3.86A2,2,0,0,1,18,13.48v3a2,2,0,0,1-2,2H13v-4a1,1,0,0,0-1-1H10a1,1,0,0,0-1,1v4H6a2,2,0,0,1-2-2v-3A2,2,0,0,1,4.78,11.9Z"/><path d="M16.07,3.5a1.09,1.09,0,0,1,1.11.91V7.82l2.43,1.87a1,1,0,0,1,.13,1.45,1.21,1.21,0,0,1-1.45.2l-.11-.08-6-4.59a2,2,0,0,0-2.29-.09l-.14.09-6,4.59a1.19,1.19,0,0,1-1.57-.12,1,1,0,0,1,0-1.37l.1-.08L9.88,4.26A2,2,0,0,1,12,4.13l.14.09L15,6.1V4.52A1.07,1.07,0,0,1,16.07,3.5Z"/></svg>