<svg id="layer2" data-name="layer2" xmlns="http://www.w3.org/2000/svg" viewBox="0 0 20 20"><path d="M10.44,13.19l-.64-1.1a.38.38,0,0,1,0-.4l1.4-2.31a.39.39,0,0,1,.54-.14.35.35,0,0,1,.13.14l2.06,3.41a.38.38,0,0,1-.13.54.36.36,0,0,1-.2.06H10.78A.4.4,0,0,1,10.44,13.19ZM6,12.81l1.39-2.39a.4.4,0,0,1,.54-.15.4.4,0,0,1,.14.15l1.39,2.39a.4.4,0,0,1-.15.54.35.35,0,0,1-.19.06H6.33a.4.4,0,0,1-.4-.4A.46.46,0,0,1,6,12.81Zm8.07-7.94H6A1.48,1.48,0,0,0,4.47,6.34v7.32A1.48,1.48,0,0,0,6,15.13h8.1a1.48,1.48,0,0,0,1.48-1.47V6.34A1.48,1.48,0,0,0,14.05,4.87Z"/></svg>