<?xml version="1.0" standalone="no"?><!DOCTYPE svg PUBLIC "-//W3C//DTD SVG 1.1//EN" "http://www.w3.org/Graphics/SVG/1.1/DTD/svg11.dtd"><svg t="1642647015129" class="icon" viewBox="0 0 1293 1024" version="1.1" xmlns="http://www.w3.org/2000/svg" p-id="10645" xmlns:xlink="http://www.w3.org/1999/xlink" width="80.8125" height="64"><defs><style type="text/css"></style></defs><path d="M687.157895 344.495158c47.696842-70.278737 157.210947-70.278737 204.8 0l368.478316 541.372631c30.288842 44.247579-7.060211 98.789053-66.991158 98.196211H46.349474c-35.408842 0-57.990737-32.714105-39.936-58.745263l220.968421-324.392421c28.941474-42.415158 93.992421-42.415158 122.987789 0l81.165474 118.837895zM238.322526 69.254737a155.540211 155.540211 0 0 1 158.935579 0 163.678316 163.678316 0 0 1 79.440842 141.042526c0 58.206316-30.288842 111.993263-79.440842 141.096421-49.205895 29.103158-109.729684 29.103158-158.935579 0a163.678316 163.678316 0 0 1-79.440842-141.096421c0-58.206316 30.288842-111.939368 79.440842-141.042526z" p-id="10646"></path></svg>