<?xml version="1.0" standalone="no"?><!DOCTYPE svg PUBLIC "-//W3C//DTD SVG 1.1//EN" "http://www.w3.org/Graphics/SVG/1.1/DTD/svg11.dtd"><svg t="1631771933519" class="icon" viewBox="0 0 1024 1024" version="1.1" xmlns="http://www.w3.org/2000/svg" p-id="3259" xmlns:xlink="http://www.w3.org/1999/xlink" width="128" height="128"><defs><style type="text/css"></style></defs><path d="M805.062496 544.14399c-1.316477-129.673023 105.757017-191.840011 110.437825-194.98493-60.119134-87.984573-153.808442-100.052282-187.159203-101.441897-79.72002-8.04514-155.563745 46.95436-196.008856 46.95436-40.371973 0-102.831512-45.784158-168.947932-44.613956-86.960646 1.316477-167.119491 50.538104-211.806586 128.429684-90.324977 156.66081-23.18463 388.799657 64.873081 515.912863 43.004928 62.166988 94.347547 132.013428 161.634169 129.526748 64.799943-2.559817 89.374188-41.907864 167.704592-41.907863 78.403543 0 100.41797 41.907864 169.094208 40.664524 69.700164-1.316477 113.948432-63.410328 156.66081-125.796729 49.367902-72.186844 69.700164-142.033283 70.943504-145.617028-1.609028-0.731376-136.035997-52.22027-137.49875-207.125776zM676.120849 163.608885C711.885151 120.238269 736.02057 60.045997 729.438183 0.073138 677.949289 2.194129 615.562888 34.374688 578.555246 77.599029c-33.204485 38.397257-62.166988 99.613456-54.414399 158.416113 57.48618 4.461396 116.142561-29.255053 151.906864-72.406257z" p-id="3260"></path></svg>