<?xml version="1.0" standalone="no"?><!DOCTYPE svg PUBLIC "-//W3C//DTD SVG 1.1//EN" "http://www.w3.org/Graphics/SVG/1.1/DTD/svg11.dtd"><svg t="1648461699109" class="icon" viewBox="0 0 1024 1024" version="1.1" xmlns="http://www.w3.org/2000/svg" p-id="3718" xmlns:xlink="http://www.w3.org/1999/xlink" width="64" height="64"><defs><style type="text/css"></style></defs><path d="M698.837333 213.333333A240.213333 240.213333 0 0 1 938.666667 453.205333c0 78.72-38.442667 134.314667-69.546667 178.816-90.538667 129.066667-316.8 290.133333-326.442667 296.789334a52.693333 52.693333 0 0 1-61.354666 0l-0.896-0.597334c-18.389333-12.885333-237.44-169.386667-325.546667-296.192C123.818667 587.52 85.333333 531.925333 85.333333 453.205333A240.128 240.128 0 0 1 325.162667 213.333333c73.472 0 142.08 33.834667 186.837333 89.429334A241.109333 241.109333 0 0 1 698.837333 213.333333z m0.256 41.386667a34.901333 34.901333 0 0 0-34.090666 34.901333c0 17.28 13.141333 31.744 30.336 33.365334 36.693333 3.541333 63.061333 11.349333 79.146666 23.466666 15.786667 11.861333 30.848 33.749333 45.098667 65.621334a38.997333 38.997333 0 0 0 45.781333 21.76 33.792 33.792 0 0 0 23.466667-41.685334 180.053333 180.053333 0 0 0-70.485333-100.608 191.658667 191.658667 0 0 0-119.253334-36.821333z" p-id="3719"></path></svg>