<?xml version="1.0" standalone="no"?><!DOCTYPE svg PUBLIC "-//W3C//DTD SVG 1.1//EN" "http://www.w3.org/Graphics/SVG/1.1/DTD/svg11.dtd"><svg t="1651651507253" class="icon" viewBox="0 0 1024 1024" version="1.1" xmlns="http://www.w3.org/2000/svg" p-id="2465" xmlns:xlink="http://www.w3.org/1999/xlink" width="200" height="200"><defs><style type="text/css">@font-face { font-family: feedback-iconfont; src: url("//at.alicdn.com/t/font_1031158_u69w8yhxdu.woff2?t=1630033759944") format("woff2"), url("//at.alicdn.com/t/font_1031158_u69w8yhxdu.woff?t=1630033759944") format("woff"), url("//at.alicdn.com/t/font_1031158_u69w8yhxdu.ttf?t=1630033759944") format("truetype"); }
</style></defs><path d="M452.906667 554.666667C579.84 554.666667 682.666667 449.621333 682.666667 320S579.84 85.333333 452.906667 85.333333C326.016 85.333333 223.189333 190.378667 223.189333 320S325.973333 554.666667 452.906667 554.666667z m10.837333 99.541333c14.677333 0 29.184 0.341333 43.434667 0.938667-5.077333 21.845333-17.109333 58.88 2.261333 116.650666 19.413333 57.813333 95.914667 128.512 127.274667 152.362667-50.773333 9.258667-112.341333 14.506667-172.970667 14.506667C254.72 938.666667 85.333333 874.88 85.333333 785.493333c0-67.584 169.386667-131.285333 378.410667-131.285333zM830.72 597.333333c59.562667 0 107.946667 50.688 107.946667 112.896 0 37.034667-17.322667 63.189333-31.317334 84.138667-40.704 60.714667-142.506667 136.533333-146.901333 139.690667a22.869333 22.869333 0 0 1-27.562667 0l-0.810666-0.597334c-10.538667-7.765333-107.008-80.213333-146.090667-139.093333-13.994667-20.906667-31.317333-47.104-31.317333-84.138667C554.666667 648.021333 603.050667 597.333333 662.613333 597.333333c33.024 0 63.914667 15.914667 84.053334 42.069334A106.794667 106.794667 0 0 1 830.72 597.333333z" p-id="2466"></path></svg>