<?xml version="1.0" standalone="no"?><!DOCTYPE svg PUBLIC "-//W3C//DTD SVG 1.1//EN" "http://www.w3.org/Graphics/SVG/1.1/DTD/svg11.dtd"><svg t="1652184545781" class="icon" viewBox="0 0 1024 1024" version="1.1" xmlns="http://www.w3.org/2000/svg" p-id="2309" xmlns:xlink="http://www.w3.org/1999/xlink" width="64" height="64"><defs><style type="text/css">@font-face { font-family: feedback-iconfont; src: url("//at.alicdn.com/t/font_1031158_u69w8yhxdu.woff2?t=1630033759944") format("woff2"), url("//at.alicdn.com/t/font_1031158_u69w8yhxdu.woff?t=1630033759944") format("woff"), url("//at.alicdn.com/t/font_1031158_u69w8yhxdu.ttf?t=1630033759944") format("truetype"); }
</style></defs><path d="M581.056 728.512c-8.576-8.64 0 0 0 0L426.88 891.84c-77.056 77.312-205.44 77.312-282.496 0-76.992-77.44-85.568-197.76 0-283.712L307.2 444.8l-8.576-8.576-51.392-42.944-8.512-8.64-162.624 163.328c-102.72 103.168-102.72 292.288 8.512 395.392 111.296 103.168 291.072 111.744 402.304 0l162.688-163.328-8.576-8.576-59.904-42.944z m51.328-395.456c8.576 0 8.576 0 0 0l51.392 51.584 8.512 8.64-308.16 309.44L332.8 633.92l299.584-300.8zM538.24 83.84a283.328 283.328 0 0 1 402.304 0 286.208 286.208 0 0 1 0 403.968l-162.624 163.328-59.904-60.16 171.136-171.904c59.968-60.16 68.48-197.76-8.512-275.072-77.056-77.44-214.016-77.44-273.92-8.64L435.52 307.328v-8.64l-51.392-51.584-8.512-8.576 162.56-154.688z" p-id="2310"></path></svg>