<svg id="eLlmD8ArnJo1" xmlns="http://www.w3.org/2000/svg" xmlns:xlink="http://www.w3.org/1999/xlink" viewBox="0 0 4335 1024" shape-rendering="geometricPrecision" text-rendering="geometricPrecision"><defs><linearGradient id="eLlmD8ArnJo4-fill" x1="0" y1="0.5" x2="1" y2="0.5" spreadMethod="pad" gradientUnits="objectBoundingBox" gradientTransform="translate(0 0)"><stop id="eLlmD8ArnJo4-fill-0" offset="0%" stop-color="rgba(226,170,111,0)"/><stop id="eLlmD8ArnJo4-fill-1" offset="38%" stop-color="#e2aa6f"/><stop id="eLlmD8ArnJo4-fill-2" offset="62%" stop-color="#e2aa6f"/><stop id="eLlmD8ArnJo4-fill-3" offset="100%" stop-color="rgba(226,170,111,0)"/></linearGradient><linearGradient id="eLlmD8ArnJo6-stroke" x1="0" y1="0.5" x2="1" y2="0.5" spreadMethod="pad" gradientUnits="objectBoundingBox" gradientTransform="translate(0 0)"><stop id="eLlmD8ArnJo6-stroke-0" offset="0%" stop-color="#000"/><stop id="eLlmD8ArnJo6-stroke-1" offset="100%" stop-color="#fff"/></linearGradient><linearGradient id="eLlmD8ArnJo8-fill" x1="0" y1="0.5" x2="1" y2="0.5" spreadMethod="pad" gradientUnits="objectBoundingBox" gradientTransform="translate(0 0)"><stop id="eLlmD8ArnJo8-fill-0" offset="0%" stop-color="rgba(226,170,111,0)"/><stop id="eLlmD8ArnJo8-fill-1" offset="30%" stop-color="#e2aa6f"/><stop id="eLlmD8ArnJo8-fill-2" offset="71%" stop-color="#e2aa6f"/><stop id="eLlmD8ArnJo8-fill-3" offset="100%" stop-color="rgba(226,170,111,0)"/></linearGradient></defs><path d="M1365.690714,37.337335c16.656472-20.868073,26.442252-23.295938,45.105429-4.657536c62.224351,63.694282,46.666198,149.140248,4.665794,226.807139-71.514648,132.624163-229.573583,316.695931-229.573583,496.300098c0,98.353287,28.737988,125.291021,88.625313,158.174547-26.384446-74.760059-6.259596-189.439496,70.507167-300.278943c124.448701-178.654492,247.328374-250.111334,326.671647-250.111334c60.66358,0,91.779885,48.152646,91.779884,102.531856c23.32897-38.837574,43.552916-69.912588,54.437017-85.445966c12.44487-18.638402,24.88974-23.304196,37.33461-9.32333c24.88974,27.96999,35.782098,93.208526,1.56077,170.883674-31.116304,69.912588-124.167928,189.579883-147.777671,270.310507-17.721759,60.581-5.44205,104.010046,42.77666,99.344251c99.558961-9.315072,230.630612-158.380998,303.747321-386.740648-126.001213-45.047622,5.037406-256.32964,67.253498-260.987176c48.226968-3.105024,39.085315,79.22766,6.416499,186.417052c55.997786-6.210048,107.139844-23.295938,166.250913-63.686024c21.776458-15.541636,79.789207-38.837574,93.786589-23.304196c29.563792,32.619268,19.769754,124.28354-25.343933,177.093722-73.108451,83.885196-136.389831,166.969362-163.211952,244.388511-21.355298,61.646288-11.239196,123.713735,36.979514,126.827017c53.512116,3.815216,107.164618-31.909076,152.179208-108.964871-3.559216-51.55496,10.603327-102.688759,44.056657-130.204557c18.663176-15.533378,31.108046-9.32333,32.668816,15.533378.04129.371612.074322.858836.082581,1.4369v1.304771c-.255999,22.709617-13.980866,144.928647,75.420702,209.514797c94.108653,67.996722,136.802733-19.959689,136.802733-69.078526c0-49.135353-82.811651-297.289531-75.032575-357.870531c7.779076-60.589258,11.833775-86.10661,44.502592-115.629112c34.221328-31.066756,91.664272-33.445072,118.750651-14.839703s47.871873,72.084453,34.452554,101.326182c-4.005151,8.737009-18.976982-3.592249-36.442742-15.492087l-2.568251-1.734189c-24.592451-16.400472-53.214826-29.927146-63.107961,17.226276-17.358405,82.72907,44.147495,214.213623,60.721387,290.542711c16.573891,76.337345,11.107067,124.911151-5.466825,165.548979-5.450308,13.378029-17.837372,32.090753-37.136417,56.138173c40.918601-1.800253,75.866637-7.985527,104.852366-18.555822.024774-2.452639.049548-5.433792.049549-9.02604c0-24.096968,9.7032-22.007683,19.348593-54.131469c30.546499-89.946599,158.554417-393.000244,258.22899-542.371718c20.892848-30.521725,45.006332-28.911407,61.084741,0c13.760456,22.767812,20.988727,48.883868,20.892848,75.486767c0,11.247454,0,22.48665-1.602061,32.123786c69.119816-64.247571,146.282966-117.247688,204.155328-117.247688c46.61665,0,90.012664,56.212496,90.012664,117.247688c0,34.180038-27.061605,83.381456-75.379413,167.960327l-4.987857,8.720493c-51.447605,81.919782-106.099331,187.920016-106.099331,247.353148c0,33.725846,24.113484,54.610435,45.006332,54.610435c54.659984,0,127.892305-38.672413,173.831795-86.296544c48.326065-50.11806,42.892273-29.307793,24.171291,3.716119l-1.569028,2.749928c-3.716119,6.449531-7.894689,13.295448-12.221903,20.116592l-1.874576,2.915089-2.82425,4.360246c-1.891092,2.890315-3.7987,5.755856-5.681534,8.555332-53.140504,78.583533-137.157829,122.466771-202.644105,122.466771-107.693133,0-156.043972-65.734019-156.043972-149.255861c0-86.734221,73.942513-234.503634,136.637572-334.087369c33.758878-53.000117,59.474422-94.761038,48.226968-94.761038-14.468091,0-93.2333,44.9733-181.652162,144.557035-64.387958,67.831561-106.834296,178.084687-157.893773,284.291372-19.051304,39.638604-38.532026,73.182773-64.321893,96.825549-23.865743,21.883813-56.443721,36.021582-81.54817,17.622663-8.514042,8.241526-16.978535,15.343443-24.633741,20.133107-45.73304,28.630633-87.642605,42.305952-155.994424,41.224149-70.028201-1.106578-200.505273-38.977961-253.398035-135.299769l-.404644-.751482c-46.426715,71.407294-123.234769,119.890262-195.591738,117.264204-118.230395-4.657536-176.226628-112.763571-138.900275-237.038853c31.116304-102.531856,98.774447-213.701625,204.22965-291.145548-68.442657,40.390086-128.916302,48.160904-177.135013,48.160904-76.221733,219.03632-222.645085,462.937607-389.09419,475.365961-85.553321,6.210048-132.219519-48.160904-130.667007-127.388564-42.826209,54.80037-100.624248,107.305005-164.483691,120.897742-30.612564,14.030414-239.260266,22.073748-300.014686-32.586235-50.53922-45.468782-50.010706-92.820398-49.919867-164.475434l.008258-7.50656c0-84.644936,14.121253-210.654407,142.112654-400.325128l1.552512-2.295736-3.063734,4.360246C1032.297021,647.185519,953.383166,803.320329,808.710519,985.236748l-4.740116,5.937533c-7.779076,15.533378-65.279826,18.572338-77.724697,9.249008-51.331992-37.285062-43.45382-90.02918-27.895667-186.34273c12.320999-77.922889,53.553406-253.290681,109.914546-435.058455l3.864764-12.40358c6.49952-20.748234,13.166731-41.443566,20.000979-62.083964C693.684245,512.703296,630.138607,677.368665,484.557575,834.271473C338.968285,991.174281,12.131477,1003.602635,1.23912,991.174281c-21.776458-23.304196,293.383477-86.18919,443.101788-261.590014C528.102233,631.462206,707.689885,270.354521,875.683244,42.00313c13.997382-20.199172,29.563792-26.40922,49.779481-9.323331c60.66358,52.81844,77.774245,107.189392,37.326352,229.912163-49.771222,149.140248-128.949334,292.31819-175.615533,571.679511c47.937937-65.172472,96.016261-132.277325,143.90465-199.745533l19.1504-27.003799l19.117369-27.020316l19.092594-27.020315c130.36146-184.542476,258.361119-367.177345,377.252157-516.144175Zm329.330737,405.461631c-48.226968-3.105024-161.775053,96.31355-247.328374,233.017186-84.009067,133.598612-101.119731,268.749736-40.447893,270.310507c62.224351,1.552512,143.111877-93.208526,222.446892-233.025445c96.445679-169.331162,110.443061-267.197224,65.329375-270.302248ZM1255.239395,330.94378c-12.752724,17.029137-25.137155,34.330996-37.144675,51.893539l-2.708638,3.980377l2.840767-4.029925c11.891581-16.838149,24.212581-34.105716,37.012546-51.843991ZM3796.635471,113.798551c52.645021-92.490076,125.497472-129.733848,218.458257-107.569262c29.183922,6.969788,69.268461,28.077345,90.565953,70.771425c29.175664,58.466941-6.870691,85.231257-27.284573,73.719546-20.413881-11.519969-97.684385-54.123211-121.781353-36.913451-42.619758,30.422629-66.229501,63.000607-84.388937,98.964382-18.167694,35.972033-48.111356,92.357948-66.708468,142.0053c10.091328,0,40.125829,3.939086,99.443349,0c38.028286-2.526961,79.285466-6.689014,123.14393-10.628101c47.921421-81.50688,100.285669-153.368366,135.440156-203.758942c24.113484-35.344422,43.404272-33.734104,61.092998-3.220636c11.247454,19.282529,17.672211,46.583618,17.672211,65.857889c0,20.174398-13.956092,55.807851-28.944439,90.78892l-3.014185,6.978046c-4.954826,11.462163-9.942683,22.742649-14.484607,33.255137l7.779076-.107355l10.438166-.08258c40.274473-.132129,39.068799.412902,61.80319,6.755079c25.864189,7.068884,38.498994,23.618002,56.129915,49.672126c17.630921,26.045866-32.916558,41.306729-62.348221,37.805318-29.439922-3.493152-31.595271-11.503453-68.128851-11.503453-17.234535,0-36.15371.594579-56.377656,1.618576-58.97894,101.598697-115.100597,210.885632-169.587162,329.091254-19.290787,43.371239-28.936181,85.132161-28.936181,120.468324c0,48.185678,16.078409,81.919782,43.404272,81.919782c62.695059,0,146.282966-101.194053,202.545009-221.662378c17.680469-38.548543,54.659984-41.760921,65.907438,1.610319c8.043333,33.725846,1.610318,57.822814-16.070151,94.761038-22.511424,48.185678-130.212815,186.317956-265.248326,186.317956-85.189967,0-159.13248-69.06201-159.13248-179.893199c0-35.336164,9.637136-80.309464,32.140301-133.309581c32.156818-78.699145,75.561089-157.827709,139.858209-273.473337l-3.666571,6.606434c-49.729932,4.574956-101.152763,9.471975-150.915727,13.361513-21.875555,1.709415-44.238334,3.815216-67.113112,6.325661-38.317317,107.321521-67.534272,189.00182-87.650864,245.057412-30.183145,84.066873-81.383009,212.149113-124.184443,277.767519-37.846609,58.021007-111.549639,27.515798-82.084943-16.739052c36.236291-54.437016,91.152274-215.237621,120.352712-309.205887c20.16614-64.908214,35.369196-118.023944,45.617427-159.371963-26.103672,0-58.136619,18.382403-83.885196,44.494333s-63.834669,52.43857-77.6256,44.453043c-10.223457-5.921017,1.379093-54.519597,18.316338-94.818844c19.051304-45.328395,53.792889-76.155668,89.905309-91.680788c36.120678-15.533378,86.081835-23.320712,93.588396-24.196065c34.303909-107.643584,64.148474-161.263055,115.959434-252.2832Z" fill="#3d464f" stroke-width="13" stroke-linecap="round" stroke-linejoin="round"/><g mask="url(#eLlmD8ArnJo5)"><rect id="eLlmD8ArnJo4" width="4333.76088" height="1023.998474" rx="0" ry="0" transform="translate(3735.567871 0)" fill="url(#eLlmD8ArnJo4-fill)" stroke-width="0"/><mask id="eLlmD8ArnJo5" mask-type="alpha"><path d="M1365.690714,37.337335c16.656472-20.868073,26.442252-23.295938,45.105429-4.657536c62.224351,63.694282,46.666198,149.140248,4.665794,226.807139-71.514648,132.624163-229.573583,316.695931-229.573583,496.300098c0,98.353287,28.737988,125.291021,88.625313,158.174547-26.384446-74.760059-6.259596-189.439496,70.507167-300.278943c124.448701-178.654492,247.328374-250.111334,326.671647-250.111334c60.66358,0,91.779885,48.152646,91.779884,102.531856c23.32897-38.837574,43.552916-69.912588,54.437017-85.445966c12.44487-18.638402,24.88974-23.304196,37.33461-9.32333c24.88974,27.96999,35.782098,93.208526,1.56077,170.883674-31.116304,69.912588-124.167928,189.579883-147.777671,270.310507-17.721759,60.581-5.44205,104.010046,42.77666,99.344251c99.558961-9.315072,230.630612-158.380998,303.747321-386.740648-126.001213-45.047622,5.037406-256.32964,67.253498-260.987176c48.226968-3.105024,39.085315,79.22766,6.416499,186.417052c55.997786-6.210048,107.139844-23.295938,166.250913-63.686024c21.776458-15.541636,79.789207-38.837574,93.786589-23.304196c29.563792,32.619268,19.769754,124.28354-25.343933,177.093722-73.108451,83.885196-136.389831,166.969362-163.211952,244.388511-21.355298,61.646288-11.239196,123.713735,36.979514,126.827017c53.512116,3.815216,107.164618-31.909076,152.179208-108.964871-3.559216-51.55496,10.603327-102.688759,44.056657-130.204557c18.663176-15.533378,31.108046-9.32333,32.668816,15.533378.04129.371612.074322.858836.082581,1.4369v1.304771c-.255999,22.709617-13.980866,144.928647,75.420702,209.514797c94.108653,67.996722,136.802733-19.959689,136.802733-69.078526c0-49.135353-82.811651-297.289531-75.032575-357.870531c7.779076-60.589258,11.833775-86.10661,44.502592-115.629112c34.221328-31.066756,91.664272-33.445072,118.750651-14.839703s47.871873,72.084453,34.452554,101.326182c-4.005151,8.737009-18.976982-3.592249-36.442742-15.492087l-2.568251-1.734189c-24.592451-16.400472-53.214826-29.927146-63.107961,17.226276-17.358405,82.72907,44.147495,214.213623,60.721387,290.542711c16.573891,76.337345,11.107067,124.911151-5.466825,165.548979-5.450308,13.378029-17.837372,32.090753-37.136417,56.138173c40.918601-1.800253,75.866637-7.985527,104.852366-18.555822.024774-2.452639.049548-5.433792.049549-9.02604c0-24.096968,9.7032-22.007683,19.348593-54.131469c30.546499-89.946599,158.554417-393.000244,258.22899-542.371718c20.892848-30.521725,45.006332-28.911407,61.084741,0c13.760456,22.767812,20.988727,48.883868,20.892848,75.486767c0,11.247454,0,22.48665-1.602061,32.123786c69.119816-64.247571,146.282966-117.247688,204.155328-117.247688c46.61665,0,90.012664,56.212496,90.012664,117.247688c0,34.180038-27.061605,83.381456-75.379413,167.960327l-4.987857,8.720493c-51.447605,81.919782-106.099331,187.920016-106.099331,247.353148c0,33.725846,24.113484,54.610435,45.006332,54.610435c54.659984,0,127.892305-38.672413,173.831795-86.296544c48.326065-50.11806,42.892273-29.307793,24.171291,3.716119l-1.569028,2.749928c-3.716119,6.449531-7.894689,13.295448-12.221903,20.116592l-1.874576,2.915089-2.82425,4.360246c-1.891092,2.890315-3.7987,5.755856-5.681534,8.555332-53.140504,78.583533-137.157829,122.466771-202.644105,122.466771-107.693133,0-156.043972-65.734019-156.043972-149.255861c0-86.734221,73.942513-234.503634,136.637572-334.087369c33.758878-53.000117,59.474422-94.761038,48.226968-94.761038-14.468091,0-93.2333,44.9733-181.652162,144.557035-64.387958,67.831561-106.834296,178.084687-157.893773,284.291372-19.051304,39.638604-38.532026,73.182773-64.321893,96.825549-23.865743,21.883813-56.443721,36.021582-81.54817,17.622663-8.514042,8.241526-16.978535,15.343443-24.633741,20.133107-45.73304,28.630633-87.642605,42.305952-155.994424,41.224149-70.028201-1.106578-200.505273-38.977961-253.398035-135.299769l-.404644-.751482c-46.426715,71.407294-123.234769,119.890262-195.591738,117.264204-118.230395-4.657536-176.226628-112.763571-138.900275-237.038853c31.116304-102.531856,98.774447-213.701625,204.22965-291.145548-68.442657,40.390086-128.916302,48.160904-177.135013,48.160904-76.221733,219.03632-222.645085,462.937607-389.09419,475.365961-85.553321,6.210048-132.219519-48.160904-130.667007-127.388564-42.826209,54.80037-100.624248,107.305005-164.483691,120.897742-30.612564,14.030414-239.260266,22.073748-300.014686-32.586235-50.53922-45.468782-50.010706-92.820398-49.919867-164.475434l.008258-7.50656c0-84.644936,14.121253-210.654407,142.112654-400.325128l1.552512-2.295736-3.063734,4.360246C1032.297021,647.185519,953.383166,803.320329,808.710519,985.236748l-4.740116,5.937533c-7.779076,15.533378-65.279826,18.572338-77.724697,9.249008-51.331992-37.285062-43.45382-90.02918-27.895667-186.34273c12.320999-77.922889,53.553406-253.290681,109.914546-435.058455l3.864764-12.40358c6.49952-20.748234,13.166731-41.443566,20.000979-62.083964C693.684245,512.703296,630.138607,677.368665,484.557575,834.271473C338.968285,991.174281,12.131477,1003.602635,1.23912,991.174281c-21.776458-23.304196,293.383477-86.18919,443.101788-261.590014C528.102233,631.462206,707.689885,270.354521,875.683244,42.00313c13.997382-20.199172,29.563792-26.40922,49.779481-9.323331c60.66358,52.81844,77.774245,107.189392,37.326352,229.912163-49.771222,149.140248-128.949334,292.31819-175.615533,571.679511c47.937937-65.172472,96.016261-132.277325,143.90465-199.745533l19.1504-27.003799l19.117369-27.020316l19.092594-27.020315c130.36146-184.542476,258.361119-367.177345,377.252157-516.144175Zm329.330737,405.461631c-48.226968-3.105024-161.775053,96.31355-247.328374,233.017186-84.009067,133.598612-101.119731,268.749736-40.447893,270.310507c62.224351,1.552512,143.111877-93.208526,222.446892-233.025445c96.445679-169.331162,110.443061-267.197224,65.329375-270.302248ZM1255.239395,330.94378c-12.752724,17.029137-25.137155,34.330996-37.144675,51.893539l-2.708638,3.980377l2.840767-4.029925c11.891581-16.838149,24.212581-34.105716,37.012546-51.843991ZM3796.635471,113.798551c52.645021-92.490076,125.497472-129.733848,218.458257-107.569262c29.183922,6.969788,69.268461,28.077345,90.565953,70.771425c29.175664,58.466941-6.870691,85.231257-27.284573,73.719546-20.413881-11.519969-97.684385-54.123211-121.781353-36.913451-42.619758,30.422629-66.229501,63.000607-84.388937,98.964382-18.167694,35.972033-48.111356,92.357948-66.708468,142.0053c10.091328,0,40.125829,3.939086,99.443349,0c38.028286-2.526961,79.285466-6.689014,123.14393-10.628101c47.921421-81.50688,100.285669-153.368366,135.440156-203.758942c24.113484-35.344422,43.404272-33.734104,61.092998-3.220636c11.247454,19.282529,17.672211,46.583618,17.672211,65.857889c0,20.174398-13.956092,55.807851-28.944439,90.78892l-3.014185,6.978046c-4.954826,11.462163-9.942683,22.742649-14.484607,33.255137l7.779076-.107355l10.438166-.08258c40.274473-.132129,39.068799.412902,61.80319,6.755079c25.864189,7.068884,38.498994,23.618002,56.129915,49.672126c17.630921,26.045866-32.916558,41.306729-62.348221,37.805318-29.439922-3.493152-31.595271-11.503453-68.128851-11.503453-17.234535,0-36.15371.594579-56.377656,1.618576-58.97894,101.598697-115.100597,210.885632-169.587162,329.091254-19.290787,43.371239-28.936181,85.132161-28.936181,120.468324c0,48.185678,16.078409,81.919782,43.404272,81.919782c62.695059,0,146.282966-101.194053,202.545009-221.662378c17.680469-38.548543,54.659984-41.760921,65.907438,1.610319c8.043333,33.725846,1.610318,57.822814-16.070151,94.761038-22.511424,48.185678-130.212815,186.317956-265.248326,186.317956-85.189967,0-159.13248-69.06201-159.13248-179.893199c0-35.336164,9.637136-80.309464,32.140301-133.309581c32.156818-78.699145,75.561089-157.827709,139.858209-273.473337l-3.666571,6.606434c-49.729932,4.574956-101.152763,9.471975-150.915727,13.361513-21.875555,1.709415-44.238334,3.815216-67.113112,6.325661-38.317317,107.321521-67.534272,189.00182-87.650864,245.057412-30.183145,84.066873-81.383009,212.149113-124.184443,277.767519-37.846609,58.021007-111.549639,27.515798-82.084943-16.739052c36.236291-54.437016,91.152274-215.237621,120.352712-309.205887c20.16614-64.908214,35.369196-118.023944,45.617427-159.371963-26.103672,0-58.136619,18.382403-83.885196,44.494333s-63.834669,52.43857-77.6256,44.453043c-10.223457-5.921017,1.379093-54.519597,18.316338-94.818844c19.051304-45.328395,53.792889-76.155668,89.905309-91.680788c36.120678-15.533378,86.081835-23.320712,93.588396-24.196065c34.303909-107.643584,64.148474-161.263055,115.959434-252.2832Z" fill="none" stroke="url(#eLlmD8ArnJo6-stroke)" stroke-width="13"/></mask></g><g mask="url(#eLlmD8ArnJo9)"><rect id="eLlmD8ArnJo8" width="4333.76088" height="1023.998474" rx="0" ry="0" transform="matrix(1.454461 0 0 1.000005-4717.284412-.00256)" fill="url(#eLlmD8ArnJo8-fill)" stroke-width="0"/><mask id="eLlmD8ArnJo9" mask-type="alpha"><path d="M1365.690714,37.337335c16.656472-20.868073,26.442252-23.295938,45.105429-4.657536c62.224351,63.694282,46.666198,149.140248,4.665794,226.807139-71.514648,132.624163-229.573583,316.695931-229.573583,496.300098c0,98.353287,28.737988,125.291021,88.625313,158.174547-26.384446-74.760059-6.259596-189.439496,70.507167-300.278943c124.448701-178.654492,247.328374-250.111334,326.671647-250.111334c60.66358,0,91.779885,48.152646,91.779884,102.531856c23.32897-38.837574,43.552916-69.912588,54.437017-85.445966c12.44487-18.638402,24.88974-23.304196,37.33461-9.32333c24.88974,27.96999,35.782098,93.208526,1.56077,170.883674-31.116304,69.912588-124.167928,189.579883-147.777671,270.310507-17.721759,60.581-5.44205,104.010046,42.77666,99.344251c99.558961-9.315072,230.630612-158.380998,303.747321-386.740648-126.001213-45.047622,5.037406-256.32964,67.253498-260.987176c48.226968-3.105024,39.085315,79.22766,6.416499,186.417052c55.997786-6.210048,107.139844-23.295938,166.250913-63.686024c21.776458-15.541636,79.789207-38.837574,93.786589-23.304196c29.563792,32.619268,19.769754,124.28354-25.343933,177.093722-73.108451,83.885196-136.389831,166.969362-163.211952,244.388511-21.355298,61.646288-11.239196,123.713735,36.979514,126.827017c53.512116,3.815216,107.164618-31.909076,152.179208-108.964871-3.559216-51.55496,10.603327-102.688759,44.056657-130.204557c18.663176-15.533378,31.108046-9.32333,32.668816,15.533378.04129.371612.074322.858836.082581,1.4369v1.304771c-.255999,22.709617-13.980866,144.928647,75.420702,209.514797c94.108653,67.996722,136.802733-19.959689,136.802733-69.078526c0-49.135353-82.811651-297.289531-75.032575-357.870531c7.779076-60.589258,11.833775-86.10661,44.502592-115.629112c34.221328-31.066756,91.664272-33.445072,118.750651-14.839703s47.871873,72.084453,34.452554,101.326182c-4.005151,8.737009-18.976982-3.592249-36.442742-15.492087l-2.568251-1.734189c-24.592451-16.400472-53.214826-29.927146-63.107961,17.226276-17.358405,82.72907,44.147495,214.213623,60.721387,290.542711c16.573891,76.337345,11.107067,124.911151-5.466825,165.548979-5.450308,13.378029-17.837372,32.090753-37.136417,56.138173c40.918601-1.800253,75.866637-7.985527,104.852366-18.555822.024774-2.452639.049548-5.433792.049549-9.02604c0-24.096968,9.7032-22.007683,19.348593-54.131469c30.546499-89.946599,158.554417-393.000244,258.22899-542.371718c20.892848-30.521725,45.006332-28.911407,61.084741,0c13.760456,22.767812,20.988727,48.883868,20.892848,75.486767c0,11.247454,0,22.48665-1.602061,32.123786c69.119816-64.247571,146.282966-117.247688,204.155328-117.247688c46.61665,0,90.012664,56.212496,90.012664,117.247688c0,34.180038-27.061605,83.381456-75.379413,167.960327l-4.987857,8.720493c-51.447605,81.919782-106.099331,187.920016-106.099331,247.353148c0,33.725846,24.113484,54.610435,45.006332,54.610435c54.659984,0,127.892305-38.672413,173.831795-86.296544c48.326065-50.11806,42.892273-29.307793,24.171291,3.716119l-1.569028,2.749928c-3.716119,6.449531-7.894689,13.295448-12.221903,20.116592l-1.874576,2.915089-2.82425,4.360246c-1.891092,2.890315-3.7987,5.755856-5.681534,8.555332-53.140504,78.583533-137.157829,122.466771-202.644105,122.466771-107.693133,0-156.043972-65.734019-156.043972-149.255861c0-86.734221,73.942513-234.503634,136.637572-334.087369c33.758878-53.000117,59.474422-94.761038,48.226968-94.761038-14.468091,0-93.2333,44.9733-181.652162,144.557035-64.387958,67.831561-106.834296,178.084687-157.893773,284.291372-19.051304,39.638604-38.532026,73.182773-64.321893,96.825549-23.865743,21.883813-56.443721,36.021582-81.54817,17.622663-8.514042,8.241526-16.978535,15.343443-24.633741,20.133107-45.73304,28.630633-87.642605,42.305952-155.994424,41.224149-70.028201-1.106578-200.505273-38.977961-253.398035-135.299769l-.404644-.751482c-46.426715,71.407294-123.234769,119.890262-195.591738,117.264204-118.230395-4.657536-176.226628-112.763571-138.900275-237.038853c31.116304-102.531856,98.774447-213.701625,204.22965-291.145548-68.442657,40.390086-128.916302,48.160904-177.135013,48.160904-76.221733,219.03632-222.645085,462.937607-389.09419,475.365961-85.553321,6.210048-132.219519-48.160904-130.667007-127.388564-42.826209,54.80037-100.624248,107.305005-164.483691,120.897742-30.612564,14.030414-239.260266,22.073748-300.014686-32.586235-50.53922-45.468782-50.010706-92.820398-49.919867-164.475434l.008258-7.50656c0-84.644936,14.121253-210.654407,142.112654-400.325128l1.552512-2.295736-3.063734,4.360246C1032.297021,647.185519,953.383166,803.320329,808.710519,985.236748l-4.740116,5.937533c-7.779076,15.533378-65.279826,18.572338-77.724697,9.249008-51.331992-37.285062-43.45382-90.02918-27.895667-186.34273c12.320999-77.922889,53.553406-253.290681,109.914546-435.058455l3.864764-12.40358c6.49952-20.748234,13.166731-41.443566,20.000979-62.083964C693.684245,512.703296,630.138607,677.368665,484.557575,834.271473C338.968285,991.174281,12.131477,1003.602635,1.23912,991.174281c-21.776458-23.304196,293.383477-86.18919,443.101788-261.590014C528.102233,631.462206,707.689885,270.354521,875.683244,42.00313c13.997382-20.199172,29.563792-26.40922,49.779481-9.323331c60.66358,52.81844,77.774245,107.189392,37.326352,229.912163-49.771222,149.140248-128.949334,292.31819-175.615533,571.679511c47.937937-65.172472,96.016261-132.277325,143.90465-199.745533l19.1504-27.003799l19.117369-27.020316l19.092594-27.020315c130.36146-184.542476,258.361119-367.177345,377.252157-516.144175Zm329.330737,405.461631c-48.226968-3.105024-161.775053,96.31355-247.328374,233.017186-84.009067,133.598612-101.119731,268.749736-40.447893,270.310507c62.224351,1.552512,143.111877-93.208526,222.446892-233.025445c96.445679-169.331162,110.443061-267.197224,65.329375-270.302248ZM1255.239395,330.94378c-12.752724,17.029137-25.137155,34.330996-37.144675,51.893539l-2.708638,3.980377l2.840767-4.029925c11.891581-16.838149,24.212581-34.105716,37.012546-51.843991ZM3796.635471,113.798551c52.645021-92.490076,125.497472-129.733848,218.458257-107.569262c29.183922,6.969788,69.268461,28.077345,90.565953,70.771425c29.175664,58.466941-6.870691,85.231257-27.284573,73.719546-20.413881-11.519969-97.684385-54.123211-121.781353-36.913451-42.619758,30.422629-66.229501,63.000607-84.388937,98.964382-18.167694,35.972033-48.111356,92.357948-66.708468,142.0053c10.091328,0,40.125829,3.939086,99.443349,0c38.028286-2.526961,79.285466-6.689014,123.14393-10.628101c47.921421-81.50688,100.285669-153.368366,135.440156-203.758942c24.113484-35.344422,43.404272-33.734104,61.092998-3.220636c11.247454,19.282529,17.672211,46.583618,17.672211,65.857889c0,20.174398-13.956092,55.807851-28.944439,90.78892l-3.014185,6.978046c-4.954826,11.462163-9.942683,22.742649-14.484607,33.255137l7.779076-.107355l10.438166-.08258c40.274473-.132129,39.068799.412902,61.80319,6.755079c25.864189,7.068884,38.498994,23.618002,56.129915,49.672126c17.630921,26.045866-32.916558,41.306729-62.348221,37.805318-29.439922-3.493152-31.595271-11.503453-68.128851-11.503453-17.234535,0-36.15371.594579-56.377656,1.618576-58.97894,101.598697-115.100597,210.885632-169.587162,329.091254-19.290787,43.371239-28.936181,85.132161-28.936181,120.468324c0,48.185678,16.078409,81.919782,43.404272,81.919782c62.695059,0,146.282966-101.194053,202.545009-221.662378c17.680469-38.548543,54.659984-41.760921,65.907438,1.610319c8.043333,33.725846,1.610318,57.822814-16.070151,94.761038-22.511424,48.185678-130.212815,186.317956-265.248326,186.317956-85.189967,0-159.13248-69.06201-159.13248-179.893199c0-35.336164,9.637136-80.309464,32.140301-133.309581c32.156818-78.699145,75.561089-157.827709,139.858209-273.473337l-3.666571,6.606434c-49.729932,4.574956-101.152763,9.471975-150.915727,13.361513-21.875555,1.709415-44.238334,3.815216-67.113112,6.325661-38.317317,107.321521-67.534272,189.00182-87.650864,245.057412-30.183145,84.066873-81.383009,212.149113-124.184443,277.767519-37.846609,58.021007-111.549639,27.515798-82.084943-16.739052c36.236291-54.437016,91.152274-215.237621,120.352712-309.205887c20.16614-64.908214,35.369196-118.023944,45.617427-159.371963-26.103672,0-58.136619,18.382403-83.885196,44.494333s-63.834669,52.43857-77.6256,44.453043c-10.223457-5.921017,1.379093-54.519597,18.316338-94.818844c19.051304-45.328395,53.792889-76.155668,89.905309-91.680788c36.120678-15.533378,86.081835-23.320712,93.588396-24.196065c34.303909-107.643584,64.148474-161.263055,115.959434-252.2832Z" fill="#3d464f"/></mask></g><script><![CDATA[!function(t,n){"object"==typeof exports&&"undefined"!=typeof module?module.exports=n():"function"==typeof define&&define.amd?define(n):((t="undefined"!=typeof globalThis?globalThis:t||self).__SVGATOR_PLAYER__=t.__SVGATOR_PLAYER__||{},t.__SVGATOR_PLAYER__["5c7f360c"]=n())}(this,(function(){"use strict";function t(t,n){var r=Object.keys(t);if(Object.getOwnPropertySymbols){var e=Object.getOwnPropertySymbols(t);n&&(e=e.filter((function(n){return Object.getOwnPropertyDescriptor(t,n).enumerable}))),r.push.apply(r,e)}return r}function n(n){for(var r=1;r<arguments.length;r++){var e=null!=arguments[r]?arguments[r]:{};r%2?t(Object(e),!0).forEach((function(t){u(n,t,e[t])})):Object.getOwnPropertyDescriptors?Object.defineProperties(n,Object.getOwnPropertyDescriptors(e)):t(Object(e)).forEach((function(t){Object.defineProperty(n,t,Object.getOwnPropertyDescriptor(e,t))}))}return n}function r(t){return(r="function"==typeof Symbol&&"symbol"==typeof Symbol.iterator?function(t){return typeof t}:function(t){return t&&"function"==typeof Symbol&&t.constructor===Symbol&&t!==Symbol.prototype?"symbol":typeof t})(t)}function e(t,n){if(!(t instanceof n))throw new TypeError("Cannot call a class as a function")}function i(t,n){for(var r=0;r<n.length;r++){var e=n[r];e.enumerable=e.enumerable||!1,e.configurable=!0,"value"in e&&(e.writable=!0),Object.defineProperty(t,e.key,e)}}function o(t,n,r){return n&&i(t.prototype,n),r&&i(t,r),t}function u(t,n,r){return n in t?Object.defineProperty(t,n,{value:r,enumerable:!0,configurable:!0,writable:!0}):t[n]=r,t}function a(t){return(a=Object.setPrototypeOf?Object.getPrototypeOf:function(t){return t.__proto__||Object.getPrototypeOf(t)})(t)}function l(t,n){return(l=Object.setPrototypeOf||function(t,n){return t.__proto__=n,t})(t,n)}function f(){if("undefined"==typeof Reflect||!Reflect.construct)return!1;if(Reflect.construct.sham)return!1;if("function"==typeof Proxy)return!0;try{return Boolean.prototype.valueOf.call(Reflect.construct(Boolean,[],(function(){}))),!0}catch(t){return!1}}function s(t,n,r){return(s=f()?Reflect.construct:function(t,n,r){var e=[null];e.push.apply(e,n);var i=new(Function.bind.apply(t,e));return r&&l(i,r.prototype),i}).apply(null,arguments)}function c(t,n){if(n&&("object"==typeof n||"function"==typeof n))return n;if(void 0!==n)throw new TypeError("Derived constructors may only return object or undefined");return function(t){if(void 0===t)throw new ReferenceError("this hasn't been initialised - super() hasn't been called");return t}(t)}function h(t,n,r){return(h="undefined"!=typeof Reflect&&Reflect.get?Reflect.get:function(t,n,r){var e=function(t,n){for(;!Object.prototype.hasOwnProperty.call(t,n)&&null!==(t=a(t)););return t}(t,n);if(e){var i=Object.getOwnPropertyDescriptor(e,n);return i.get?i.get.call(r):i.value}})(t,n,r||t)}function v(t){return function(t){if(Array.isArray(t))return y(t)}(t)||function(t){if("undefined"!=typeof Symbol&&null!=t[Symbol.iterator]||null!=t["@@iterator"])return Array.from(t)}(t)||function(t,n){if(!t)return;if("string"==typeof t)return y(t,n);var r=Object.prototype.toString.call(t).slice(8,-1);"Object"===r&&t.constructor&&(r=t.constructor.name);if("Map"===r||"Set"===r)return Array.from(t);if("Arguments"===r||/^(?:Ui|I)nt(?:8|16|32)(?:Clamped)?Array$/.test(r))return y(t,n)}(t)||function(){throw new TypeError("Invalid attempt to spread non-iterable instance.\nIn order to be iterable, non-array objects must have a [Symbol.iterator]() method.")}()}function y(t,n){(null==n||n>t.length)&&(n=t.length);for(var r=0,e=new Array(n);r<n;r++)e[r]=t[r];return e}Number.isInteger||(Number.isInteger=function(t){return"number"==typeof t&&isFinite(t)&&Math.floor(t)===t}),Number.EPSILON||(Number.EPSILON=2220446049250313e-31);var g=p(Math.pow(10,-6));function p(t){var n=arguments.length>1&&void 0!==arguments[1]?arguments[1]:6;if(Number.isInteger(t))return t;var r=Math.pow(10,n);return Math.round((+t+Number.EPSILON)*r)/r}function d(t,n){var r=arguments.length>2&&void 0!==arguments[2]?arguments[2]:g;return Math.abs(t-n)<r}var m=Math.PI/180;function b(t){return t}function w(t,n,r){var e=1-r;return 3*r*e*(t*e+n*r)+r*r*r}function x(){var t=arguments.length>0&&void 0!==arguments[0]?arguments[0]:0,n=arguments.length>1&&void 0!==arguments[1]?arguments[1]:0,r=arguments.length>2&&void 0!==arguments[2]?arguments[2]:1,e=arguments.length>3&&void 0!==arguments[3]?arguments[3]:1;return t<0||t>1||r<0||r>1?null:d(t,n)&&d(r,e)?b:function(i){if(i<=0)return t>0?i*n/t:0===n&&r>0?i*e/r:0;if(i>=1)return r<1?1+(i-1)*(e-1)/(r-1):1===r&&t<1?1+(i-1)*(n-1)/(t-1):1;for(var o,u=0,a=1;u<a;){var l=w(t,r,o=(u+a)/2);if(d(i,l))break;l<i?u=o:a=o}return w(n,e,o)}}function A(){return 1}function k(t){return 1===t?1:0}function _(){var t=arguments.length>0&&void 0!==arguments[0]?arguments[0]:1,n=arguments.length>1&&void 0!==arguments[1]?arguments[1]:0;if(1===t){if(0===n)return k;if(1===n)return A}var r=1/t;return function(t){return t>=1?1:(t+=n*r)-t%r}}var S=Math.sin,O=Math.cos,j=Math.acos,M=Math.asin,P=Math.tan,E=Math.atan2,I=Math.PI/180,R=180/Math.PI,F=Math.sqrt,N=function(){function t(){var n=arguments.length>0&&void 0!==arguments[0]?arguments[0]:1,r=arguments.length>1&&void 0!==arguments[1]?arguments[1]:0,i=arguments.length>2&&void 0!==arguments[2]?arguments[2]:0,o=arguments.length>3&&void 0!==arguments[3]?arguments[3]:1,u=arguments.length>4&&void 0!==arguments[4]?arguments[4]:0,a=arguments.length>5&&void 0!==arguments[5]?arguments[5]:0;e(this,t),this.m=[n,r,i,o,u,a],this.i=null,this.w=null,this.s=null}return o(t,[{key:"determinant",get:function(){var t=this.m;return t[0]*t[3]-t[1]*t[2]}},{key:"isIdentity",get:function(){if(null===this.i){var t=this.m;this.i=1===t[0]&&0===t[1]&&0===t[2]&&1===t[3]&&0===t[4]&&0===t[5]}return this.i}},{key:"point",value:function(t,n){var r=this.m;return{x:r[0]*t+r[2]*n+r[4],y:r[1]*t+r[3]*n+r[5]}}},{key:"translateSelf",value:function(){var t=arguments.length>0&&void 0!==arguments[0]?arguments[0]:0,n=arguments.length>1&&void 0!==arguments[1]?arguments[1]:0;if(!t&&!n)return this;var r=this.m;return r[4]+=r[0]*t+r[2]*n,r[5]+=r[1]*t+r[3]*n,this.w=this.s=this.i=null,this}},{key:"rotateSelf",value:function(){var t=arguments.length>0&&void 0!==arguments[0]?arguments[0]:0;if(t%=360){var n=S(t*=I),r=O(t),e=this.m,i=e[0],o=e[1];e[0]=i*r+e[2]*n,e[1]=o*r+e[3]*n,e[2]=e[2]*r-i*n,e[3]=e[3]*r-o*n,this.w=this.s=this.i=null}return this}},{key:"scaleSelf",value:function(){var t=arguments.length>0&&void 0!==arguments[0]?arguments[0]:1,n=arguments.length>1&&void 0!==arguments[1]?arguments[1]:1;if(1!==t||1!==n){var r=this.m;r[0]*=t,r[1]*=t,r[2]*=n,r[3]*=n,this.w=this.s=this.i=null}return this}},{key:"skewSelf",value:function(t,n){if(n%=360,(t%=360)||n){var r=this.m,e=r[0],i=r[1],o=r[2],u=r[3];t&&(t=P(t*I),r[2]+=e*t,r[3]+=i*t),n&&(n=P(n*I),r[0]+=o*n,r[1]+=u*n),this.w=this.s=this.i=null}return this}},{key:"resetSelf",value:function(){var t=arguments.length>0&&void 0!==arguments[0]?arguments[0]:1,n=arguments.length>1&&void 0!==arguments[1]?arguments[1]:0,r=arguments.length>2&&void 0!==arguments[2]?arguments[2]:0,e=arguments.length>3&&void 0!==arguments[3]?arguments[3]:1,i=arguments.length>4&&void 0!==arguments[4]?arguments[4]:0,o=arguments.length>5&&void 0!==arguments[5]?arguments[5]:0,u=this.m;return u[0]=t,u[1]=n,u[2]=r,u[3]=e,u[4]=i,u[5]=o,this.w=this.s=this.i=null,this}},{key:"recomposeSelf",value:function(){var t=arguments.length>0&&void 0!==arguments[0]?arguments[0]:null,n=arguments.length>1&&void 0!==arguments[1]?arguments[1]:null,r=arguments.length>2&&void 0!==arguments[2]?arguments[2]:null,e=arguments.length>3&&void 0!==arguments[3]?arguments[3]:null,i=arguments.length>4&&void 0!==arguments[4]?arguments[4]:null;return this.isIdentity||this.resetSelf(),t&&(t.x||t.y)&&this.translateSelf(t.x,t.y),n&&this.rotateSelf(n),r&&(r.x&&this.skewSelf(r.x,0),r.y&&this.skewSelf(0,r.y)),!e||1===e.x&&1===e.y||this.scaleSelf(e.x,e.y),i&&(i.x||i.y)&&this.translateSelf(i.x,i.y),this}},{key:"decompose",value:function(){var t=arguments.length>0&&void 0!==arguments[0]?arguments[0]:0,n=arguments.length>1&&void 0!==arguments[1]?arguments[1]:0,r=this.m,e=r[0]*r[0]+r[1]*r[1],i=[[r[0],r[1]],[r[2],r[3]]],o=F(e);if(0===o)return{origin:{x:p(r[4]),y:p(r[5])},translate:{x:p(t),y:p(n)},scale:{x:0,y:0},skew:{x:0,y:0},rotate:0};i[0][0]/=o,i[0][1]/=o;var u=r[0]*r[3]-r[1]*r[2]<0;u&&(o=-o);var a=i[0][0]*i[1][0]+i[0][1]*i[1][1];i[1][0]-=i[0][0]*a,i[1][1]-=i[0][1]*a;var l=F(i[1][0]*i[1][0]+i[1][1]*i[1][1]);if(0===l)return{origin:{x:p(r[4]),y:p(r[5])},translate:{x:p(t),y:p(n)},scale:{x:p(o),y:0},skew:{x:0,y:0},rotate:0};i[1][0]/=l,i[1][1]/=l,a/=l;var f=0;return i[1][1]<0?(f=j(i[1][1])*R,i[0][1]<0&&(f=360-f)):f=M(i[0][1])*R,u&&(f=-f),a=E(a,F(i[0][0]*i[0][0]+i[0][1]*i[0][1]))*R,u&&(a=-a),{origin:{x:p(r[4]),y:p(r[5])},translate:{x:p(t),y:p(n)},scale:{x:p(o),y:p(l)},skew:{x:p(a),y:0},rotate:p(f)}}},{key:"clone",value:function(){var t=this.m;return new this.constructor(t[0],t[1],t[2],t[3],t[4],t[5])}},{key:"toString",value:function(){var t=arguments.length>0&&void 0!==arguments[0]?arguments[0]:" ";if(null===this.s){var n=this.m.map((function(t){return p(t)}));1===n[0]&&0===n[1]&&0===n[2]&&1===n[3]?this.s="translate("+n[4]+t+n[5]+")":this.s="matrix("+n.join(t)+")"}return this.s}}],[{key:"create",value:function(t){return t?Array.isArray(t)?s(this,v(t)):t instanceof this?t.clone():(new this).recomposeSelf(t.origin,t.rotate,t.skew,t.scale,t.translate):new this}}]),t}();function T(t,n,r){return t>=.5?r:n}function q(t,n,r){return 0===t||n===r?n:t*(r-n)+n}function B(t,n,r){var e=q(t,n,r);return e<=0?0:e}function L(t,n,r){var e=q(t,n,r);return e<=0?0:e>=1?1:e}function C(t,n,r){return 0===t?n:1===t?r:{x:q(t,n.x,r.x),y:q(t,n.y,r.y)}}function D(t,n,r){var e=function(t,n,r){return Math.round(q(t,n,r))}(t,n,r);return e<=0?0:e>=255?255:e}function z(t,n,r){return 0===t?n:1===t?r:{r:D(t,n.r,r.r),g:D(t,n.g,r.g),b:D(t,n.b,r.b),a:q(t,null==n.a?1:n.a,null==r.a?1:r.a)}}function V(t,n){for(var r=[],e=0;e<t;e++)r.push(n);return r}function G(t,n){if(--n<=0)return t;var r=(t=Object.assign([],t)).length;do{for(var e=0;e<r;e++)t.push(t[e])}while(--n>0);return t}var Y,$=function(){function t(n){e(this,t),this.list=n,this.length=n.length}return o(t,[{key:"setAttribute",value:function(t,n){for(var r=this.list,e=0;e<this.length;e++)r[e].setAttribute(t,n)}},{key:"removeAttribute",value:function(t){for(var n=this.list,r=0;r<this.length;r++)n[r].removeAttribute(t)}},{key:"style",value:function(t,n){for(var r=this.list,e=0;e<this.length;e++)r[e].style[t]=n}}]),t}(),U=/-./g,Q=function(t,n){return n.toUpperCase()};function H(t){return"function"==typeof t?t:T}function J(t){return t?"function"==typeof t?t:Array.isArray(t)?function(t){var n=arguments.length>1&&void 0!==arguments[1]?arguments[1]:b;if(!Array.isArray(t))return n;switch(t.length){case 1:return _(t[0])||n;case 2:return _(t[0],t[1])||n;case 4:return x(t[0],t[1],t[2],t[3])||n}return n}(t,null):function(t,n){var r=arguments.length>2&&void 0!==arguments[2]?arguments[2]:b;switch(t){case"linear":return b;case"steps":return _(n.steps||1,n.jump||0)||r;case"bezier":case"cubic-bezier":return x(n.x1||0,n.y1||0,n.x2||0,n.y2||0)||r}return r}(t.type,t.value,null):null}function Z(t,n,r){var e=arguments.length>3&&void 0!==arguments[3]&&arguments[3],i=n.length-1;if(t<=n[0].t)return e?[0,0,n[0].v]:n[0].v;if(t>=n[i].t)return e?[i,1,n[i].v]:n[i].v;var o,u=n[0],a=null;for(o=1;o<=i;o++){if(!(t>n[o].t)){a=n[o];break}u=n[o]}return null==a?e?[i,1,n[i].v]:n[i].v:u.t===a.t?e?[o,1,a.v]:a.v:(t=(t-u.t)/(a.t-u.t),u.e&&(t=u.e(t)),e?[o,t,r(t,u.v,a.v)]:r(t,u.v,a.v))}function K(t,n){var r=arguments.length>2&&void 0!==arguments[2]?arguments[2]:null;return t&&t.length?"function"!=typeof n?null:("function"!=typeof r&&(r=null),function(e){var i=Z(e,t,n);return null!=i&&r&&(i=r(i)),i}):null}function W(t,n){return t.t-n.t}function X(t,n,e,i,o){var u,a="@"===e[0],l="#"===e[0],f=Y[e],s=T;switch(a?(u=e.substr(1),e=u.replace(U,Q)):l&&(e=e.substr(1)),r(f)){case"function":if(s=f(i,o,Z,J,e,a,n,t),l)return s;break;case"string":s=K(i,H(f));break;case"object":if((s=K(i,H(f.i),f.f))&&"function"==typeof f.u)return f.u(n,s,e,a,t)}return s?function(t,n,r){if(arguments.length>3&&void 0!==arguments[3]&&arguments[3])return t instanceof $?function(e){return t.style(n,r(e))}:function(e){return t.style[n]=r(e)};if(Array.isArray(n)){var e=n.length;return function(i){var o=r(i);if(null==o)for(var u=0;u<e;u++)t[u].removeAttribute(n);else for(var a=0;a<e;a++)t[a].setAttribute(n,o)}}return function(e){var i=r(e);null==i?t.removeAttribute(n):t.setAttribute(n,i)}}(n,e,s,a):null}function tt(t,n,e,i){if(!i||"object"!==r(i))return null;var o=null,u=null;return Array.isArray(i)?u=function(t){if(!t||!t.length)return null;for(var n=0;n<t.length;n++)t[n].e&&(t[n].e=J(t[n].e));return t.sort(W)}(i):(u=i.keys,o=i.data||null),u?X(t,n,e,u,o):null}function nt(t,n,r){if(!r)return null;var e=[];for(var i in r)if(r.hasOwnProperty(i)){var o=tt(t,n,i,r[i]);o&&e.push(o)}return e.length?e:null}function rt(t,n){if(!n.duration||n.duration<0)return null;var r=function(t,n){if(!n)return null;var r=[];if(Array.isArray(n))for(var e=n.length,i=0;i<e;i++){var o=n[i];if(2===o.length){var u=null;if("string"==typeof o[0])u=t.getElementById(o[0]);else if(Array.isArray(o[0])){u=[];for(var a=0;a<o[0].length;a++)if("string"==typeof o[0][a]){var l=t.getElementById(o[0][a]);l&&u.push(l)}u=u.length?1===u.length?u[0]:new $(u):null}if(u){var f=nt(t,u,o[1]);f&&(r=r.concat(f))}}}else for(var s in n)if(n.hasOwnProperty(s)){var c=t.getElementById(s);if(c){var h=nt(t,c,n[s]);h&&(r=r.concat(h))}}return r.length?r:null}(t,n.elements);return r?function(t,n){var r=arguments.length>2&&void 0!==arguments[2]?arguments[2]:1/0,e=arguments.length>3&&void 0!==arguments[3]?arguments[3]:1,i=arguments.length>4&&void 0!==arguments[4]&&arguments[4],o=arguments.length>5&&void 0!==arguments[5]?arguments[5]:1,u=t.length,a=e>0?n:0;i&&r%2==0&&(a=n-a);var l=null;return function(f,s){var c=f%n,h=1+(f-c)/n;s*=e,i&&h%2==0&&(s=-s);var v=!1;if(h>r)c=a,v=!0,-1===o&&(c=e>0?0:n);else if(s<0&&(c=n-c),c===l)return!1;l=c;for(var y=0;y<u;y++)t[y](c);return v}}(r,n.duration,n.iterations||1/0,n.direction||1,!!n.alternate,n.fill||1):null}function et(t){return+("0x"+(t.replace(/[^0-9a-fA-F]+/g,"")||27))}function it(t,n,r){return!t||!r||n>t.length?t:t.substring(0,n)+it(t.substring(n+1),r,r)}function ot(t){var n=arguments.length>1&&void 0!==arguments[1]?arguments[1]:27;return!t||t%n?t%n:ot(t/n,n)}function ut(t,n,r){if(t&&t.length){var e=et(r),i=et(n),o=ot(e)+5,u=it(t,ot(e,5),o);return u=u.replace(/\x7c$/g,"==").replace(/\x2f$/g,"="),u=function(t,n,r){var e=+("0x"+t.substring(0,4));t=t.substring(4);for(var i=n%e+r%27,o=[],u=0;u<t.length;u+=2)if("|"!==t[u]){var a=+("0x"+t[u]+t[u+1])-i;o.push(a)}else{var l=+("0x"+t.substring(u+1,u+1+4))-i;u+=3,o.push(l)}return String.fromCharCode.apply(String,o)}(u=(u=atob(u)).replace(/[\x41-\x5A]/g,""),i,e),u=JSON.parse(u)}}var at=function(){function t(n,r){var i=arguments.length>2&&void 0!==arguments[2]?arguments[2]:{};e(this,t),this._id=0,this._running=!1,this._rollingBack=!1,this._animations=n,this.duration=r.duration,this.alternate=r.alternate,this.fill=r.fill,this.iterations=r.iterations,this.direction=i.direction||1,this.speed=i.speed||1,this.fps=i.fps||100,this.offset=i.offset||0,this.rollbackStartOffset=0}return o(t,[{key:"maxFiniteDuration",get:function(){return this.iterations>0?this.iterations*this.duration:this.duration}},{key:"_apply",value:function(t){for(var n=arguments.length>1&&void 0!==arguments[1]?arguments[1]:{},r=this._animations,e=r.length,i=0,o=0;o<e;o++)n[o]?i++:(n[o]=r[o](t,this.direction),n[o]&&i++);return i}},{key:"_rollback",value:function(){var t=this,n=1/0,r=null;this.rollbackStartOffset=this.offset,this._rollingBack=!0,this._running=!0;this._id=window.requestAnimationFrame((function e(i){if(t._rollingBack){null==r&&(r=i);var o=i-r,u=t.rollbackStartOffset-o,a=Math.round(u*t.speed);if(a>t.duration&&n!==1/0){var l=!!t.alternate&&a/t.duration%2>1,f=a%t.duration;a=(f+=l?t.duration:0)||t.duration}var s=t.fps?1e3/t.fps:0,c=Math.max(0,a);c<n-s&&(t.offset=c,n=c,t._apply(c));var h=t.iterations>0&&-1===t.fill&&a>=t.maxFiniteDuration;(a<=0||t.offset<a||h)&&t.stop(),t._id=window.requestAnimationFrame(e)}}))}},{key:"_start",value:function(){var t=this,n=arguments.length>0&&void 0!==arguments[0]?arguments[0]:0,r=-1/0,e=null,i={};this._running=!0;var o=function o(u){null==e&&(e=u);var a=Math.round((u-e+n)*t.speed),l=t.fps?1e3/t.fps:0;if(a>r+l&&!t._rollingBack&&(t.offset=a,r=a,t._apply(a,i)===t._animations.length))return void t.pause(!0);t._id=window.requestAnimationFrame(o)};this._id=window.requestAnimationFrame(o)}},{key:"_pause",value:function(){this._id&&window.cancelAnimationFrame(this._id),this._running=!1}},{key:"play",value:function(){if(!this._running)return this._rollingBack?this._rollback():this._start(this.offset)}},{key:"stop",value:function(){this._pause(),this.offset=0,this.rollbackStartOffset=0,this._rollingBack=!1,this._apply(0)}},{key:"reachedToEnd",value:function(){return this.iterations>0&&this.offset>=this.iterations*this.duration}},{key:"restart",value:function(){var t=arguments.length>0&&void 0!==arguments[0]&&arguments[0];this.stop(t),this.play(t)}},{key:"pause",value:function(){this._pause()}},{key:"reverse",value:function(){this.direction=-this.direction}}],[{key:"build",value:function(t,r){return delete t.animationSettings,t.options=ut(t.options,t.root,"5c7f360c"),t.animations.map((function(r){var e=ut(r.s,t.root,"5c7f360c");for(var i in delete r.s,t.animationSettings||(t.animationSettings=n({},e)),e)e.hasOwnProperty(i)&&(r[i]=e[i])})),(t=function(t,n){if(Y=n,!t||!t.root||!Array.isArray(t.animations))return null;for(var r=document.getElementsByTagName("svg"),e=!1,i=0;i<r.length;i++)if(r[i].id===t.root&&!r[i].svgatorAnimation){(e=r[i]).svgatorAnimation=!0;break}if(!e)return null;var o=t.animations.map((function(t){return rt(e,t)})).filter((function(t){return!!t}));return o.length?{element:e,animations:o,animationSettings:t.animationSettings,options:t.options||void 0}:null}(t,r))?{el:t.element,options:t.options||{},player:new this(t.animations,t.animationSettings,t.options)}:null}},{key:"push",value:function(t){return this.build(t)}},{key:"init",value:function(){var t=this,n=window.__SVGATOR_PLAYER__&&window.__SVGATOR_PLAYER__["5c7f360c"];Array.isArray(n)&&n.splice(0).forEach((function(n){return t.build(n)}))}}]),t}();function lt(t){return p(t)+""}function ft(t){var n=arguments.length>1&&void 0!==arguments[1]?arguments[1]:" ";return t&&t.length?t.map(lt).join(n):""}function st(t){if(!t)return"transparent";if(null==t.a||t.a>=1){var n=function(t){return 1===(t=parseInt(t).toString(16)).length?"0"+t:t},r=function(t){return t.charAt(0)===t.charAt(1)},e=n(t.r),i=n(t.g),o=n(t.b);return r(e)&&r(i)&&r(o)&&(e=e.charAt(0),i=i.charAt(0),o=o.charAt(0)),"#"+e+i+o}return"rgba("+t.r+","+t.g+","+t.b+","+t.a+")"}function ct(t){return t?"url(#"+t+")":"none"}!function(){for(var t=0,n=["ms","moz","webkit","o"],r=0;r<n.length&&!window.requestAnimationFrame;++r)window.requestAnimationFrame=window[n[r]+"RequestAnimationFrame"],window.cancelAnimationFrame=window[n[r]+"CancelAnimationFrame"]||window[n[r]+"CancelRequestAnimationFrame"];window.requestAnimationFrame||(window.requestAnimationFrame=function(n){var r=Date.now(),e=Math.max(0,16-(r-t)),i=window.setTimeout((function(){n(r+e)}),e);return t=r+e,i},window.cancelAnimationFrame=window.clearTimeout)}();var ht={f:null,i:function(t,n,r){return 0===t?n:1===t?r:{x:B(t,n.x,r.x),y:B(t,n.y,r.y)}},u:function(t,n){return function(r){var e=n(r);t.setAttribute("rx",lt(e.x)),t.setAttribute("ry",lt(e.y))}}},vt={f:null,i:function(t,n,r){return 0===t?n:1===t?r:{width:B(t,n.width,r.width),height:B(t,n.height,r.height)}},u:function(t,n){return function(r){var e=n(r);t.setAttribute("width",lt(e.width)),t.setAttribute("height",lt(e.height))}}};Object.freeze({M:2,L:2,Z:0,H:1,V:1,C:6,Q:4,T:2,S:4,A:7});var yt={},gt=null;function pt(t){var n=function(){if(gt)return gt;if("object"!==("undefined"==typeof document?"undefined":r(document))||!document.createElementNS)return{};var t=document.createElementNS("http://www.w3.org/2000/svg","svg");return t&&t.style?(t.style.position="absolute",t.style.opacity="0.01",t.style.zIndex="-9999",t.style.left="-9999px",t.style.width="1px",t.style.height="1px",gt={svg:t}):{}}().svg;if(!n)return function(t){return null};var e=document.createElementNS(n.namespaceURI,"path");e.setAttributeNS(null,"d",t),e.setAttributeNS(null,"fill","none"),e.setAttributeNS(null,"stroke","none"),n.appendChild(e);var i=e.getTotalLength();return function(t){var n=e.getPointAtLength(i*t);return{x:n.x,y:n.y}}}function dt(t){return yt[t]?yt[t]:yt[t]=pt(t)}function mt(t,n,r,e){if(!t||!e)return!1;var i=["M",t.x,t.y];if(n&&r&&(i.push("C"),i.push(n.x),i.push(n.y),i.push(r.x),i.push(r.y)),n?!r:r){var o=n||r;i.push("Q"),i.push(o.x),i.push(o.y)}return n||r||i.push("L"),i.push(e.x),i.push(e.y),i.join(" ")}function bt(t,n,r,e){var i=arguments.length>4&&void 0!==arguments[4]?arguments[4]:1,o=mt(t,n,r,e),u=dt(o);try{return u(i)}catch(t){return null}}function wt(t,n,r){return t+(n-t)*r}function xt(t,n,r){var e=arguments.length>3&&void 0!==arguments[3]&&arguments[3],i={x:wt(t.x,n.x,r),y:wt(t.y,n.y,r)};return e&&(i.a=At(t,n)),i}function At(t,n){return Math.atan2(n.y-t.y,n.x-t.x)}function kt(t,n,r,e){var i=1-e;return i*i*t+2*i*e*n+e*e*r}function _t(t,n,r,e){return 2*(1-e)*(n-t)+2*e*(r-n)}function St(t,n,r,e){var i=arguments.length>4&&void 0!==arguments[4]&&arguments[4],o=bt(t,n,null,r,e);return o||(o={x:kt(t.x,n.x,r.x,e),y:kt(t.y,n.y,r.y,e)}),i&&(o.a=Ot(t,n,r,e)),o}function Ot(t,n,r,e){return Math.atan2(_t(t.y,n.y,r.y,e),_t(t.x,n.x,r.x,e))}function jt(t,n,r,e,i){var o=i*i;return i*o*(e-t+3*(n-r))+3*o*(t+r-2*n)+3*i*(n-t)+t}function Mt(t,n,r,e,i){var o=1-i;return 3*(o*o*(n-t)+2*o*i*(r-n)+i*i*(e-r))}function Pt(t,n,r,e,i){var o=arguments.length>5&&void 0!==arguments[5]&&arguments[5],u=bt(t,n,r,e,i);return u||(u={x:jt(t.x,n.x,r.x,e.x,i),y:jt(t.y,n.y,r.y,e.y,i)}),o&&(u.a=Et(t,n,r,e,i)),u}function Et(t,n,r,e,i){return Math.atan2(Mt(t.y,n.y,r.y,e.y,i),Mt(t.x,n.x,r.x,e.x,i))}function It(t,n,r){var e=arguments.length>3&&void 0!==arguments[3]&&arguments[3];if(Ft(n)){if(Nt(r))return St(n,r.start,r,t,e)}else if(Ft(r)){if(n.end)return St(n,n.end,r,t,e)}else{if(n.end)return r.start?Pt(n,n.end,r.start,r,t,e):St(n,n.end,r,t,e);if(r.start)return St(n,r.start,r,t,e)}return xt(n,r,t,e)}function Rt(t,n,r){var e=It(t,n,r,!0);return e.a=function(t){return arguments.length>1&&void 0!==arguments[1]&&arguments[1]?t+Math.PI:t}(e.a)/m,e}function Ft(t){return!t.type||"corner"===t.type}function Nt(t){return null!=t.start&&!Ft(t)}var Tt=new N;var qt={f:lt,i:q},Bt={f:lt,i:L};function Lt(t,n,r){return t.map((function(t){return function(t,n,r){var e=t.v;if(!e||"g"!==e.t||e.s||!e.v||!e.r)return t;var i=r.getElementById(e.r),o=i&&i.querySelectorAll("stop")||[];return e.s=e.v.map((function(t,n){var r=o[n]&&o[n].getAttribute("offset");return{c:t,o:r=p(parseInt(r)/100)}})),delete e.v,t}(t,0,r)}))}var Ct={gt:"gradientTransform",c:{x:"cx",y:"cy"},rd:"r",f:{x:"x1",y:"y1"},to:{x:"x2",y:"y2"}};function Dt(t,n,e,i,o,u,a,l){return Lt(t,0,l),n=function(t,n,r){for(var e,i,o,u=t.length-1,a={},l=0;l<=u;l++)(e=t[l]).e&&(e.e=n(e.e)),e.v&&"g"===(i=e.v).t&&i.r&&(o=r.getElementById(i.r))&&(a[i.r]={e:o,s:o.querySelectorAll("stop")});return a}(t,i,l),function(i){var o=e(i,t,zt);if(!o)return"none";if("c"===o.t)return st(o.v);if("g"===o.t){if(!n[o.r])return ct(o.r);var u=n[o.r];return function(t,n){for(var r=t.s,e=r.length;e<n.length;e++){var i=r[r.length-1].cloneNode();i.id=Yt(i.id),t.e.appendChild(i),r=t.s=t.e.querySelectorAll("stop")}for(var o=0,u=r.length,a=n.length-1;o<u;o++)r[o].setAttribute("stop-color",st(n[Math.min(o,a)].c)),r[o].setAttribute("offset",n[Math.min(o,a)].o)}(u,o.s),Object.keys(Ct).forEach((function(t){if(void 0!==o[t])if("object"!==r(Ct[t])){var n,e="gt"===t?(n=o[t],Array.isArray(n)?"matrix("+n.join(" ")+")":""):o[t],i=Ct[t];u.e.setAttribute(i,e)}else Object.keys(Ct[t]).forEach((function(n){if(void 0!==o[t][n]){var r=o[t][n],e=Ct[t][n];u.e.setAttribute(e,r)}}))})),ct(o.r)}return"none"}}function zt(t,r,e){if(0===t)return r;if(1===t)return e;if(r&&e){var i=r.t;if(i===e.t)switch(r.t){case"c":return{t:i,v:z(t,r.v,e.v)};case"g":if(r.r===e.r){var o={t:i,s:Vt(t,r.s,e.s),r:r.r};return r.gt&&e.gt&&(o.gt=function(t,n,r){var e=n.length;if(e!==r.length)return T(t,n,r);for(var i=new Array(e),o=0;o<e;o++)i[o]=q(t,n[o],r[o]);return i}(t,r.gt,e.gt)),r.c?(o.c=C(t,r.c,e.c),o.rd=B(t,r.rd,e.rd)):r.f&&(o.f=C(t,r.f,e.f),o.to=C(t,r.to,e.to)),o}}if("c"===r.t&&"g"===e.t||"c"===e.t&&"g"===r.t){var u="c"===r.t?r:e,a="g"===r.t?n({},r):n({},e),l=a.s.map((function(t){return{c:u.v,o:t.o}}));return a.s="c"===r.t?Vt(t,l,a.s):Vt(t,a.s,l),a}}return T(t,r,e)}function Vt(t,n,r){if(n.length===r.length)return n.map((function(n,e){return Gt(t,n,r[e])}));for(var e=Math.max(n.length,r.length),i=[],o=0;o<e;o++){var u=Gt(t,n[Math.min(o,n.length-1)],r[Math.min(o,r.length-1)]);i.push(u)}return i}function Gt(t,n,r){return{o:L(t,n.o,r.o||0),c:z(t,n.c,r.c||{})}}function Yt(t){return t.replace(/-fill-([0-9]+)$/,(function(t,n){return"-fill-"+(+n+1)}))}var $t={fill:Dt,"fill-opacity":Bt,stroke:Dt,"stroke-opacity":Bt,"stroke-width":qt,"stroke-dashoffset":{f:lt,i:q},"stroke-dasharray":{f:function(t){var n=arguments.length>1&&void 0!==arguments[1]?arguments[1]:" ";return t&&t.length>0&&(t=t.map((function(t){return p(t,4)}))),ft(t,n)},i:function(t,n,r){var e,i,o,u=n.length,a=r.length;if(u!==a)if(0===u)n=V(u=a,0);else if(0===a)a=u,r=V(u,0);else{var l=(o=(e=u)*(i=a)/function(t,n){for(var r;n;)r=n,n=t%n,t=r;return t||1}(e,i))<0?-o:o;n=G(n,Math.floor(l/u)),r=G(r,Math.floor(l/a)),u=a=l}for(var f=[],s=0;s<u;s++)f.push(p(B(t,n[s],r[s])));return f}},opacity:Bt,transform:function(t,n,e,i){if(!(t=function(t,n){if(!t||"object"!==r(t))return null;var e=!1;for(var i in t)t.hasOwnProperty(i)&&(t[i]&&t[i].length?(t[i].forEach((function(t){t.e&&(t.e=n(t.e))})),e=!0):delete t[i]);return e?t:null}(t,i)))return null;var o=function(r,i,o){var u=arguments.length>3&&void 0!==arguments[3]?arguments[3]:null;return t[r]?e(i,t[r],o):n&&n[r]?n[r]:u};return n&&n.a&&t.o?function(n){var r=e(n,t.o,Rt);return Tt.recomposeSelf(r,o("r",n,q,0)+r.a,o("k",n,C),o("s",n,C),o("t",n,C)).toString()}:function(t){return Tt.recomposeSelf(o("o",t,It,null),o("r",t,q,0),o("k",t,C),o("s",t,C),o("t",t,C)).toString()}},r:qt,"#size":vt,"#radius":ht,_:function(t,n){if(Array.isArray(t))for(var r=0;r<t.length;r++)this[t[r]]=n;else this[t]=n}},Ut=function(t){!function(t,n){if("function"!=typeof n&&null!==n)throw new TypeError("Super expression must either be null or a function");t.prototype=Object.create(n&&n.prototype,{constructor:{value:t,writable:!0,configurable:!0}}),n&&l(t,n)}(u,t);var n,r,i=(n=u,r=f(),function(){var t,e=a(n);if(r){var i=a(this).constructor;t=Reflect.construct(e,arguments,i)}else t=e.apply(this,arguments);return c(this,t)});function u(){return e(this,u),i.apply(this,arguments)}return o(u,null,[{key:"build",value:function(t){var n=h(a(u),"build",this).call(this,t,$t);if(!n)return null;n.el,n.options,function(t,n,r){t.play()}(n.player)}}]),u}(at);return Ut.init(),Ut}));
(function(s,i,o,w,a,b){w[o]=w[o]||{};w[o][s]=w[o][s]||[];w[o][s].push(i);})('5c7f360c',{"root":"eLlmD8ArnJo1","animations":[{"elements":{"eLlmD8ArnJo4":{"transform":{"data":{"t":{"x":-2166.88044,"y":-511.999237}},"keys":{"o":[{"t":0,"v":{"x":5902.448311,"y":511.999237,"type":"corner"}},{"t":1200,"v":{"x":1.523056,"y":511.999237,"type":"corner"}},{"t":3400,"v":{"x":3790.854033,"y":511.999237,"type":"corner"}},{"t":5000,"v":{"x":6434.599368,"y":511.999239,"type":"corner"}}]}}},"eLlmD8ArnJo8":{"transform":{"data":{"s":{"x":1.454461,"y":1.000005},"t":{"x":-2166.88044,"y":-511.999237}},"keys":{"o":[{"t":0,"v":{"x":-1565.64132,"y":511.999237,"type":"corner"},"e":[0.785,0.005,0.28,0.995]},{"t":2000,"v":{"x":5153.886797,"y":511.999237,"type":"corner"},"e":[0.785,0.005,0.28,0.995]},{"t":5000,"v":{"x":-1566.88044,"y":511.999237,"type":"corner"}}]}}}},"s":"MVDA1M2FhUTUxOTNhNGYExOTBhMzk4OWU5ZDUUxNjk2NDVmNWY1Zk81OYjUxOTM5OGExOTQ5MRmEzOTg5ZTlkNTFRNjFk2MDViNTE5OGEzUDkA0YTE5MGEzOTg5ZTlkVYTJCNTE2OTVmNWI1MNTk1OTg5YjliWDUxNjTk2MDViVTUxOTA5YmEMzOTRhMTlkOTBhMzk0QNTE2OVNNOTU5MDliYUTI5NEU1YjUxYTI5ZkXI5NDk0OTM1MVM2OTYFwYWM/"}],"options":"MSDAxMEE4ODJmODA4MTFZlN2Y4MTJmNDcyZjcH5N2NQNmU3MVQyZjhhB"},'__SVGATOR_PLAYER__',window)]]></script></svg>