<?xml version="1.0" standalone="no"?><!DOCTYPE svg PUBLIC "-//W3C//DTD SVG 1.1//EN" "http://www.w3.org/Graphics/SVG/1.1/DTD/svg11.dtd"><svg t="1650795586110" class="icon" viewBox="0 0 4335 1024" version="1.1" xmlns="http://www.w3.org/2000/svg" p-id="2198" xmlns:xlink="http://www.w3.org/1999/xlink" width="846.6796875" height="200"><defs><style type="text/css">@font-face { font-family: feedback-iconfont; src: url("//at.alicdn.com/t/font_1031158_u69w8yhxdu.woff2?t=1630033759944") format("woff2"), url("//at.alicdn.com/t/font_1031158_u69w8yhxdu.woff?t=1630033759944") format("woff"), url("//at.alicdn.com/t/font_1031158_u69w8yhxdu.ttf?t=1630033759944") format("truetype"); }
</style></defs><path d="M1365.690714 37.337335c16.656472-20.868073 26.442252-23.295938 45.105429-4.657536 62.224351 63.694282 46.666198 149.140248 4.665794 226.807139-71.514648 132.624163-229.573583 316.695931-229.573583 496.300098 0 98.353287 28.737988 125.291021 88.625313 158.174547-26.384446-74.760059-6.259596-189.439496 70.507167-300.278943 124.448701-178.654492 247.328374-250.111334 326.671647-250.111334 60.66358 0 91.779885 48.152646 91.779884 102.531856 23.32897-38.837574 43.552916-69.912588 54.437017-85.445966 12.44487-18.638402 24.88974-23.304196 37.33461-9.32333 24.88974 27.96999 35.782098 93.208526 1.56077 170.883674-31.116304 69.912588-124.167928 189.579883-147.777671 270.310507-17.721759 60.581-5.44205 104.010046 42.77666 99.344251 99.558961-9.315072 230.630612-158.380998 303.747321-386.740648-126.001213-45.047622 5.037406-256.32964 67.253498-260.987176 48.226968-3.105024 39.085315 79.22766 6.416499 186.417052 55.997786-6.210048 107.139844-23.295938 166.250913-63.686024 21.776458-15.541636 79.789207-38.837574 93.786589-23.304196 29.563792 32.619268 19.769754 124.28354-25.343933 177.093722-73.108451 83.885196-136.389831 166.969362-163.211952 244.388511-21.355298 61.646288-11.239196 123.713735 36.979514 126.827017 53.512116 3.815216 107.164618-31.909076 152.179208-108.964871-3.559216-51.55496 10.603327-102.688759 44.056657-130.204557 18.663176-15.533378 31.108046-9.32333 32.668816 15.533378 0.04129 0.371612 0.074322 0.858836 0.082581 1.4369v1.304771c-0.255999 22.709617-13.980866 144.928647 75.420702 209.514797 94.108653 67.996722 136.802733-19.959689 136.802733-69.078526 0-49.135353-82.811651-297.289531-75.032575-357.870531 7.779076-60.589258 11.833775-86.10661 44.502592-115.629112 34.221328-31.066756 91.664272-33.445072 118.750651-14.839703 27.08638 18.60537 47.871873 72.084453 34.452554 101.326182-4.005151 8.737009-18.976982-3.592249-36.442742-15.492087l-2.568251-1.734189c-24.592451-16.400472-53.214826-29.927146-63.107961 17.226276-17.358405 82.72907 44.147495 214.213623 60.721387 290.542711 16.573891 76.337345 11.107067 124.911151-5.466825 165.548979-5.450308 13.378029-17.837372 32.090753-37.136417 56.138173 40.918601-1.800253 75.866637-7.985527 104.852366-18.555822 0.024774-2.452639 0.049548-5.433792 0.049549-9.02604 0-24.096968 9.7032-22.007683 19.348593-54.131469 30.546499-89.946599 158.554417-393.000244 258.22899-542.371718 20.892848-30.521725 45.006332-28.911407 61.084741 0a144.928647 144.928647 0 0 1 20.892848 75.486767c0 11.247454 0 22.48665-1.602061 32.123786 69.119816-64.247571 146.282966-117.247688 204.155328-117.247688 46.61665 0 90.012664 56.212496 90.012664 117.247688 0 34.180038-27.061605 83.381456-75.379413 167.960327L3394.221058 616.845471c-51.447605 81.919782-106.099331 187.920016-106.099331 247.353148 0 33.725846 24.113484 54.610435 45.006332 54.610435 54.659984 0 127.892305-38.672413 173.831795-86.296544 48.326065-50.11806 42.892273-29.307793 24.171291 3.716119l-1.569028 2.749928c-3.716119 6.449531-7.894689 13.295448-12.221903 20.116592l-1.874576 2.915089-2.82425 4.360246c-1.891092 2.890315-3.7987 5.755856-5.681534 8.555332-53.140504 78.583533-137.157829 122.466771-202.644105 122.466771-107.693133 0-156.043972-65.734019-156.043972-149.255861 0-86.734221 73.942513-234.503634 136.637572-334.087369 33.758878-53.000117 59.474422-94.761038 48.226968-94.761038-14.468091 0-93.2333 44.9733-181.652162 144.557035-64.387958 67.831561-106.834296 178.084687-157.893773 284.291372-19.051304 39.638604-38.532026 73.182773-64.321893 96.825549-23.865743 21.883813-56.443721 36.021582-81.54817 17.622663-8.514042 8.241526-16.978535 15.343443-24.633741 20.133107-45.73304 28.630633-87.642605 42.305952-155.994424 41.224149-70.028201-1.106578-200.505273-38.977961-253.398035-135.299769l-0.404644-0.751482c-46.426715 71.407294-123.234769 119.890262-195.591738 117.264204-118.230395-4.657536-176.226628-112.763571-138.900275-237.038853 31.116304-102.531856 98.774447-213.701625 204.22965-291.145548-68.442657 40.390086-128.916302 48.160904-177.135013 48.160904-76.221733 219.03632-222.645085 462.937607-389.09419 475.365961-85.553321 6.210048-132.219519-48.160904-130.667007-127.388564-42.826209 54.80037-100.624248 107.305005-164.483691 120.897742-30.612564 14.030414-239.260266 22.073748-300.014686-32.586235-50.53922-45.468782-50.010706-92.820398-49.919867-164.475434l0.008258-7.50656c0-84.644936 14.121253-210.654407 142.112654-400.325128l1.552512-2.295736-3.063734 4.360246c-180.025327 256.007577-258.939182 412.142387-403.611829 594.058806l-4.740116 5.937533c-7.779076 15.533378-65.279826 18.572338-77.724697 9.249008-51.331992-37.285062-43.45382-90.02918-27.895667-186.34273 12.320999-77.922889 53.553406-253.290681 109.914546-435.058455l3.864764-12.40358a4032.699461 4032.699461 0 0 1 20.000979-62.083964c-138.446083 208.168736-201.991721 372.834105-347.572753 529.736913-145.58929 156.902808-472.426098 169.331162-483.318455 156.902808-21.776458-23.304196 293.383477-86.18919 443.101788-261.590014 83.761325-98.122061 263.348977-459.229746 431.342336-687.581137 13.997382-20.199172 29.563792-26.40922 49.779481-9.323331 60.66358 52.81844 77.774245 107.189392 37.326352 229.912163-49.771222 149.140248-128.949334 292.31819-175.615533 571.679511 47.937937-65.172472 96.016261-132.277325 143.90465-199.745533l19.1504-27.003799 19.117369-27.020316 19.092594-27.020315C1118.800017 368.939034 1246.799676 186.304165 1365.690714 37.337335z m329.330737 405.461631c-48.226968-3.105024-161.775053 96.31355-247.328374 233.017186-84.009067 133.598612-101.119731 268.749736-40.447893 270.310507 62.224351 1.552512 143.111877-93.208526 222.446892-233.025445 96.445679-169.331162 110.443061-267.197224 65.329375-270.302248z m-439.782056-111.855186a1481.517606 1481.517606 0 0 0-37.144675 51.893539l-2.708638 3.980377 2.840767-4.029925c11.891581-16.838149 24.212581-34.105716 37.012546-51.843991zM3796.635471 113.798551c52.645021-92.490076 125.497472-129.733848 218.458257-107.569262 29.183922 6.969788 69.268461 28.077345 90.565953 70.771425 29.175664 58.466941-6.870691 85.231257-27.284573 73.719546-20.413881-11.519969-97.684385-54.123211-121.781353-36.913451-42.619758 30.422629-66.229501 63.000607-84.388937 98.964382-18.167694 35.972033-48.111356 92.357948-66.708468 142.0053 10.091328 0 40.125829 3.939086 99.443349 0 38.028286-2.526961 79.285466-6.689014 123.14393-10.628101 47.921421-81.50688 100.285669-153.368366 135.440156-203.758942 24.113484-35.344422 43.404272-33.734104 61.092998-3.220636 11.247454 19.282529 17.672211 46.583618 17.672211 65.857889 0 20.174398-13.956092 55.807851-28.944439 90.78892l-3.014185 6.978046c-4.954826 11.462163-9.942683 22.742649-14.484607 33.255137l7.779076-0.107355 10.438166-0.08258c40.274473-0.132129 39.068799 0.412902 61.80319 6.755079 25.864189 7.068884 38.498994 23.618002 56.129915 49.672126 17.630921 26.045866-32.916558 41.306729-62.348221 37.805318-29.439922-3.493152-31.595271-11.503453-68.128851-11.503453-17.234535 0-36.15371 0.594579-56.377656 1.618576-58.97894 101.598697-115.100597 210.885632-169.587162 329.091254-19.290787 43.371239-28.936181 85.132161-28.936181 120.468324 0 48.185678 16.078409 81.919782 43.404272 81.919782 62.695059 0 146.282966-101.194053 202.545009-221.662378 17.680469-38.548543 54.659984-41.760921 65.907438 1.610319 8.043333 33.725846 1.610318 57.822814-16.070151 94.761038-22.511424 48.185678-130.212815 186.317956-265.248326 186.317956-85.189967 0-159.13248-69.06201-159.13248-179.893199 0-35.336164 9.637136-80.309464 32.140301-133.309581 32.156818-78.699145 75.561089-157.827709 139.858209-273.473337l-3.666571 6.606434c-49.729932 4.574956-101.152763 9.471975-150.915727 13.361513-21.875555 1.709415-44.238334 3.815216-67.113112 6.325661-38.317317 107.321521-67.534272 189.00182-87.650864 245.057412-30.183145 84.066873-81.383009 212.149113-124.184443 277.767519-37.846609 58.021007-111.549639 27.515798-82.084943-16.739052 36.236291-54.437016 91.152274-215.237621 120.352712-309.205887 20.16614-64.908214 35.369196-118.023944 45.617427-159.371963-26.103672 0-58.136619 18.382403-83.885196 44.494333-25.748577 26.111931-63.834669 52.43857-77.6256 44.453043-10.223457-5.921017 1.379093-54.519597 18.316338-94.818844 19.051304-45.328395 53.792889-76.155668 89.905309-91.680788 36.120678-15.533378 86.081835-23.320712 93.588396-24.196065 34.303909-107.643584 64.148474-161.263055 115.959434-252.2832z" p-id="2199" fill="#ffffff"></path></svg>