<?xml version="1.0" encoding="UTF-8"?>
<svg width="72px" height="17px" viewBox="0 0 72 17" version="1.1" xmlns="http://www.w3.org/2000/svg" xmlns:xlink="http://www.w3.org/1999/xlink">
    <title>Mas</title>
    <g id="动物园优化问题修改" stroke="none" stroke-width="1" fill="none" fill-rule="evenodd">
        <g id="游客查看已售罄多副本藏品" transform="translate(-132.000000, -2320.000000)" fill="#C0C6CD" fill-rule="nonzero">
            <g id="编组-7" transform="translate(68.000000, 2319.000000)">
                <path d="M86.5681842,2.2627614 C86.8434627,1.94517822 87.0052387,1.90812763 87.3137477,2.19183465 C88.3421112,3.16116694 88.0850203,4.46149075 87.390875,5.64360331 C86.208996,7.66206498 83.5967127,10.4633693 83.5967127,13.1967366 C83.5967127,14.8022457 84.1428629,15.1572235 85.2848642,15.7147708 L85.2607727,15.7040429 C84.7079758,14.503097 85.0133297,12.5473025 86.3757441,10.6603279 C88.4760842,7.76797561 90.5501701,6.61103472 91.889137,6.61103472 C92.9130528,6.61103472 93.4381379,7.39071228 93.4381379,8.27099339 C93.8319517,7.64222117 94.1732569,7.13920339 94.3570367,6.8876945 C94.5670707,6.58588383 94.7771047,6.51043116 94.9871387,6.73678916 C95.4072068,7.18950517 95.5909865,8.24584251 95.013393,9.50338696 C94.488308,10.635177 92.9177185,12.572643 92.519239,13.8796416 C92.2201857,14.8605263 92.427462,15.5636314 93.2413438,15.4881788 C94.9216159,15.3372734 97.1337955,12.9239079 98.3677453,9.22672718 C96.2411509,8.4973514 98.4527,5.07683049 99.5028701,5.00137782 C100.316752,4.95107604 100.162515,6.28407316 99.6111762,8.0194845 C100.556329,7.91888095 101.41943,7.64222117 102.417092,6.98829805 C102.784652,6.73678916 103.763741,6.35952583 104.00003,6.61103472 C104.49886,7.13920339 104.333652,8.62310584 103.572279,9.47823607 C102.338329,10.8363841 101.270363,12.1814532 100.817655,13.4349135 C100.457193,14.4329612 100.62791,15.437877 101.441792,15.4881788 C102.342374,15.5498026 103.245553,14.9746651 104.004059,13.7341425 C103.968199,13.0149793 104.189683,12.3125479 104.690121,11.9286443 C104.979024,11.7043777 105.171626,11.7940843 105.195701,12.1529108 C105.219777,12.3323241 104.907762,14.2355271 106.364285,15.2171246 C107.820808,16.1987222 108.48161,14.9290203 108.48161,14.2198221 C108.48161,13.5106239 107.199942,9.92809725 107.320318,9.05345761 C107.440695,8.17881797 107.503453,7.81037443 108.009034,7.38426793 C108.53869,6.93573478 109.427771,6.90129984 109.846925,7.16993684 C110.266079,7.43857385 110.587845,8.21058652 110.380186,8.63280698 C110.22891,8.94038941 109.068352,7.43857385 108.799686,8.63280698 C108.53102,9.82704012 109.482953,11.7253267 109.739434,12.8271351 C109.995985,13.9292426 109.911402,14.6304549 109.654852,15.2171246 C109.570415,15.4102119 109.378842,15.6803528 109.080134,16.0275472 C109.415294,16.0137966 109.724595,15.9823117 110.008039,15.9330923 C110.027653,15.6565303 110.176161,15.6486702 110.323889,15.2176285 C110.831263,13.9086202 112.957882,9.4982782 114.613524,7.32438939 C114.960674,6.88026157 115.361233,6.90363672 115.628272,7.32438939 C115.868607,7.67501662 115.975422,8.049019 115.975422,8.42302137 C115.975422,8.58664741 115.975422,8.75027345 115.948719,8.89052434 C117.096986,7.9555184 118.378774,7.1841385 119.340114,7.1841385 C120.114527,7.1841385 120.835533,8.0022687 120.835533,8.89052434 C120.835533,9.40477761 120.354862,10.1527824 119.500337,11.4617907 C118.645813,12.6539233 117.73788,14.1966831 117.73788,15.0615636 C117.73788,15.5524417 118.138439,15.8563186 118.485589,15.8563186 C119.393522,15.8563186 120.610024,15.2935733 121.37315,14.6003557 C122.472877,13.6013742 121.896737,14.5392062 121.37315,15.2176285 C120.49049,16.3613099 119.094746,17 118.006919,17 C116.217837,17 115.414641,16.0433198 115.414641,14.8278121 C115.414641,13.565554 116.64302,11.4150404 117.684472,9.96578117 C118.245254,9.19440127 118.672517,8.58664741 118.485589,8.58664741 C118.245254,8.58664741 116.936763,9.24115157 115.468048,10.6904108 C114.398526,11.6776782 113.693416,13.2821799 112.845234,14.8278121 C112.528655,15.4047093 112.205031,15.8928923 111.776698,16.2369202 C111.400284,16.5392478 110.893449,16.7400185 110.486144,16.5304278 C109.861083,16.8573454 109.242934,17.0130646 108.298869,16.9991433 C107.215203,16.9831635 105.195701,16.4364024 104.377142,15.0459496 L104.409551,15.0942709 C103.626114,16.2533898 102.327569,17.0409622 101.104379,16.9983519 C99.1090563,16.9228992 98.1301135,15.1727525 98.7602155,13.1606814 C99.2853006,11.5007227 100.427281,9.70082273 102.207058,8.44704962 C101.051871,9.10097273 100.031244,9.22672718 99.2173624,9.22672718 C97.9309041,12.7730025 95.4597153,16.7216921 92.6505103,16.9228992 C91.2065264,17.0235028 90.4188989,16.1432217 90.4451531,14.8605263 C89.6525761,15.8333386 88.5562418,16.761383 87.3545393,16.8633364 C86.541896,17.0477412 83.4723513,17.1031744 82.5346581,16.3263139 C81.7721751,15.6946116 81.7130181,15.0391955 81.7096522,14.1002471 L81.7097465,13.7089302 C81.7097465,12.4182152 81.944093,10.4955524 84.0707531,7.59957112 L84.0435115,7.63459258 C81.0287637,11.5809989 79.7285033,13.9685017 77.2846304,16.7791036 C77.156085,17.0155261 76.2056727,17.0617124 76,16.9198589 C75.1516002,16.3524448 75.2818955,15.5497065 75.5389864,14.083887 C75.7703681,12.7362786 76.618768,9.47364799 77.7499677,6.32922859 C75.4618591,9.49729024 74.4117702,12.0033689 72.0056112,14.3912362 C69.5994521,16.7791036 64.1977024,16.9682416 64.0177388,16.7791036 C63.6578116,16.4244698 68.8664906,15.4674168 71.3409247,12.7980185 C72.7252621,11.3046071 75.6932409,5.80909907 78.4698221,2.33368815 C78.7012039,2.02633889 78.9582948,1.93176989 79.2925129,2.19183465 C80.2951673,2.99567119 80.5779672,3.82314997 79.909531,5.69088781 C79.0868402,7.96054392 77.7782878,10.1396545 77.0070152,14.3912362 C80.2814942,10.291307 83.5967127,5.69088781 86.5681842,2.2627614 Z M92.5756983,8.00112577 C91.7456953,7.95175185 89.7911722,9.53171731 88.3185863,11.7041698 C86.8727747,13.8272484 86.5782575,15.975014 87.6224548,15.9997009 C88.6934264,16.0243879 90.0856894,14.5184833 91.4511781,12.2966569 C93.111184,9.60577819 93.3521526,8.05049969 92.5756983,8.00112577 Z M126.900629,3.31155132 C127.76637,1.83911924 128.964535,1.24628701 130.493232,1.59921451 C130.97323,1.7100309 131.632412,2.04612642 131.9827,2.7257273 C132.462465,3.65652908 131.869697,4.08255148 131.533998,3.89922324 C131.1983,3.715895 129.927577,3.03765713 129.531241,3.31154777 C128.830318,3.7959263 128.442156,4.31452765 128.143448,4.8871127 C127.844739,5.45969775 127.352193,6.35729259 127.046424,7.14766335 C127.212284,7.14766313 127.706212,7.21042867 128.681785,7.14766114 C128.686688,7.14734565 128.691595,7.14702857 128.696505,7.14670991 C128.716905,6.92620073 128.957236,6.82468665 129.338424,6.84108245 C129.921487,6.86616131 130.638736,6.84108245 131.196448,6.79092473 C131.982315,5.4366664 132.865627,4.23832598 133.44869,3.41072367 C133.828948,2.8589888 134.133154,2.88406766 134.41201,3.36056596 C134.589464,3.66151225 134.690866,4.08785284 134.690866,4.38879913 C134.690866,4.84021858 134.238512,5.78777042 133.934306,6.48997844 C134.204803,6.5245073 134.274071,6.65708687 134.225847,6.81919577 C134.455207,6.82750763 134.527272,6.8535007 134.78174,6.92223137 C135.207083,7.03470381 135.414922,7.29825406 135.704835,7.71288172 C135.994749,8.12750937 135.163545,8.37045891 134.679413,8.31483722 C134.195281,8.25921553 134.159892,8.13168474 133.559064,8.13168555 C133.36208,8.13168581 133.151677,8.13622267 132.929985,8.14447541 C132.082854,9.6173189 131.272696,11.1935796 130.484352,12.8870673 C130.180146,13.5641965 130.028043,14.2162468 130.028043,14.7679816 C130.028043,15.5203474 130.281548,16.0470034 130.712507,16.0470034 C131.701178,16.0470034 133.019406,14.4670353 133.906674,12.586121 C134.18553,11.9842284 134.768592,11.9340707 134.946046,12.6111999 C135.072799,13.1378559 134.971397,13.5140387 134.692541,14.0908525 C134.337633,14.8432182 132.639148,17 130.509703,17 C129.166125,17 128,15.9216091 128,14.1911679 C128,13.639433 128.152103,12.937225 128.507011,12.1096227 C128.967902,10.9925397 129.575432,9.86999431 130.443858,8.31862582 C129.498096,8.40056108 128.499739,8.49537994 127.538761,8.56810189 C127.179132,8.59531677 126.811253,8.62889459 126.435122,8.66883536 C125.805026,10.3772258 125.324543,11.6775637 124.993671,12.569849 C124.497365,13.908277 123.655328,15.9471645 122.951436,16.9917342 C122.329026,17.9153853 121.116971,17.4298091 121.601507,16.7252647 C122.197474,15.8586904 123.100542,13.2988303 123.580731,11.8029038 C123.91237,10.7697533 124.162438,9.92410441 124.330935,9.26595712 C123.901645,9.2659577 123.374911,9.55846904 122.951446,9.97420261 C122.527982,10.3899362 121.901647,10.8090041 121.674982,10.681902 C121.506726,10.5875519 121.69751,9.81392438 121.97609,9.1724202 C122.289418,8.45090206 122.860716,7.9601551 123.454635,7.71289826 C124.048554,7.46564142 124.870213,7.34168816 124.993679,7.32775717 C125.557793,5.61411723 126.048644,4.76058747 126.900629,3.31155132 Z" id="Mas"></path>
            </g>
        </g>
    </g>
</svg>