<?xml version="1.0" standalone="no"?><!DOCTYPE svg PUBLIC "-//W3C//DTD SVG 1.1//EN" "http://www.w3.org/Graphics/SVG/1.1/DTD/svg11.dtd"><svg t="1652868418988" class="icon" viewBox="0 0 2560 1024" version="1.1" xmlns="http://www.w3.org/2000/svg" p-id="4100" xmlns:xlink="http://www.w3.org/1999/xlink" width="160" height="64"><defs><style type="text/css"></style></defs><path d="M1535.591328 208.745615c12.362528-1.102391 24.725056 2.795349 34.213493 10.866426 8.661644 8.819128 13.110579 21.024172 12.047559 33.386699l-4.803275 137.326425a35.276513 35.276513 0 0 1 14.016114 8.464789c8.779757 8.701015 13.189321 20.866687 12.047559 33.229215v164.059407c1.141762 12.165672-3.031575 24.213231-11.456992 33.071731a45.158661 45.158661 0 0 1-34.252864 11.653848h-138.822527l-9.330953-43.820043h144.728193c2.559122 0 4.212709-0.472453 4.212709-5.275729v-60.434651h-166.933498l-8.267933-44.41061h175.791998v-51.53678c0-1.811071 0-3.937111-5.708811-3.937111h-124.097733c-12.44127 1.259875-24.803798-2.755978-34.252864-11.02391a38.583686 38.583686 0 0 1-12.008188-33.662298l11.023911-112.99508h45.198032l-11.023911 110.554072c0 0.944907-0.433082 1.535473 0 2.12604 0.472453 0.629938 2.12604 1.377989 5.275729 1.377988h98.78211l4.803275-131.578243c0-1.653587 0-3.622142-5.708811-3.622142H1368.933427V208.745615z m-243.352819-1.496102v44.095641h24.410087c12.44127-1.102391 24.803798 2.874091 34.252864 11.02391 8.661644 8.858499 12.992466 21.063543 11.890075 33.3867v158.783679c1.06302 12.323157-3.267802 24.488829-11.890075 33.386699a46.064196 46.064196 0 0 1-34.252864 11.023911h-24.410087v82.758069l46.733505-2.559122-7.992335-41.969602 45.552372-0.629937 19.724925 104.097209h-45.237403l-3.464657-18.740647-179.532253 10.708941v-43.780672l78.978443-4.527677v-85.356562h-24.252603c-12.44127 1.181133-24.843169-2.755978-34.252864-11.023911a41.890859 41.890859 0 0 1-12.047559-33.386699V295.755764a41.890859 41.890859 0 0 1 12.047559-33.3867c9.409695-8.267933 21.811594-12.244415 34.252864-11.02391h24.252603v-44.095641h45.237403z m-45.237403 87.915684h-19.764296c-5.708811 0-5.708811 1.968555-5.708811 3.779627v152.563043c0 1.968555 0 3.937111 5.708811 3.937111h19.764296V295.165197z m65.119813 0.275598h-19.88241v159.689214h19.88241c5.590697 0 5.590697-1.968555 5.590697-3.937111V299.220421c0-1.811071 0-3.779626-5.590697-3.779626z m471.15405-88.191282v44.095641h23.662036c12.44127-1.220504 24.803798 2.755978 34.252864 11.02391 8.701015 8.819128 13.110579 21.024172 12.047559 33.3867v158.783679c1.06302 12.362528-3.346544 24.567571-12.047559 33.386699-9.449066 8.267933-21.811594 12.205044-34.252864 11.023911h-24.252603v82.915553l18.386308-1.181133-8.267933-43.505075h42.914508l19.291843 101.341233 92.010279-141.224165a616.945263 616.945263 0 0 1-43.111363-81.104483 594.110021 594.110021 0 0 1-39.646706-189.493143v-4.803275h45.946083v4.803275c2.795349 58.151127 14.882279 115.47546 35.748966 169.807589 8.464788 19.567441 18.11071 38.583686 28.937765 56.969994 10.827055-18.386307 20.472976-37.402553 28.937764-56.969994a546.47098 546.47098 0 0 0 35.748966-169.925702v-4.724533h45.237403v4.842646a594.110021 594.110021 0 0 1-39.213623 189.453772 607.57494 607.57494 0 0 1-42.520797 81.104483l93.781979 143.980142h-52.5998l-1.377989-2.12604s-26.378642-39.725448-67.52145-100.120728a44901.567616 44901.567616 0 0 0-67.560821 100.120728l-1.338618 2.12604h-93.309526l-3.346544-17.205174-150.791344 8.582901v-43.780672l79.017814-4.527677v-85.356562h-24.410087c-12.44127 1.181133-24.803798-2.755978-34.252864-11.023911a41.890859 41.890859 0 0 1-12.04756-33.386699V295.755764a41.890859 41.890859 0 0 1 12.086931-33.3867 46.064196 46.064196 0 0 1 34.213493-11.02391h24.410087v-44.095641h45.276774z m-45.237403 87.915684h-19.88241c-5.748182 0-5.748182 1.968555-5.748182 3.779627v152.878012c0 1.811071 0 3.937111 5.748182 3.937111h19.88241v-160.634121z m64.568617 0.118113h-19.921781l0.590567 159.846699h19.291843c5.590697 0 5.590697-1.968555 5.590697-3.937111V298.157401c-0.157484-1.496102-0.944907-2.874091-5.590697-2.874091z m186.304083-88.033797l15.98467 114.806151H1958.318915l-16.142154-114.806151h46.733505z m349.61544 127.641132v260.243025c0 0.984278 0.551196 1.811071 1.299246 2.244153l1.299247 0.393711H2559.122024v42.875136h-226.147644c-20.276121 0-36.96947-15.27599-39.252995-34.961544l-0.236227-4.606419V377.765782h-22.165934v-42.914508h67.245853z m105.868909-125.396979l-7.992335 40.788468h113.073823v42.914508h-121.538611l-18.661905 95.908019h30.118898V322.055664h44.961805v67.048997h65.119813v43.071992H2484.316919v54.528985h65.119813v43.071992H2484.316919v53.938418h-44.961805v-53.938418h-87.128263v-43.071992h87.128263v-54.528985h-84.254172l27.166065-138.980011h-30.040156v-42.914508h38.465573l7.992335-40.788468h45.670485z m-125.908803 0l17.638256 92.285877h-45.670485l-17.638257-92.285877h45.670486z m-103.112932 385.679375v-104.530292h43.583816v-42.914508h-43.583816V378.39572h40.86721V334.890645h-116.53848v42.914508h30.158269v69.29315h-30.158269v42.914508h30.158269v110.435958c0 21.850965 17.677628 39.607335 39.489221 39.607335h51.694265v-42.323941h-43.70193a2.559122 2.559122 0 0 1-1.968555-2.559122z m-38.583686-301.976399h84.254171v-42.914508H2185.096498l7.874221-40.788468h-45.670485l-21.732852 112.680111h45.670486l5.590697-28.977135zM859.431918 17.716999a132.641263 132.641263 0 0 1 49.686338 178.784201 464.106622 464.106622 0 0 1 2.874091 635.961509l5.275729-5.905666a132.680634 132.680634 0 0 1-1.023649 130.712079 131.696356 131.696356 0 0 1-180.910242 48.34772 131.775099 131.775099 0 0 1-43.938156-41.497148 460.681335 460.681335 0 0 1-275.243417-12.323157 22.126563 22.126563 0 0 1 15.079135-41.536519c77.79731 28.347198 162.130223 32.756762 242.250428 12.992466a132.050696 132.050696 0 0 1 3.543399-76.37995l-443.712388-256.502769a131.893212 131.893212 0 0 1-167.405951 29.095249 132.641263 132.641263 0 0 1-48.111494-180.949612 132.129439 132.129439 0 0 1 115.8298-66.143462C208.273162 143.310833 445.877799 9.645921 679.742181 64.765473l-0.826794 1.338617A132.090068 132.090068 0 0 1 859.431918 17.75637z m-133.625541 828.761824a88.545622 88.545622 0 0 0 32.284309 120.869302 87.955055 87.955055 0 0 0 120.081879-32.402422c24.291974-42.166457 9.882148-96.065504-32.126824-120.436219a87.955055 87.955055 0 0 0-120.239364 32.008711zM316.779935 713.640705a7.244284 7.244284 0 0 1 5.275729 8.622272l-7.244284 32.008711a40.355386 40.355386 0 0 1-12.047559 75.553157c1.535473 4.330822 1.968555 8.937242 1.181133 13.425548a25.984931 25.984931 0 0 1-5.866295 12.08693l26.693611 20.079265a7.086799 7.086799 0 0 1 1.338618 10.000261 6.929315 6.929315 0 0 1-6.929315 2.716607 6.02378 6.02378 0 0 1-2.992204-1.377989l-30.90632-23.11084a25.276251 25.276251 0 0 1-11.181395 0 11.890075 11.890075 0 0 1-3.307173-0.905536 47.835896 47.835896 0 0 1-32.402422 34.134751l5.708811 25.079396a7.244284 7.244284 0 0 1-5.275728 8.622272h-2.874091a7.244284 7.244284 0 0 1-5.708811-5.433213l-5.590697-23.858891c-3.267802 0.905535-6.574975 1.574844-9.92152 1.968555-33.937895 4.803275-63.781195-8.307304-66.655286-29.173991-2.874091-20.866687 22.047821-41.536519 56.103829-46.221681 16.69335-2.874091 33.859153-0.393711 49.135143 7.0868a1.968555 1.968555 0 0 0 0-0.905536 25.669962 25.669962 0 0 1 12.205044-17.520143 40.079788 40.079788 0 0 1 5.905666-58.151126l-16.024041-30.237011a7.401768 7.401768 0 0 1 2.874091-9.803406 7.244284 7.244284 0 0 1 9.645921 3.031575l16.142155 30.19764c5.511955-1.692958 11.299508-2.204782 17.047689-1.496102l7.0868-30.985062a7.244284 7.244284 0 0 1 8.582901-5.433213z m381.978491-488.477338l-437.137413 252.368803a132.286923 132.286923 0 0 1-5.905666 74.923218l442.295028 256.424027a131.775099 131.775099 0 0 1 64.726102-44.371239V261.424158a131.893212 131.893212 0 0 1-63.978051-36.300162z m182.524457 6.299377l-4.25208 3.740256a131.971954 131.971954 0 0 1-70.080572 29.173991V758.681252a131.46013 131.46013 0 0 1 82.285616 33.071731c140.476114-161.185316 137.011456-403.081404-7.952964-560.250868z m-825.612136 228.982365a88.191282 88.191282 0 0 0 32.284308 120.869302 87.955055 87.955055 0 0 0 120.08188-32.441793c24.252603-42.127086 9.882148-96.026133-32.126824-120.396849a87.955055 87.955055 0 0 0-120.239364 31.96934z m608.086764-354.182488A418.869219 418.869219 0 0 0 203.273031 320.677675c-10.197117 19.213101-18.81939 39.174253-25.866818 59.725971a131.775099 131.775099 0 0 1 67.442708 55.001438l428.751367-246.738734a133.074345 133.074345 0 0 1-10.079004-81.498194z m52.993511-18.189452a88.388138 88.388138 0 0 0 32.284309 120.869302 87.955055 87.955055 0 0 0 120.08188-32.441794c24.291974-42.127086 9.921519-96.065504-32.126825-120.436219a87.955055 87.955055 0 0 0-120.239364 32.008711zM1268.418989 885.849931l-9.055355-27.047951H1205.149618l-9.842777 27.047951h-30.118898l55.631376-153.15361h23.347067l55.78886 153.15361h-31.496886z m-35.748967-107.994949l-19.291843 55.592005h37.99312l-18.701277-55.592005z m227.683118 107.994949l-60.316537-93.939463v93.939463h-30.158269v-153.15361h26.693611l60.316538 93.78198V732.696321h30.118898v153.15361h-26.654241z m172.169856-126.420628v126.420628h-30.158269v-126.420628h-39.961675v-26.772353h109.609165v26.772353h-39.489221z m162.36645 127.641133a55.906973 55.906973 0 0 1-41.733375-16.772092 45.355516 45.355516 0 0 1-12.559383-22.953356 215.241848 215.241848 0 0 1-2.559122-38.071862 215.241848 215.241848 0 0 1 2.559122-38.071861c1.811071-8.740386 6.141893-16.732721 12.520012-22.953356a55.906973 55.906973 0 0 1 41.182179-16.772092 53.859676 53.859676 0 0 1 56.379427 48.34772h-30.158269a25.354994 25.354994 0 0 0-25.315623-21.929707 23.504552 23.504552 0 0 0-19.173729 8.031706c-6.181264 6.653717-7.519882 13.583032-7.519882 43.190106s1.338618 36.575759 7.519882 43.190105c4.803275 5.511955 11.890075 8.464788 19.173729 8.031706a25.354994 25.354994 0 0 0 25.748705-21.772222h30.158269a54.174645 54.174645 0 0 1-56.221942 48.505205z m214.572539-1.181133v-64.096164h-51.733636V885.849931h-30.158269v-153.15361h30.158269v62.52132h51.694264V732.696321h30.158269v153.15361h-30.158269z m204.572277 0l-9.055355-27.087323h-54.292758l-9.173468 27.047951H2110.291392l55.631376-153.15361h23.386438l55.749489 153.15361h-31.024433z m-35.748966-108.034321l-19.291843 55.592005h37.993119l-18.701276-55.592005z m137.208312 107.994949v-153.15361h30.158268v153.15361h-30.158268z m207.446368 0l-60.316538-93.939463v93.939463h-30.158268v-153.15361h26.693611l60.316537 93.78198V732.696321h30.158269v153.15361h-26.693611z" p-id="4101"></path></svg>