<?xml version="1.0" standalone="no"?><!DOCTYPE svg PUBLIC "-//W3C//DTD SVG 1.1//EN" "http://www.w3.org/Graphics/SVG/1.1/DTD/svg11.dtd"><svg t="1648461571454" class="icon" viewBox="0 0 1024 1024" version="1.1" xmlns="http://www.w3.org/2000/svg" p-id="2960" xmlns:xlink="http://www.w3.org/1999/xlink" width="64" height="64"><defs><style type="text/css"></style></defs><path d="M768 256a36.571429 36.571429 0 0 1 36.571429 36.571429v402.285714a36.571429 36.571429 0 0 1-36.571429 36.571428h-236.434286a36.571429 36.571429 0 0 0-25.417143 10.276572l-63.341714 61.293714a22.198857 22.198857 0 0 1-37.595428-16.713143l0.585142-17.042285A36.571429 36.571429 0 0 0 370.468571 731.428571L256 731.428571a36.571429 36.571429 0 0 1-36.571429-36.571428V292.571429a36.571429 36.571429 0 0 1 36.571429-36.571429h512z m-254.061714 261.778286h-127.049143a21.174857 21.174857 0 0 0 0 42.349714h127.049143a21.174857 21.174857 0 0 0 0-42.349714z m127.012571-112.932572H386.925714a21.174857 21.174857 0 0 0 0 42.349715h254.061715a21.174857 21.174857 0 0 0 0-42.349715z" p-id="2961"></path></svg>