<?xml version="1.0" standalone="no"?><!DOCTYPE svg PUBLIC "-//W3C//DTD SVG 1.1//EN" "http://www.w3.org/Graphics/SVG/1.1/DTD/svg11.dtd"><svg t="1648461718793" class="icon" viewBox="0 0 1024 1024" version="1.1" xmlns="http://www.w3.org/2000/svg" p-id="4474" xmlns:xlink="http://www.w3.org/1999/xlink" width="64" height="64"><defs><style type="text/css"></style></defs><path d="M466.56 223.061333a29.738667 29.738667 0 0 1 43.989333 0l248.618667 263.850667a34.048 34.048 0 0 1 8.789333 25.045333 34.218667 34.218667 0 0 1-8.789333 25.173334l-248.618667 263.808a29.781333 29.781333 0 0 1-43.946666 0 34.773333 34.773333 0 0 1 0-46.848l197.12-208.981334H287.018667C269.952 545.109333 256 530.346667 256 512c0-18.261333 13.952-33.109333 31.061333-33.109333h376.618667l-197.12-208.938667a34.773333 34.773333 0 0 1 0-46.848z" p-id="4475"></path></svg>