<?xml version="1.0" standalone="no"?><!DOCTYPE svg PUBLIC "-//W3C//DTD SVG 1.1//EN" "http://www.w3.org/Graphics/SVG/1.1/DTD/svg11.dtd"><svg t="1651650694273" class="icon" viewBox="0 0 1024 1024" version="1.1" xmlns="http://www.w3.org/2000/svg" p-id="2186" xmlns:xlink="http://www.w3.org/1999/xlink" width="200" height="200"><defs><style type="text/css">@font-face { font-family: feedback-iconfont; src: url("//at.alicdn.com/t/font_1031158_u69w8yhxdu.woff2?t=1630033759944") format("woff2"), url("//at.alicdn.com/t/font_1031158_u69w8yhxdu.woff?t=1630033759944") format("woff"), url("//at.alicdn.com/t/font_1031158_u69w8yhxdu.ttf?t=1630033759944") format("truetype"); }
</style></defs><path d="M889.685333 410.965333c15.274667-0.085333 29.696 7.253333 38.912 19.84 9.301333 12.501333 12.373333 28.757333 8.32 43.946667l-101.461333 384c-5.845333 21.973333-25.173333 37.205333-47.232 37.248H143.36c-4.309333 0-8.661333-0.597333-12.8-1.792-26.112-7.296-41.514667-35.072-34.432-61.994667l101.504-384c5.802667-21.973333 25.173333-37.205333 47.232-37.248z m-365.226666 109.568c-6.314667-11.392-18.602667-11.392-24.917334 0l-39.68 71.808-75.52 18.517334c-11.946667 2.944-15.786667 15.573333-7.68 25.557333l50.986667 62.890667-6.997333 83.242666c-1.109333 13.226667 8.832 20.992 20.138666 15.786667L512 765.397333l71.253333 32.938667c11.306667 5.248 21.248-2.56 20.138667-15.786667l-7.082667-83.242666 51.029334-62.890667c8.106667-9.984 4.309333-22.613333-7.68-25.557333l-75.52-18.517334zM366.890667 128c13.013333 0 25.472 5.290667 34.645333 14.805333l100.266667 103.509334c1.834667 1.877333 4.309333 2.986667 6.912 2.986666h272.554666c27.008 0 48.938667 22.613333 48.938667 50.474667v70.741333H244.821333c-39.68 0.085333-74.496 27.52-84.992 66.986667L85.333333 719.488V178.517333C85.333333 150.656 107.264 128.042667 134.272 128H366.933333z" p-id="2187"></path></svg>