<?xml version="1.0" standalone="no"?><!DOCTYPE svg PUBLIC "-//W3C//DTD SVG 1.1//EN" "http://www.w3.org/Graphics/SVG/1.1/DTD/svg11.dtd"><svg t="1640673917005" class="icon" viewBox="0 0 1024 1024" version="1.1" xmlns="http://www.w3.org/2000/svg" p-id="9475" xmlns:xlink="http://www.w3.org/1999/xlink" width="128" height="128"><defs><style type="text/css"></style></defs><path d="M870.4 768V460.8a358.4 358.4 0 0 0-307.2-354.304V51.2a51.2 51.2 0 0 0-102.4 0v55.296A358.4 358.4 0 0 0 153.6 460.8v307.2a51.2 51.2 0 0 0 0 102.4h217.6a140.8 140.8 0 0 0 281.6 0H870.4a51.2 51.2 0 0 0 0-102.4z m-358.4 166.4A64 64 0 0 1 448 870.4h128A64 64 0 0 1 512 934.4zM256 768V460.8a256 256 0 0 1 512 0v307.2z" p-id="9476"></path></svg>