<?xml version="1.0" standalone="no"?><!DOCTYPE svg PUBLIC "-//W3C//DTD SVG 1.1//EN" "http://www.w3.org/Graphics/SVG/1.1/DTD/svg11.dtd"><svg t="1648461702503" class="icon" viewBox="0 0 1024 1024" version="1.1" xmlns="http://www.w3.org/2000/svg" p-id="3870" xmlns:xlink="http://www.w3.org/1999/xlink" width="64" height="64"><defs><style type="text/css"></style></defs><path d="M721.792 178.133333H634.88s-27.733333 70.357333-59.904 66.816H451.84c-32.298667 3.541333-59.946667-66.816-59.946667-66.816H302.122667C253.269333 178.133333 213.333333 220.245333 213.333333 271.786667v530.56C213.333333 853.888 253.269333 896 302.122667 896h419.754666c48.768 0 88.618667-41.898667 88.789334-93.269333V271.317333c-0.256-51.242667-40.106667-93.184-88.874667-93.184z m-47.786667 576.853334H352.853333a24.618667 24.618667 0 0 1-24.192-25.088c0-13.866667 10.88-25.045333 24.192-25.045334h321.152c13.397333 0 24.32 11.178667 24.32 25.045334a24.746667 24.746667 0 0 1-24.32 25.088z m0-150.186667H352.853333a24.618667 24.618667 0 0 1-24.192-25.045333c0-13.909333 10.88-25.088 24.192-25.088h321.152c13.397333 0 24.32 11.178667 24.32 25.088a24.789333 24.789333 0 0 1-24.32 25.045333z m0-176.256H352.853333a24.618667 24.618667 0 0 1-24.192-25.088c0-13.866667 10.88-25.088 24.192-25.088h321.152c13.397333 0 24.32 11.221333 24.32 25.088a24.746667 24.746667 0 0 1-24.32 25.088z m-72.234666-200.32H422.058667a0.853333 0.853333 0 0 1-0.853334-0.853333V128.853333c0-0.426667 0.426667-0.810667 0.853334-0.810666h179.712a0.853333 0.853333 0 0 1 0.810666 0.853333v98.432c0 0.554667-0.341333 0.938667-0.810666 0.938667z" p-id="3871"></path></svg>