<?xml version="1.0" standalone="no"?><!DOCTYPE svg PUBLIC "-//W3C//DTD SVG 1.1//EN" "http://www.w3.org/Graphics/SVG/1.1/DTD/svg11.dtd"><svg t="1619521257421" class="icon" viewBox="0 0 1024 1024" version="1.1" xmlns="http://www.w3.org/2000/svg" p-id="2782" xmlns:xlink="http://www.w3.org/1999/xlink" width="64" height="64"><defs><style type="text/css"></style></defs><path d="M884.631324 421.37805 645.954363 421.37805c92.487438-341.569376-63.7223-359.013677-63.7223-359.013677-66.204841 0-52.479235 52.352345-57.487296 61.08217 0 167.039387-177.422875 297.931506-177.422875 297.931506l0 473.706859c0 46.756907 63.720254 63.59848 88.718601 63.59848l358.612541 0c33.751708 0 61.232596-88.508823 61.232596-88.508823 88.720647-301.68397 88.720647-391.443273 88.720647-391.443273C944.611393 416.401712 884.631324 421.37805 884.631324 421.37805L884.631324 421.37805 884.631324 421.37805 884.631324 421.37805zM884.631324 421.37805" p-id="2783"></path><path d="M249.372046 421.535639 106.454032 421.535639c-29.514197 0-29.969569 28.989241-29.969569 28.989241l29.514197 477.754035c0 30.405497 30.460756 30.405497 30.460756 30.405497l123.701346 0c25.767873 0 25.536606-20.113083 25.536606-20.113083L285.697369 457.766818C285.696346 421.075151 249.372046 421.535639 249.372046 421.535639L249.372046 421.535639 249.372046 421.535639 249.372046 421.535639zM249.372046 421.535639" p-id="2784"></path></svg>