<?xml version="1.0" standalone="no"?><!DOCTYPE svg PUBLIC "-//W3C//DTD SVG 1.1//EN" "http://www.w3.org/Graphics/SVG/1.1/DTD/svg11.dtd"><svg t="1648461706091" class="icon" viewBox="0 0 1024 1024" version="1.1" xmlns="http://www.w3.org/2000/svg" p-id="4022" xmlns:xlink="http://www.w3.org/1999/xlink" width="64" height="64"><defs><style type="text/css"></style></defs><path d="M213.589333 490.069333L213.333333 738.56c0 15.061333 13.098667 29.44 36.992 29.44H334.72v-316.928H250.453333c-23.338667 0.469333-36.864 24.149333-36.864 38.997333z m522.112-78.592h-149.333333c59.349333-208.298667-51.925333-198.058667-51.925333-198.058666-40.064 0-60.074667 36.394667-60.074667 79.146666-0.170667-1.28-0.128 0 0 0.512-2.176 68.608-82.389333 142.506667-118.997333 155.733334V768h343.04c42.581333 0 56.576-39.594667 56.576-39.594667 24.234667-61.482667 54.314667-202.325333 55.04-210.346666 8.917333-102.186667-74.282667-106.581333-74.282667-106.581334z" p-id="4023"></path></svg>