<?xml version="1.0" standalone="no"?><!DOCTYPE svg PUBLIC "-//W3C//DTD SVG 1.1//EN" "http://www.w3.org/Graphics/SVG/1.1/DTD/svg11.dtd"><svg t="1648800923261" class="icon" viewBox="0 0 1024 1024" version="1.1" xmlns="http://www.w3.org/2000/svg" p-id="2646" xmlns:xlink="http://www.w3.org/1999/xlink" width="64" height="64"><defs><style type="text/css"></style></defs><path d="M372.224 588.896L237.536 500.48a32 32 0 0 1 5.12-56.224l512.64-216.256a32 32 0 0 1 43.936 35.168l-89.664 497.024a32 32 0 0 1-49.696 20.672l-194.976-134.56a32 32 0 0 1-6.08-47.2l95.296-110.848a11.584 11.584 0 0 0-16.544-16.192L411.2 585.92a32 32 0 0 1-38.976 2.976z m52.256 146.72v38.848a25.504 25.504 0 0 0 44.448 17.088l19.84-22.016a32 32 0 0 0-5.76-47.904l-14.08-9.568a28.48 28.48 0 0 0-44.48 23.552z" p-id="2647"></path></svg>