<?xml version="1.0" standalone="no"?><!DOCTYPE svg PUBLIC "-//W3C//DTD SVG 1.1//EN" "http://www.w3.org/Graphics/SVG/1.1/DTD/svg11.dtd"><svg t="1648461715260" class="icon" viewBox="0 0 1024 1024" version="1.1" xmlns="http://www.w3.org/2000/svg" p-id="4324" xmlns:xlink="http://www.w3.org/1999/xlink" width="64" height="64"><defs><style type="text/css"></style></defs><path d="M298.368 615.936L116.565333 505.6a42.666667 42.666667 0 0 1 6.613334-76.245333l700.586666-273.194667a42.666667 42.666667 0 0 1 57.386667 47.914667l-122.581333 628.053333a42.666667 42.666667 0 0 1-64.810667 27.818667l-267.562667-170.709334a42.666667 42.666667 0 0 1-8.277333-65.024l127.573333-137.216a15.189333 15.189333 0 0 0-20.821333-22.058666L347.818667 612.266667a42.666667 42.666667 0 0 1-49.450667 3.712zM401.962667 793.258667v100.010666a21.333333 21.333333 0 0 0 34.986666 16.426667l74.752-62.037333a21.333333 21.333333 0 0 0-3.968-35.413334l-74.794666-37.973333a21.333333 21.333333 0 0 0-30.976 18.986667z" p-id="4325"></path></svg>