<?xml version="1.0" standalone="no"?><!DOCTYPE svg PUBLIC "-//W3C//DTD SVG 1.1//EN" "http://www.w3.org/Graphics/SVG/1.1/DTD/svg11.dtd"><svg t="1618826519356" class="icon" viewBox="0 0 1024 1024" version="1.1" xmlns="http://www.w3.org/2000/svg" p-id="1576" width="64" height="64" xmlns:xlink="http://www.w3.org/1999/xlink"><defs><style type="text/css"></style></defs><path d="M946.9952 696.6784c-6.8608-98.8672-70.2464-181.76-106.9056-224.6144 5.12-12.4416 17.4592-84.6336-30.3616-133.888 0.1024-1.1776 0.1024-2.3552 0.1024-3.4816C809.8304 140.4416 677.7344 0.6144 512 0 346.2656 0.6656 214.1696 140.4416 214.1696 334.6944c0 1.1776 0 2.3552 0.1024 3.4816-47.8208 49.2544-35.4304 121.4464-30.3616 133.888-36.608 42.8544-99.9936 125.7472-106.9056 224.6144-1.2288 26.0096 2.6112 63.8976 14.7456 80.7424 14.7968 20.48 55.3472-4.1472 84.3776-69.7344 8.0896 30.4128 26.6752 76.8 68.864 135.6288-70.5536 16.896-90.6752 89.7024-66.9184 129.536 16.7424 28.0576 55.04 51.1488 121.088 51.1488 117.5552 0 169.472-33.024 192.6656-56.064 4.6592-5.0688 11.52-7.4752 20.1728-7.4752 8.704 0 15.5136 2.4064 20.1728 7.4752 23.1936 23.04 75.1104 56.064 192.6144 56.064 66.048 0 104.3968-23.04 121.1392-51.1488 23.7568-39.8336 3.584-112.64-66.9184-129.536 42.1888-58.88 60.8256-105.216 68.864-135.6288 29.0304 65.5872 69.632 90.2656 84.3776 69.7344 12.1344-16.896 15.9744-54.784 14.7456-80.7424z"  p-id="1577"></path></svg>