<?xml version="1.0" standalone="no"?><!DOCTYPE svg PUBLIC "-//W3C//DTD SVG 1.1//EN" "http://www.w3.org/Graphics/SVG/1.1/DTD/svg11.dtd"><svg t="1618826599488" class="icon" viewBox="0 0 1024 1024" version="1.1" xmlns="http://www.w3.org/2000/svg" p-id="3779" width="64" height="64" xmlns:xlink="http://www.w3.org/1999/xlink"><defs><style type="text/css"></style></defs><path d="M938.666667 490.666667A106.666667 106.666667 0 0 0 832 384a104.96 104.96 0 0 0-64 22.613333A486.4 486.4 0 0 0 551.68 341.333333l26.453333-151.466666a10.24 10.24 0 0 1 10.24-8.96h2.986667L725.333333 221.866667a85.333333 85.333333 0 1 0 17.92-61.44l-134.826666-39.253334a85.333333 85.333333 0 0 0-20.906667-2.986666 74.666667 74.666667 0 0 0-73.386667 61.866666L486.826667 341.333333A491.52 491.52 0 0 0 256 406.613333 104.96 104.96 0 0 0 192 384 106.24 106.24 0 0 0 128 576.853333 165.546667 165.546667 0 0 0 128 597.333333c0 141.226667 170.666667 256 384 256s384-114.773333 384-256a165.546667 165.546667 0 0 0 0-20.48 106.666667 106.666667 0 0 0 42.666667-86.186666z m-640 42.666666A64 64 0 1 1 362.666667 597.333333 64 64 0 0 1 298.666667 533.333333z m350.293333 189.44a21.76 21.76 0 0 1-10.666667 13.653334 268.373333 268.373333 0 0 1-252.586666 0 21.76 21.76 0 0 1-10.666667-13.653334 22.186667 22.186667 0 0 1 3.413333-17.066666l12.373334-17.493334A20.906667 20.906667 0 0 1 418.133333 682.666667a216.32 216.32 0 0 0 187.733334 0 20.906667 20.906667 0 0 1 27.306666 6.826666l12.373334 17.493334a22.186667 22.186667 0 0 1 3.413333 15.786666zM661.333333 597.333333a64 64 0 1 1 64-64 64 64 0 0 1-64 64z" p-id="3780" ></path></svg>