<?xml version="1.0" encoding="utf-8"?>
<!-- Generator: Adobe Illustrator 22.1.0, SVG Export Plug-In . SVG Version: 6.00 Build 0)  -->
<svg version="1.1" id="图层_1" xmlns="http://www.w3.org/2000/svg" xmlns:xlink="http://www.w3.org/1999/xlink" x="0px" y="0px"
	 viewBox="0 0 64 64" style="enable-background:new 0 0 64 64;" xml:space="preserve">
<path d="M12.7,51.3h38.5V36.1c0-10.6-8.7-19.3-19.3-19.3s-19.3,8.7-19.3,19.3V51.3z M39,21.8c2.9,0,5.2,2.3,5.2,5.2
	s-2.3,5.2-5.2,5.2s-5.2-2.3-5.2-5.2S36.1,21.8,39,21.8z M32.8,11.6c1.2,0,2.3-1.1,2.3-2.3V6.2c0-1.2-1.1-2.3-2.3-2.3
	s-2.3,1.1-2.3,2.3v3.1C30.4,10.5,31.5,11.6,32.8,11.6z M51.1,14.7l2.2-2.2c0.9-0.9,0.9-2.5,0-3.4c-0.9-0.9-2.3-0.9-3.3,0l-2.2,2.2
	c-0.9,0.9-0.9,2.3,0,3.3C48.6,15.7,50.2,15.7,51.1,14.7z M12.9,14.7c0.9,0.9,2.5,0.9,3.4,0c0.9-0.9,0.9-2.3,0-3.3L14,9.1
	c-0.8-0.8-2.3-0.8-3.3,0c-0.9,0.9-0.9,2.5,0,3.4L12.9,14.7z M52.9,55.3H11c-1.2,0-2.3,1.1-2.3,2.3c0,1.2,1.1,2.3,2.3,2.3h42
	c1.2,0,2.3-1.1,2.3-2.3C55.3,56.4,54.2,55.3,52.9,55.3z"/>
</svg>
