<?xml version="1.0" standalone="no"?><!DOCTYPE svg PUBLIC "-//W3C//DTD SVG 1.1//EN" "http://www.w3.org/Graphics/SVG/1.1/DTD/svg11.dtd"><svg t="1652866515628" class="icon" viewBox="0 0 1024 1024" version="1.1" xmlns="http://www.w3.org/2000/svg" p-id="3791" xmlns:xlink="http://www.w3.org/1999/xlink" width="64" height="64"><defs><style type="text/css"></style></defs><path d="M546.773815 9.303377l385.218384 221.108071c21.559032 12.230058 35.040538 35.49561 35.040539 60.29703v442.386794c0 24.80142-13.367738 48.066972-35.040539 60.467682l-385.104616 221.108072a69.967308 69.967308 0 0 1-69.739772 0L91.929427 793.619838A69.85354 69.85354 0 0 1 56.888889 733.095272V290.87913c0-24.80142 13.367738-48.066972 35.040538-60.467682L477.147811 9.303377a70.536148 70.536148 0 0 1 69.626004 0z m-34.699234 61.150289L127.140617 291.277318v441.419766l384.820196 220.823652 384.706428-220.823652v-441.419766L511.960813 70.453666z m62.28797 218.434524c9.044554-9.84093 25.142724-1.820288 22.981132 11.490566l-32.423875 202.677659a13.53839 13.53839 0 0 0 13.140202 15.756865h91.185037c11.661218 0 17.747805 14.220998 9.670279 22.981132l-229.413134 250.289559c-8.987671 9.84093-25.08584 1.820288-22.981133-11.490567l32.423875-202.677658a13.53839 13.53839 0 0 0-13.083318-15.756865H354.619695c-11.718102 0-17.690921-14.220998-9.727162-22.981132z" p-id="3792"></path></svg>