<?xml version="1.0" standalone="no"?><!DOCTYPE svg PUBLIC "-//W3C//DTD SVG 1.1//EN" "http://www.w3.org/Graphics/SVG/1.1/DTD/svg11.dtd"><svg t="1648461564083" class="icon" viewBox="0 0 1024 1024" version="1.1" xmlns="http://www.w3.org/2000/svg" p-id="2655" xmlns:xlink="http://www.w3.org/1999/xlink" width="64" height="64"><defs><style type="text/css"></style></defs><path d="M796.781714 757.942857L687.945143 650.971429a256.292571 256.292571 0 0 0-13.750857-354.742858c-104.265143-102.4-271.652571-102.4-376.868572 0-101.522286 98.742857-104.265143 261.485714-5.485714 362.971429l5.485714 5.485714c95.158857 91.428571 243.346286 101.485714 349.44 22.857143l109.787429 107.885714c4.571429 5.485714 11.885714 8.228571 19.2 9.142858 7.314286 0 14.628571-2.742857 20.114286-8.228572 10.971429-10.057143 11.885714-27.428571 0.914285-38.4z m-521.398857-277.942857c1.828571-114.285714 96.036571-205.714286 211.309714-204.8 114.322286-0.914286 207.652571 90.514286 210.395429 204.8-1.828571 114.285714-96.073143 205.714286-210.395429 204.8a207.652571 207.652571 0 0 1-211.309714-204.8z" p-id="2656"></path><path d="M486.4 315.428571c89.307429-0.731429 162.267429 72.521143 164.388571 164.132572a18.285714 18.285714 0 0 1-36.571428 0.877714c-1.645714-71.936-58.477714-128.987429-127.524572-128.438857a18.285714 18.285714 0 0 1-0.292571-36.571429z" p-id="2657"></path></svg>