<?xml version="1.0" standalone="no"?><!DOCTYPE svg PUBLIC "-//W3C//DTD SVG 1.1//EN" "http://www.w3.org/Graphics/SVG/1.1/DTD/svg11.dtd"><svg t="1648461695483" class="icon" viewBox="0 0 1024 1024" version="1.1" xmlns="http://www.w3.org/2000/svg" p-id="3568" xmlns:xlink="http://www.w3.org/1999/xlink" width="64" height="64"><defs><style type="text/css"></style></defs><path d="M869.290667 414.634667L819.2 407.338667a31.957333 31.957333 0 0 1-24.490667-20.224 323.712 323.712 0 0 0-37.546666-68.053334 34.090667 34.090667 0 0 1-4.565334-32.213333l18.986667-48.896a33.024 33.024 0 0 0-13.312-40.277333l-108.288-65.28a30.208 30.208 0 0 0-40.106667 8.106666l-30.976 41.386667a31.146667 31.146667 0 0 1-29.354666 12.16 281.856 281.856 0 0 0-37.461334-2.56c-12.714667 0-25.173333 0.896-37.461333 2.56a31.146667 31.146667 0 0 1-29.354667-12.16l-30.976-41.386667a30.208 30.208 0 0 0-40.106666-8.106666L265.898667 197.546667a33.194667 33.194667 0 0 0-13.312 40.277333l18.986666 48.896a34.048 34.048 0 0 1-4.522666 32.213333 319.786667 319.786667 0 0 0-37.546667 68.053334 31.573333 31.573333 0 0 1-24.533333 20.181333l-50.090667 7.338667a32.170667 32.170667 0 0 0-26.88 32.213333v130.56c0 16.170667 11.477333 29.866667 26.794667 32.128l50.090666 7.338667c11.093333 1.621333 20.138667 9.472 24.490667 20.181333 9.898667 24.362667 22.528 47.232 37.546667 68.053333a34.090667 34.090667 0 0 1 4.565333 32.213334l-18.986667 48.896a33.024 33.024 0 0 0 13.312 40.277333l108.288 65.194667c13.482667 8.149333 30.549333 4.693333 40.106667-8.106667l30.976-41.386667a31.146667 31.146667 0 0 1 29.354667-12.16c12.245333 1.664 24.746667 2.56 37.461333 2.56 12.714667 0 25.173333-0.896 37.461333-2.56a31.146667 31.146667 0 0 1 29.354667 12.16l30.976 41.386667c9.557333 12.8 26.624 16.256 40.106667 8.106667l108.288-65.194667a33.194667 33.194667 0 0 0 13.312-40.277333l-18.986667-48.896a34.090667 34.090667 0 0 1 4.522667-32.213334c15.061333-20.821333 27.733333-43.690667 37.546666-68.053333a31.573333 31.573333 0 0 1 24.533334-20.181333l50.090666-7.338667a32.042667 32.042667 0 0 0 26.794667-32.128v-130.56a31.701333 31.701333 0 0 0-26.709333-32.128zM512 640a128 128 0 1 1 0-256 128 128 0 0 1 0 256z" p-id="3569"></path></svg>