<?xml version="1.0" standalone="no"?><!DOCTYPE svg PUBLIC "-//W3C//DTD SVG 1.1//EN" "http://www.w3.org/Graphics/SVG/1.1/DTD/svg11.dtd"><svg t="1648545202536" class="icon" viewBox="0 0 1024 1024" version="1.1" xmlns="http://www.w3.org/2000/svg" p-id="1829" xmlns:xlink="http://www.w3.org/1999/xlink" width="64" height="64"><defs><style type="text/css"></style></defs><path d="M795.648 85.333333c55.466667 0 100.48 46.933333 100.352 104.917334V833.706667C896 891.733333 851.029333 938.666667 795.52 938.666667H271.146667C215.68 938.666667 170.666667 891.733333 170.666667 833.749333V190.293333C170.666667 132.266667 215.637333 85.333333 271.146667 85.333333z m-44.330667 85.333334c-32.853333 0-59.306667 28.330667-59.306666 63.189333 0 20.906667 9.472 39.424 24.064 50.858667-21.290667 93.013333-95.061333 158.677333-181.589334 158.677333-86.741333 0-160.426667-65.408-181.76-160.512 13.354667-11.562667 21.930667-29.184 21.930667-49.024 0-34.986667-26.453333-63.189333-59.306667-63.189333C282.453333 170.666667 256 198.997333 256 233.856c0 26.112 14.805333 48.554667 36.096 58.154667C316.928 418.730667 417.92 512 534.272 512c116.352 0 217.173333-93.354667 242.048-221.013333 20.138667-10.069333 34.005333-31.872 34.346667-57.130667C810.666667 198.869333 784.213333 170.666667 751.36 170.666667z" p-id="1830"></path></svg>