<?xml version="1.0" standalone="no"?><!DOCTYPE svg PUBLIC "-//W3C//DTD SVG 1.1//EN" "http://www.w3.org/Graphics/SVG/1.1/DTD/svg11.dtd"><svg t="1651734453951" class="icon" viewBox="0 0 1024 1024" version="1.1" xmlns="http://www.w3.org/2000/svg" p-id="2889" xmlns:xlink="http://www.w3.org/1999/xlink" width="64" height="64"><defs><style type="text/css">@font-face { font-family: feedback-iconfont; src: url("//at.alicdn.com/t/font_1031158_u69w8yhxdu.woff2?t=1630033759944") format("woff2"), url("//at.alicdn.com/t/font_1031158_u69w8yhxdu.woff?t=1630033759944") format("woff"), url("//at.alicdn.com/t/font_1031158_u69w8yhxdu.ttf?t=1630033759944") format("truetype"); }
</style></defs><path d="M490.666667 724.48c3.498667 0 6.997333 0.768 10.112 2.432l154.922666 80.512c9.301333 4.821333 21.333333 4.224 30.037334-1.578667a24.661333 24.661333 0 0 0 11.178666-24.874666l-30.208-174.165334a20.224 20.224 0 0 1 6.016-18.048l130.218667-125.482666a24.192 24.192 0 0 0 6.314667-25.813334 27.264 27.264 0 0 0-22.186667-17.365333l-177.664-25.514667a21.333333 21.333333 0 0 1-16.128-11.477333l-77.269333-154.794667A28.16 28.16 0 0 0 490.666667 213.333333a28.288 28.288 0 0 0-25.386667 14.933334L388.053333 383.146667a21.333333 21.333333 0 0 1-16.128 11.477333l-177.664 25.514667a27.605333 27.605333 0 0 0-22.186666 17.408 24.149333 24.149333 0 0 0 6.314666 25.728L308.608 588.8a20.266667 20.266667 0 0 1 5.973333 18.048l-30.165333 174.08a24.746667 24.746667 0 0 0 11.221333 25.045333c8.618667 5.674667 20.608 6.4 30.08 1.450667l154.837334-80.469333a21.674667 21.674667 0 0 1 10.112-2.474667z" p-id="2890"></path></svg>