<?xml version="1.0" standalone="no"?><!DOCTYPE svg PUBLIC "-//W3C//DTD SVG 1.1//EN" "http://www.w3.org/Graphics/SVG/1.1/DTD/svg11.dtd"><svg t="1651651151491" class="icon" viewBox="0 0 1024 1024" version="1.1" xmlns="http://www.w3.org/2000/svg" p-id="2325" xmlns:xlink="http://www.w3.org/1999/xlink" width="200" height="200"><defs><style type="text/css">@font-face { font-family: feedback-iconfont; src: url("//at.alicdn.com/t/font_1031158_u69w8yhxdu.woff2?t=1630033759944") format("woff2"), url("//at.alicdn.com/t/font_1031158_u69w8yhxdu.woff?t=1630033759944") format("woff"), url("//at.alicdn.com/t/font_1031158_u69w8yhxdu.ttf?t=1630033759944") format("truetype"); }
</style></defs><path d="M206.506667 457.941333c12.245333 18.986667 23.594667 36.992 34.005333 54.058667 38.4 62.976-44.8 266.112 0 301.824 60.714667 48.512 233.856-72.96 271.488-72.96 42.24 0 193.365333 129.024 259.498667 72.96 39.936-33.834667-25.770667-259.925333 15.914666-317.44 10.88-15.018667 21.248-29.482667 31.189334-43.392a42.666667 42.666667 0 0 1 77.397333 24.746667V896a42.666667 42.666667 0 0 1-42.666667 42.666667H170.666667a42.666667 42.666667 0 0 1-42.666667-42.666667v-414.890667a42.666667 42.666667 0 0 1 78.506667-23.168z" p-id="2326"></path><path d="M359.68 721.621333c-24.192 11.648-45.44-5.717333-43.093333-35.072l15.018666-185.002666L222.464 361.813333c-17.28-22.186667-9.045333-50.218667 16.469333-56.746666l161.578667-41.130667 84.864-159.573333c13.44-25.344 39.765333-25.301333 53.248 0l84.821333 159.573333 161.578667 41.173333c25.685333 6.528 33.792 34.56 16.469333 56.746667l-109.141333 139.733333 15.104 185.088c2.389333 29.354667-18.901333 46.677333-43.093333 35.029334L512 648.448l-152.32 73.173333z" p-id="2327"></path></svg>