<?xml version="1.0" standalone="no"?><!DOCTYPE svg PUBLIC "-//W3C//DTD SVG 1.1//EN" "http://www.w3.org/Graphics/SVG/1.1/DTD/svg11.dtd"><svg t="1642583143672" class="icon" viewBox="0 0 1024 1024" version="1.1" xmlns="http://www.w3.org/2000/svg" p-id="9017" xmlns:xlink="http://www.w3.org/1999/xlink" width="64" height="64"><defs><style type="text/css"></style></defs><path d="M512 512m-512 0a512 512 0 1 0 1024 0 512 512 0 1 0-1024 0Z" fill="#C53027" p-id="9018"></path><path d="M730.282667 307.072L213.333333 213.333333l272.042667 674.56 379.050667-455.082666-134.144-125.738667z m-8.32 41.301333l79.061333 74.069334-197.034667 30.890666 117.973334-104.96z m-184.192 104.96L309.802667 267.008l372.608 67.541333-144.64 118.784z m-16.213334 32.938667l-47.786666 289.194667-189.824-483.413334 237.568 194.218667z m34.389334 16.085333l239.488-42.752-278.272 315.861334 38.784-273.109334z" fill="#FFFFFF" p-id="9019"></path></svg>