<?xml version="1.0" standalone="no"?><!DOCTYPE svg PUBLIC "-//W3C//DTD SVG 1.1//EN" "http://www.w3.org/Graphics/SVG/1.1/DTD/svg11.dtd"><svg t="1648720324547" class="icon" viewBox="0 0 1024 1024" version="1.1" xmlns="http://www.w3.org/2000/svg" p-id="1883" xmlns:xlink="http://www.w3.org/1999/xlink" width="64" height="64"><defs><style type="text/css"></style></defs><path d="M852.864 461.781333V321.237333c0-35.84-31.744-64.981333-71.04-65.237333H242.176C202.709333 256 170.666667 285.226667 170.666667 321.28v140.501333c25.002667 1.578667 44.373333 20.608 44.373333 43.477334 0 22.869333-19.370667 41.898667-44.373333 43.52v153.984C170.666667 738.773333 202.666667 768 242.176 768h539.648c39.466667 0 71.509333-29.226667 71.509333-65.28v-157.866667c-25.301333 6.698667-51.754667-6.528-59.136-29.610666-7.381333-23.04 7.168-47.189333 32.426667-53.930667 8.746667-2.304 18.005333-2.304 26.709333 0l-0.469333 0.426667zM341.333333 469.333333a42.666667 42.666667 0 1 1 42.666667-42.666666 42.666667 42.666667 0 0 1-42.666667 42.666666z m312.917334 170.666667H409.173333s-43.306667 0-16.298666-30.293333l126.72-132.138667a18.432 18.432 0 0 1 30.72 0c13.354667 19.498667 25.344 39.893333 35.882666 61.098667h37.76l52.181334 66.773333s24.661333 32.682667-21.888 34.56z" p-id="1884"></path></svg>