<?xml version="1.0" standalone="no"?><!DOCTYPE svg PUBLIC "-//W3C//DTD SVG 1.1//EN" "http://www.w3.org/Graphics/SVG/1.1/DTD/svg11.dtd"><svg t="1648461711034" class="icon" viewBox="0 0 1024 1024" version="1.1" xmlns="http://www.w3.org/2000/svg" p-id="4172" xmlns:xlink="http://www.w3.org/1999/xlink" width="64" height="64"><defs><style type="text/css"></style></defs><path d="M452.906667 554.666667C579.84 554.666667 682.666667 449.621333 682.666667 320S579.84 85.333333 452.906667 85.333333C326.016 85.333333 223.189333 190.378667 223.189333 320S325.973333 554.666667 452.906667 554.666667z m10.837333 99.541333C254.72 654.208 85.333333 717.909333 85.333333 785.493333 85.333333 874.88 254.72 938.666667 463.744 938.666667c60.586667 0 122.197333-5.248 172.970667-14.506667-31.36-23.893333-107.861333-94.549333-127.274667-152.32-19.370667-57.813333-7.338667-94.848-2.261333-116.693333a1004.8 1004.8 0 0 0-43.434667-0.938667zM830.72 597.333333c-33.024 0-63.701333 15.914667-84.053333 42.069334A106.496 106.496 0 0 0 662.613333 597.333333C603.050667 597.333333 554.666667 648.021333 554.666667 710.229333c0 37.034667 17.322667 63.189333 31.317333 84.138667 40.490667 60.928 142.506667 136.533333 146.901333 139.690667a22.869333 22.869333 0 0 0 27.562667 0c4.352-3.157333 106.197333-78.933333 146.901333-139.690667 13.994667-20.906667 31.317333-47.104 31.317334-84.138667C938.666667 648.021333 890.282667 597.333333 830.72 597.333333z" p-id="4173"></path></svg>