<?xml version="1.0" standalone="no"?><!DOCTYPE svg PUBLIC "-//W3C//DTD SVG 1.1//EN" "http://www.w3.org/Graphics/SVG/1.1/DTD/svg11.dtd"><svg t="1648461567529" class="icon" viewBox="0 0 1024 1024" version="1.1" xmlns="http://www.w3.org/2000/svg" p-id="2808" xmlns:xlink="http://www.w3.org/1999/xlink" width="64" height="64"><defs><style type="text/css"></style></defs><path d="M845.738667 851.925333c-16.298667 34.986667-59.861333 37.717333-72.832 37.717334H239.018667c-9.173333-0.512-46.293333-4.565333-63.146667-36.181334-7.125333-13.354667-12.714667-35.669333 0.981333-66.218666 25.002667-55.552 82.986667-60.928 96.810667-61.44 98.645333-15.232 130.688-49.066667 130.986667-49.365334l2.304-2.389333c10.496-9.898667 14.08-27.306667 15.061333-42.368C358.186667 583.253333 317.866667 489.813333 317.866667 387.2c0-164.522667 102.4-222.890667 190.08-222.890667 87.722667 0 190.122667 58.368 190.122666 222.890667 0 102.656-40.277333 196.053333-104.106666 244.48 1.024 15.104 4.608 32.554667 15.018666 42.368l2.901334 3.072c0.085333 0 32.256 33.578667 130.432 48.725333 22.613333 0.853333 64.981333 13.141333 92.544 54.485334 21.504 32.256 17.792 56.746667 10.837333 71.594666z" p-id="2809"></path></svg>