<?xml version="1.0" standalone="no"?><!DOCTYPE svg PUBLIC "-//W3C//DTD SVG 1.1//EN" "http://www.w3.org/Graphics/SVG/1.1/DTD/svg11.dtd"><svg t="1648462825248" class="icon" viewBox="0 0 1024 1024" version="1.1" xmlns="http://www.w3.org/2000/svg" p-id="2218" xmlns:xlink="http://www.w3.org/1999/xlink" width="64" height="64"><defs><style type="text/css"></style></defs><path d="M853.333333 777.6c0 10.538667-1.834667 20.394667-5.504 29.525333A73.130667 73.130667 0 0 1 778.922667 853.333333H164.821333a80.298667 80.298667 0 0 1-55.808-22.058666 77.909333 77.909333 0 0 1-17.322666-24.149334A69.589333 69.589333 0 0 1 85.333333 777.6V362.24c0-21.077333 7.466667-38.997333 22.4-53.674667 14.933333-14.72 33.152-22.058667 54.570667-22.058666h614.058667c21.418667 0 39.594667 7.338667 54.570666 22.058666 14.933333 14.677333 22.4 32.597333 22.4 53.674667v113.194667h-192c-21.418667 0-39.594667 7.210667-54.570666 21.632-14.933333 14.421333-22.4 32.170667-22.4 53.248 0.554667 14.464 3.669333 27.221333 9.301333 38.314666 4.522667 9.386667 11.946667 18.005333 22.4 25.770667 10.453333 7.808 25.514667 11.690667 45.269333 11.690667H853.333333v151.466666zM738.304 209.834667h-384a5445.12 5445.12 0 0 0 86.272-44.928 8012.8 8012.8 0 0 0 70.186667-36.608c23.125333-12.202667 41.173333-21.632 54.186666-28.288 19.712-10.581333 37.333333-15.402667 52.821334-14.592 15.530667 0.853333 28.586667 3.456 39.338666 7.893333 12.373333 6.144 23.125333 14.165333 32.128 24.149333l49.066667 92.373334zM623.274667 550.4c0-10.538667 3.669333-19.413333 11.008-26.624a37.12 37.12 0 0 1 27.050666-10.794667 37.12 37.12 0 0 1 27.050667 10.794667c7.338667 7.253333 11.008 16.085333 11.008 26.624a37.290667 37.290667 0 0 1-11.008 27.050667 36.394667 36.394667 0 0 1-27.050667 11.264 36.394667 36.394667 0 0 1-27.050666-11.264 37.290667 37.290667 0 0 1-11.008-27.050667z" p-id="2219"></path></svg>