<?xml version="1.0" standalone="no"?><!DOCTYPE svg PUBLIC "-//W3C//DTD SVG 1.1//EN" "http://www.w3.org/Graphics/SVG/1.1/DTD/svg11.dtd"><svg t="1652184558560" class="icon" viewBox="0 0 1280 1024" version="1.1" xmlns="http://www.w3.org/2000/svg" p-id="2609" xmlns:xlink="http://www.w3.org/1999/xlink" width="80" height="64"><defs><style type="text/css">@font-face { font-family: feedback-iconfont; src: url("//at.alicdn.com/t/font_1031158_u69w8yhxdu.woff2?t=1630033759944") format("woff2"), url("//at.alicdn.com/t/font_1031158_u69w8yhxdu.woff?t=1630033759944") format("woff"), url("//at.alicdn.com/t/font_1031158_u69w8yhxdu.ttf?t=1630033759944") format("truetype"); }
</style></defs><path d="M1183.552 916.416c60.032-56.064 96.448-129.664 96.448-210.24 0-140.288-110.272-259.328-263.36-301.44C1007.552 179.84 783.552 0 508.48 0 227.648 0 0 187.52 0 418.944c0 106.24 48 203.264 127.104 277.12 24.768 23.104-4.224 86.4-39.808 138.624 60.16-16.96 124.352-28.032 180.544-28.032 26.304 0 50.88 2.432 72.448 7.808a606.592 606.592 0 0 0 202.24 22.464C603.136 947.264 737.792 1024 894.336 1024c44.672 0 87.68-6.272 127.552-17.792 16.384-4.096 35.008-5.952 54.976-5.952 42.624 0 91.328 8.384 136.96 21.312-27.008-39.68-48.96-87.68-30.208-105.152zM508.48 761.408c-50.752 0-100.48-6.976-147.84-20.608l-1.28-0.384-1.28-0.32a375.424 375.424 0 0 0-90.24-9.984c-19.072 0-38.208 1.088-56.896 2.944 3.968-44.864-12.8-74.368-33.28-93.44a336.256 336.256 0 0 1-76.16-102.976 275.84 275.84 0 0 1-26.56-117.696c0-88.32 42.944-172.352 121.024-236.672a449.92 449.92 0 0 1 138.816-76.928 526.528 526.528 0 0 1 173.696-28.8c60.416 0 118.848 9.664 173.76 28.8a449.792 449.792 0 0 1 138.752 76.928c69.696 57.408 111.36 130.56 119.552 208.384a472.32 472.32 0 0 0-46.272-2.304c-213.12 0-385.792 142.272-385.792 317.824 0 18.816 2.048 37.248 5.76 55.168h-5.76z m624.512 98.56c-12.096 11.264-28.032 32-30.976 64.512a436.352 436.352 0 0 0-25.216-0.704c-26.688 0-51.2 2.688-72.704 8.064l-1.28 0.32-1.344 0.384c-34.304 9.92-70.4 14.912-107.2 14.912-43.84 0-86.208-7.04-126.016-20.864a323.328 323.328 0 0 1-99.712-55.232c-54.912-45.248-85.12-103.872-85.12-165.184s30.208-119.936 85.12-165.12a323.328 323.328 0 0 1 99.712-55.296 381.76 381.76 0 0 1 126.016-20.864c43.776 0 86.208 7.04 125.952 20.864a323.392 323.392 0 0 1 99.776 55.232c54.848 45.248 85.12 103.872 85.12 165.184 0 27.904-6.208 55.232-18.432 81.28-12.288 26.304-30.336 50.688-53.696 72.448zM285.44 337.024c0.384-44.16 27.456-79.808 60.8-79.808 33.536 0 60.8 36.16 60.8 80.704 0 44.608-27.264 80.768-60.8 80.768-33.344 0-60.416-35.648-60.8-79.744v-1.92z m316.16 0c0.448-44.16 27.52-79.808 60.8-79.808 33.536 0 60.8 36.16 60.8 80.704 0 44.608-27.264 80.768-60.8 80.768-33.28 0-60.352-35.648-60.8-79.744v-1.92z m140.16 310.016c0.384-33.92 21.248-61.248 46.848-61.248 25.856 0 46.848 27.84 46.848 62.208 0 34.368-20.992 62.208-46.848 62.208-25.6 0-46.464-27.328-46.848-61.184v-1.92z m225.728 0c0.384-33.92 21.184-61.248 46.848-61.248 25.856 0 46.848 27.84 46.848 62.208 0 34.368-20.992 62.208-46.848 62.208-25.6 0-46.464-27.328-46.848-61.184v-1.92z" p-id="2610"></path></svg>